<?xml version="1.0" encoding="UTF-8" standalone="no"?>
<!DOCTYPE svg PUBLIC "-//W3C//DTD SVG 1.1//EN" "http://www.w3.org/Graphics/SVG/1.1/DTD/svg11.dtd">
<svg xmlns="http://www.w3.org/2000/svg" version="1.1" viewBox="0.00 0.00 500.00 500.00">
<g stroke-width="2.00" fill="none" stroke-linecap="butt">
<path stroke="#c2eb8d" vector-effect="non-scaling-stroke" d="
  M 109.75 90.05
  Q 121.01 108.53 136.73 123.63"
/>
<path stroke="#b8e796" vector-effect="non-scaling-stroke" d="
  M 136.73 123.63
  Q 145.46 131.90 155.25 138.99
  C 161.16 143.27 167.83 146.58 173.50 150.61
  A 0.45 0.44 49.2 0 1 173.45 151.37
  Q 173.04 151.58 172.31 151.44
  Q 165.45 150.11 158.53 148.72"
/>
<path stroke="#ade39d" vector-effect="non-scaling-stroke" d="
  M 158.53 148.72
  Q 144.07 145.35 126.91 139.54
  Q 76.36 122.42 39.93 83.33
  A 0.34 0.34 0.0 0 0 39.37 83.70
  Q 47.60 103.20 61.55 119.58"
/>
<path stroke="#9bdea5" vector-effect="non-scaling-stroke" d="
  M 61.55 119.58
  Q 74.02 134.72 91.36 147.89
  Q 104.62 157.95 116.64 164.32"
/>
<path stroke="#80d1ad" vector-effect="non-scaling-stroke" d="
  M 116.64 164.32
  Q 155.79 184.38 199.71 187.91
  A 0.36 0.18 36.9 0 1 199.82 187.93
  L 200.64 188.20
  A 0.41 0.41 0.0 0 1 200.62 188.99
  Q 196.84 190.08 192.25 190.73
  C 173.75 193.36 152.52 193.64 134.19 189.65
  Q 116.59 185.82 101.28 178.29
  A 0.33 0.33 0.0 0 0 100.81 178.59
  Q 100.81 178.83 101.11 179.14
  Q 125.62 205.26 160.68 213.58
  Q 171.08 216.05 186.50 216.96
  C 197.14 217.59 207.72 216.08 218.37 214.53
  A 0.36 0.35 -65.6 0 1 218.61 215.18
  Q 213.67 218.44 208.20 220.47
  C 190.79 226.91 175.36 229.17 157.50 225.93
  A 0.39 0.38 70.9 0 0 157.18 226.60
  Q 160.06 229.18 163.35 230.91
  C 169.79 234.30 176.26 237.43 183.31 239.13
  Q 204.45 244.25 225.58 238.88
  A 0.33 0.33 0.0 0 1 225.92 239.41
  C 222.10 244.14 217.80 248.81 214.67 253.45
  Q 193.54 284.77 193.63 323.25"
/>
<path stroke="#80bcb1" vector-effect="non-scaling-stroke" d="
  M 193.63 323.25
  Q 194.28 340.53 198.40 357.37
  A 0.32 0.32 0.0 0 0 199.03 357.30
  C 199.14 340.97 202.42 324.16 207.56 309.32
  Q 216.03 284.83 234.76 266.02
  Q 237.79 262.98 245.36 256.50"
/>
<path stroke="#80d1ad" vector-effect="non-scaling-stroke" d="
  M 245.36 256.50
  Q 260.18 245.14 277.17 237.03"
/>
<path stroke="#ade39d" vector-effect="non-scaling-stroke" d="
  M 277.17 237.03
  C 290.11 231.39 301.61 226.08 312.61 217.76"
/>
<path stroke="#b8e796" vector-effect="non-scaling-stroke" d="
  M 312.61 217.76
  Q 320.67 210.92 328.77 204.02
  Q 333.09 200.35 338.12 197.55"
/>
<path stroke="#caee83" vector-effect="non-scaling-stroke" d="
  M 338.12 197.55
  Q 348.04 192.61 358.86 192.82
  C 366.05 192.96 374.41 194.32 379.98 199.07
  A 0.74 0.73 -63.5 0 0 381.17 198.67
  C 383.59 188.07 376.79 182.65 368.45 178.35
  A 2.60 2.58 -85.5 0 1 367.15 176.82
  Q 364.36 168.09 355.43 165.83
  Q 344.42 163.04 340.04 162.03
  C 327.85 159.25 318.82 152.67 318.31 139.93
  A 0.37 0.37 0.0 0 0 317.63 139.73
  C 312.14 147.71 311.47 156.69 317.36 164.51
  A 0.77 0.77 0.0 0 1 316.77 165.74
  Q 308.12 166.03 299.71 168.00
  Q 293.88 169.36 288.78 171.61"
/>
<path stroke="#b8e796" vector-effect="non-scaling-stroke" d="
  M 288.78 171.61
  Q 287.87 172.68 288.08 174.02
  Q 290.37 189.05 279.66 199.72
  A 0.30 0.30 0.0 0 1 279.15 199.44
  C 280.71 192.53 282.18 186.73 281.33 180.07"
/>
<path stroke="#c2eb8d" vector-effect="non-scaling-stroke" d="
  M 281.33 180.07
  C 279.88 165.45 266.52 156.01 254.60 150.65
  C 249.73 148.46 242.82 145.59 237.43 143.58
  C 209.44 133.16 180.63 120.28 155.50 103.31"
/>
<path stroke="#caee81" vector-effect="non-scaling-stroke" d="
  M 155.50 103.31
  Q 138.81 91.41 124.39 76.86
  Q 103.94 56.20 90.05 30.32
  A 0.26 0.26 0.0 0 0 89.56 30.47
  Q 93.32 62.33 109.75 90.05"
/>
<path stroke="#8dda0f" vector-effect="non-scaling-stroke" d="
  M 155.50 103.31
  Q 138.90 102.65 123.46 96.06
  Q 116.62 93.13 109.75 90.05"
/>
<path stroke="#7bd324" vector-effect="non-scaling-stroke" d="
  M 281.33 180.07
  C 260.35 172.35 239.99 163.25 219.43 154.47
  Q 185.71 140.07 136.73 123.63"
/>
<path stroke="#83d619" vector-effect="non-scaling-stroke" d="
  M 288.78 171.61
  Q 288.18 173.34 288.30 174.58
  A 0.93 0.92 -80.7 0 0 288.82 175.31
  Q 313.01 187.12 338.12 197.55"
/>
<path stroke="#66cb34" vector-effect="non-scaling-stroke" d="
  M 158.53 148.72
  C 177.79 160.08 195.82 166.34 219.14 175.23
  Q 237.15 182.10 262.14 193.72
  Q 287.39 205.47 312.61 217.76"
/>
<path stroke="#2db54b" vector-effect="non-scaling-stroke" d="
  M 277.17 237.03
  L 261.24 227.76
  A 0.85 0.83 17.7 0 1 260.82 226.97
  C 261.71 213.17 256.52 202.07 245.89 193.19
  C 238.19 186.76 228.23 182.02 219.69 179.58
  Q 201.75 174.47 185.00 171.08
  C 173.67 168.80 163.23 165.65 151.22 162.84
  Q 145.59 161.52 133.16 156.13"
/>
<path stroke="#48c243" vector-effect="non-scaling-stroke" d="
  M 133.16 156.13
  Q 128.28 154.58 123.87 152.57
  Q 106.72 144.76 91.13 134.22
  Q 86.36 130.98 81.83 128.90
  Q 71.66 124.23 61.55 119.58"
/>
<path stroke="#018e5e" vector-effect="non-scaling-stroke" d="
  M 245.36 256.50
  Q 234.52 256.29 223.93 257.67
  A 1.13 1.11 -77.6 0 0 223.13 258.19
  Q 213.90 273.38 209.85 281.65
  Q 208.98 283.42 205.32 292.19
  C 201.42 301.50 199.62 311.48 197.72 321.29
  Q 197.59 321.99 196.85 323.62
  A 0.52 0.51 37.9 0 1 195.99 323.72
  Q 193.16 320.25 193.63 323.25"
/>
<path stroke="#1bb052" vector-effect="non-scaling-stroke" d="
  M 133.16 156.13
  Q 124.25 159.13 116.64 164.32"
/>
<path stroke="#80bcb1" vector-effect="non-scaling-stroke" d="
  M 217.31 322.20
  Q 216.33 325.08 215.36 329.60
  Q 208.51 361.38 217.69 390.65
  C 226.05 417.31 244.14 440.36 267.81 454.94
  C 304.75 477.69 352.53 476.11 387.87 450.61
  Q 405.90 437.60 417.62 420.15"
/>
<path stroke="#80d1ad" vector-effect="non-scaling-stroke" d="
  M 417.62 420.15
  Q 440.11 385.67 435.67 344.56"
/>
<path stroke="#a6dfa3" vector-effect="non-scaling-stroke" d="
  M 435.67 344.56
  Q 432.59 314.78 415.27 290.71
  Q 414.40 289.50 413.78 288.98
  A 0.16 0.15 3.5 0 0 413.55 289.18
  Q 415.54 292.09 416.87 295.13
  Q 425.75 315.49 426.19 337.66
  C 426.25 340.93 425.75 344.36 425.69 347.72
  Q 425.63 350.31 424.79 355.20
  Q 419.02 388.47 395.51 412.61"
/>
<path stroke="#80d1ad" vector-effect="non-scaling-stroke" d="
  M 395.51 412.61
  C 379.07 429.33 356.75 440.31 333.20 441.52"
/>
<path stroke="#80bcb1" vector-effect="non-scaling-stroke" d="
  M 333.20 441.52
  C 318.15 442.11 304.48 439.89 291.13 433.81
  Q 282.38 429.82 274.05 423.62
  Q 238.62 397.24 233.20 351.52"
/>
<path stroke="#81cdae" vector-effect="non-scaling-stroke" d="
  M 233.20 351.52
  Q 230.91 327.87 237.82 308.08
  Q 252.77 265.21 295.48 244.35
  A 0.26 0.26 0.0 0 0 295.61 244.01
  A 0.27 0.26 70.5 0 0 295.28 243.85
  C 257.93 255.70 228.09 284.33 217.31 322.20"
/>
<path stroke="#028960" vector-effect="non-scaling-stroke" d="
  M 233.20 351.52
  Q 224.58 337.33 217.31 322.20"
/>
<path stroke="#018e5e" vector-effect="non-scaling-stroke" d="
  M 333.20 441.52
  Q 344.88 447.13 357.30 450.98
  A 1.71 1.65 43.0 0 0 358.40 450.96
  C 372.38 445.84 384.46 438.56 395.64 429.10
  A 4.11 3.98 11.0 0 1 396.47 428.56
  Q 406.63 423.48 417.62 420.15"
/>
<path stroke="#26b150" vector-effect="non-scaling-stroke" d="
  M 435.67 344.56
  C 432.44 346.14 431.82 349.86 431.52 353.39
  C 430.89 360.73 428.50 367.41 427.33 374.48
  C 426.86 377.30 426.05 380.29 425.25 382.25
  Q 421.74 390.78 420.42 395.38
  A 4.33 4.02 71.2 0 1 419.97 396.39
  L 412.74 407.75
  A 1.31 1.29 -83.4 0 1 412.08 408.28
  Q 403.99 411.26 395.51 412.61"
/>
</g>
<path fill="#ffffff" d="
  M 500.00 0.00
  L 500.00 500.00
  L 0.00 500.00
  L 0.00 0.00
  L 500.00 0.00
  Z
  M 109.75 90.05
  Q 121.01 108.53 136.73 123.63
  Q 145.46 131.90 155.25 138.99
  C 161.16 143.27 167.83 146.58 173.50 150.61
  A 0.45 0.44 49.2 0 1 173.45 151.37
  Q 173.04 151.58 172.31 151.44
  Q 165.45 150.11 158.53 148.72
  Q 144.07 145.35 126.91 139.54
  Q 76.36 122.42 39.93 83.33
  A 0.34 0.34 0.0 0 0 39.37 83.70
  Q 47.60 103.20 61.55 119.58
  Q 74.02 134.72 91.36 147.89
  Q 104.62 157.95 116.64 164.32
  Q 155.79 184.38 199.71 187.91
  A 0.36 0.18 36.9 0 1 199.82 187.93
  L 200.64 188.20
  A 0.41 0.41 0.0 0 1 200.62 188.99
  Q 196.84 190.08 192.25 190.73
  C 173.75 193.36 152.52 193.64 134.19 189.65
  Q 116.59 185.82 101.28 178.29
  A 0.33 0.33 0.0 0 0 100.81 178.59
  Q 100.81 178.83 101.11 179.14
  Q 125.62 205.26 160.68 213.58
  Q 171.08 216.05 186.50 216.96
  C 197.14 217.59 207.72 216.08 218.37 214.53
  A 0.36 0.35 -65.6 0 1 218.61 215.18
  Q 213.67 218.44 208.20 220.47
  C 190.79 226.91 175.36 229.17 157.50 225.93
  A 0.39 0.38 70.9 0 0 157.18 226.60
  Q 160.06 229.18 163.35 230.91
  C 169.79 234.30 176.26 237.43 183.31 239.13
  Q 204.45 244.25 225.58 238.88
  A 0.33 0.33 0.0 0 1 225.92 239.41
  C 222.10 244.14 217.80 248.81 214.67 253.45
  Q 193.54 284.77 193.63 323.25
  Q 194.28 340.53 198.40 357.37
  A 0.32 0.32 0.0 0 0 199.03 357.30
  C 199.14 340.97 202.42 324.16 207.56 309.32
  Q 216.03 284.83 234.76 266.02
  Q 237.79 262.98 245.36 256.50
  Q 260.18 245.14 277.17 237.03
  C 290.11 231.39 301.61 226.08 312.61 217.76
  Q 320.67 210.92 328.77 204.02
  Q 333.09 200.35 338.12 197.55
  Q 348.04 192.61 358.86 192.82
  C 366.05 192.96 374.41 194.32 379.98 199.07
  A 0.74 0.73 -63.5 0 0 381.17 198.67
  C 383.59 188.07 376.79 182.65 368.45 178.35
  A 2.60 2.58 -85.5 0 1 367.15 176.82
  Q 364.36 168.09 355.43 165.83
  Q 344.42 163.04 340.04 162.03
  C 327.85 159.25 318.82 152.67 318.31 139.93
  A 0.37 0.37 0.0 0 0 317.63 139.73
  C 312.14 147.71 311.47 156.69 317.36 164.51
  A 0.77 0.77 0.0 0 1 316.77 165.74
  Q 308.12 166.03 299.71 168.00
  Q 293.88 169.36 288.78 171.61
  Q 287.87 172.68 288.08 174.02
  Q 290.37 189.05 279.66 199.72
  A 0.30 0.30 0.0 0 1 279.15 199.44
  C 280.71 192.53 282.18 186.73 281.33 180.07
  C 279.88 165.45 266.52 156.01 254.60 150.65
  C 249.73 148.46 242.82 145.59 237.43 143.58
  C 209.44 133.16 180.63 120.28 155.50 103.31
  Q 138.81 91.41 124.39 76.86
  Q 103.94 56.20 90.05 30.32
  A 0.26 0.26 0.0 0 0 89.56 30.47
  Q 93.32 62.33 109.75 90.05
  Z
  M 217.31 322.20
  Q 216.33 325.08 215.36 329.60
  Q 208.51 361.38 217.69 390.65
  C 226.05 417.31 244.14 440.36 267.81 454.94
  C 304.75 477.69 352.53 476.11 387.87 450.61
  Q 405.90 437.60 417.62 420.15
  Q 440.11 385.67 435.67 344.56
  Q 432.59 314.78 415.27 290.71
  Q 414.40 289.50 413.78 288.98
  A 0.16 0.15 3.5 0 0 413.55 289.18
  Q 415.54 292.09 416.87 295.13
  Q 425.75 315.49 426.19 337.66
  C 426.25 340.93 425.75 344.36 425.69 347.72
  Q 425.63 350.31 424.79 355.20
  Q 419.02 388.47 395.51 412.61
  C 379.07 429.33 356.75 440.31 333.20 441.52
  C 318.15 442.11 304.48 439.89 291.13 433.81
  Q 282.38 429.82 274.05 423.62
  Q 238.62 397.24 233.20 351.52
  Q 230.91 327.87 237.82 308.08
  Q 252.77 265.21 295.48 244.35
  A 0.26 0.26 0.0 0 0 295.61 244.01
  A 0.27 0.26 70.5 0 0 295.28 243.85
  C 257.93 255.70 228.09 284.33 217.31 322.20
  Z"
/>
<path fill="#95dd02" d="
  M 155.50 103.31
  Q 138.90 102.65 123.46 96.06
  Q 116.62 93.13 109.75 90.05
  Q 93.32 62.33 89.56 30.47
  A 0.26 0.26 0.0 0 1 90.05 30.32
  Q 103.94 56.20 124.39 76.86
  Q 138.81 91.41 155.50 103.31
  Z"
/>
<path fill="#5ac73b" d="
  M 158.53 148.72
  C 177.79 160.08 195.82 166.34 219.14 175.23
  Q 237.15 182.10 262.14 193.72
  Q 287.39 205.47 312.61 217.76
  C 301.61 226.08 290.11 231.39 277.17 237.03
  L 261.24 227.76
  A 0.85 0.83 17.7 0 1 260.82 226.97
  C 261.71 213.17 256.52 202.07 245.89 193.19
  C 238.19 186.76 228.23 182.02 219.69 179.58
  Q 201.75 174.47 185.00 171.08
  C 173.67 168.80 163.23 165.65 151.22 162.84
  Q 145.59 161.52 133.16 156.13
  Q 128.28 154.58 123.87 152.57
  Q 106.72 144.76 91.13 134.22
  Q 86.36 130.98 81.83 128.90
  Q 71.66 124.23 61.55 119.58
  Q 47.60 103.20 39.37 83.70
  A 0.34 0.34 0.0 0 1 39.93 83.33
  Q 76.36 122.42 126.91 139.54
  Q 144.07 145.35 158.53 148.72
  Z"
/>
<path fill="#85d61b" d="
  M 155.50 103.31
  C 180.63 120.28 209.44 133.16 237.43 143.58
  C 242.82 145.59 249.73 148.46 254.60 150.65
  C 266.52 156.01 279.88 165.45 281.33 180.07
  C 260.35 172.35 239.99 163.25 219.43 154.47
  Q 185.71 140.07 136.73 123.63
  Q 121.01 108.53 109.75 90.05
  Q 116.62 93.13 123.46 96.06
  Q 138.90 102.65 155.50 103.31
  Z"
/>
<path fill="#36bc4a" d="
  M 133.16 156.13
  Q 124.25 159.13 116.64 164.32
  Q 104.62 157.95 91.36 147.89
  Q 74.02 134.72 61.55 119.58
  Q 71.66 124.23 81.83 128.90
  Q 86.36 130.98 91.13 134.22
  Q 106.72 144.76 123.87 152.57
  Q 128.28 154.58 133.16 156.13
  Z"
/>
<path fill="#71cf2c" d="
  M 281.33 180.07
  C 282.18 186.73 280.71 192.53 279.15 199.44
  A 0.30 0.30 0.0 0 0 279.66 199.72
  Q 290.37 189.05 288.08 174.02
  Q 287.87 172.68 288.78 171.61
  Q 288.18 173.34 288.30 174.58
  A 0.93 0.92 -80.7 0 0 288.82 175.31
  Q 313.01 187.12 338.12 197.55
  Q 333.09 200.35 328.77 204.02
  Q 320.67 210.92 312.61 217.76
  Q 287.39 205.47 262.14 193.72
  Q 237.15 182.10 219.14 175.23
  C 195.82 166.34 177.79 160.08 158.53 148.72
  Q 165.45 150.11 172.31 151.44
  Q 173.04 151.58 173.45 151.37
  A 0.45 0.44 49.2 0 0 173.50 150.61
  C 167.83 146.58 161.16 143.27 155.25 138.99
  Q 145.46 131.90 136.73 123.63
  Q 185.71 140.07 219.43 154.47
  C 239.99 163.25 260.35 172.35 281.33 180.07
  Z"
/>
<path fill="#94dc06" d="
  M 338.12 197.55
  Q 313.01 187.12 288.82 175.31
  A 0.93 0.92 -80.7 0 1 288.30 174.58
  Q 288.18 173.34 288.78 171.61
  Q 293.88 169.36 299.71 168.00
  Q 308.12 166.03 316.77 165.74
  A 0.77 0.77 0.0 0 0 317.36 164.51
  C 311.47 156.69 312.14 147.71 317.63 139.73
  A 0.37 0.37 0.0 0 1 318.31 139.93
  C 318.82 152.67 327.85 159.25 340.04 162.03
  Q 344.42 163.04 355.43 165.83
  Q 364.36 168.09 367.15 176.82
  A 2.60 2.58 -85.5 0 0 368.45 178.35
  C 376.79 182.65 383.59 188.07 381.17 198.67
  A 0.74 0.73 -63.5 0 1 379.98 199.07
  C 374.41 194.32 366.05 192.96 358.86 192.82
  Q 348.04 192.61 338.12 197.55
  Z"
/>
<path fill="#00a35a" d="
  M 133.16 156.13
  Q 145.59 161.52 151.22 162.84
  C 163.23 165.65 173.67 168.80 185.00 171.08
  Q 201.75 174.47 219.69 179.58
  C 228.23 182.02 238.19 186.76 245.89 193.19
  C 256.52 202.07 261.71 213.17 260.82 226.97
  A 0.85 0.83 17.7 0 0 261.24 227.76
  L 277.17 237.03
  Q 260.18 245.14 245.36 256.50
  Q 234.52 256.29 223.93 257.67
  A 1.13 1.11 -77.6 0 0 223.13 258.19
  Q 213.90 273.38 209.85 281.65
  Q 208.98 283.42 205.32 292.19
  C 201.42 301.50 199.62 311.48 197.72 321.29
  Q 197.59 321.99 196.85 323.62
  A 0.52 0.51 37.9 0 1 195.99 323.72
  Q 193.16 320.25 193.63 323.25
  Q 193.54 284.77 214.67 253.45
  C 217.80 248.81 222.10 244.14 225.92 239.41
  A 0.33 0.33 0.0 0 0 225.58 238.88
  Q 204.45 244.25 183.31 239.13
  C 176.26 237.43 169.79 234.30 163.35 230.91
  Q 160.06 229.18 157.18 226.60
  A 0.39 0.38 70.9 0 1 157.50 225.93
  C 175.36 229.17 190.79 226.91 208.20 220.47
  Q 213.67 218.44 218.61 215.18
  A 0.36 0.35 -65.6 0 0 218.37 214.53
  C 207.72 216.08 197.14 217.59 186.50 216.96
  Q 171.08 216.05 160.68 213.58
  Q 125.62 205.26 101.11 179.14
  Q 100.81 178.83 100.81 178.59
  A 0.33 0.33 0.0 0 1 101.28 178.29
  Q 116.59 185.82 134.19 189.65
  C 152.52 193.64 173.75 193.36 192.25 190.73
  Q 196.84 190.08 200.62 188.99
  A 0.41 0.41 0.0 0 0 200.64 188.20
  L 199.82 187.93
  A 0.36 0.18 36.9 0 0 199.71 187.91
  Q 155.79 184.38 116.64 164.32
  Q 124.25 159.13 133.16 156.13
  Z"
/>
<path fill="#029a5d" d="
  M 233.20 351.52
  Q 224.58 337.33 217.31 322.20
  C 228.09 284.33 257.93 255.70 295.28 243.85
  A 0.27 0.26 70.5 0 1 295.61 244.01
  A 0.26 0.26 0.0 0 1 295.48 244.35
  Q 252.77 265.21 237.82 308.08
  Q 230.91 327.87 233.20 351.52
  Z"
/>
<path fill="#017862" d="
  M 245.36 256.50
  Q 237.79 262.98 234.76 266.02
  Q 216.03 284.83 207.56 309.32
  C 202.42 324.16 199.14 340.97 199.03 357.30
  A 0.32 0.32 0.0 0 1 198.40 357.37
  Q 194.28 340.53 193.63 323.25
  Q 193.16 320.25 195.99 323.72
  A 0.52 0.51 37.9 0 0 196.85 323.62
  Q 197.59 321.99 197.72 321.29
  C 199.62 311.48 201.42 301.50 205.32 292.19
  Q 208.98 283.42 209.85 281.65
  Q 213.90 273.38 223.13 258.19
  A 1.13 1.11 -77.6 0 1 223.93 257.67
  Q 234.52 256.29 245.36 256.50
  Z"
/>
<path fill="#4cbf46" d="
  M 435.67 344.56
  C 432.44 346.14 431.82 349.86 431.52 353.39
  C 430.89 360.73 428.50 367.41 427.33 374.48
  C 426.86 377.30 426.05 380.29 425.25 382.25
  Q 421.74 390.78 420.42 395.38
  A 4.33 4.02 71.2 0 1 419.97 396.39
  L 412.74 407.75
  A 1.31 1.29 -83.4 0 1 412.08 408.28
  Q 403.99 411.26 395.51 412.61
  Q 419.02 388.47 424.79 355.20
  Q 425.63 350.31 425.69 347.72
  C 425.75 344.36 426.25 340.93 426.19 337.66
  Q 425.75 315.49 416.87 295.13
  Q 415.54 292.09 413.55 289.18
  A 0.16 0.15 3.5 0 1 413.78 288.98
  Q 414.40 289.50 415.27 290.71
  Q 432.59 314.78 435.67 344.56
  Z"
/>
<path fill="#017862" d="
  M 233.20 351.52
  Q 238.62 397.24 274.05 423.62
  Q 282.38 429.82 291.13 433.81
  C 304.48 439.89 318.15 442.11 333.20 441.52
  Q 344.88 447.13 357.30 450.98
  A 1.71 1.65 43.0 0 0 358.40 450.96
  C 372.38 445.84 384.46 438.56 395.64 429.10
  A 4.11 3.98 11.0 0 1 396.47 428.56
  Q 406.63 423.48 417.62 420.15
  Q 405.90 437.60 387.87 450.61
  C 352.53 476.11 304.75 477.69 267.81 454.94
  C 244.14 440.36 226.05 417.31 217.69 390.65
  Q 208.51 361.38 215.36 329.60
  Q 216.33 325.08 217.31 322.20
  Q 224.58 337.33 233.20 351.52
  Z"
/>
<path fill="#00a35a" d="
  M 435.67 344.56
  Q 440.11 385.67 417.62 420.15
  Q 406.63 423.48 396.47 428.56
  A 4.11 3.98 11.0 0 0 395.64 429.10
  C 384.46 438.56 372.38 445.84 358.40 450.96
  A 1.71 1.65 43.0 0 1 357.30 450.98
  Q 344.88 447.13 333.20 441.52
  C 356.75 440.31 379.07 429.33 395.51 412.61
  Q 403.99 411.26 412.08 408.28
  A 1.31 1.29 -83.4 0 0 412.74 407.75
  L 419.97 396.39
  A 4.33 4.02 71.2 0 0 420.42 395.38
  Q 421.74 390.78 425.25 382.25
  C 426.05 380.29 426.86 377.30 427.33 374.48
  C 428.50 367.41 430.89 360.73 431.52 353.39
  C 431.82 349.86 432.44 346.14 435.67 344.56
  Z"
/>
</svg>
