<?xml version="1.0" encoding="UTF-8"?>
<svg id="Camada_1" xmlns="http://www.w3.org/2000/svg" version="1.1" viewBox="0 0 500 500">
  <!-- Generator: Adobe Illustrator 29.8.5, SVG Export Plug-In . SVG Version: 2.1.1 Build 2)  -->
  <defs>
    <style>
      .st0 {
        stroke: #a6dfa3;
      }

      .st0, .st1, .st2, .st3, .st4, .st5, .st6, .st7, .st8, .st9, .st10, .st11, .st12, .st13, .st14, .st15, .st16, .st17, .st18, .st19 {
        fill: none;
        stroke-width: 2px;
      }

      .st20 {
        fill: #94dc06;
      }

      .st1 {
        stroke: #ade39d;
      }

      .st2 {
        stroke: #26b150;
      }

      .st21 {
        fill: #017862;
      }

      .st3 {
        stroke: #81cdae;
      }

      .st4 {
        stroke: #c2eb8d;
      }

      .st5 {
        stroke: #80d1ad;
      }

      .st6 {
        stroke: #66cb34;
      }

      .st7 {
        stroke: #8dda0f;
      }

      .st8 {
        stroke: #b8e796;
      }

      .st22 {
        fill: #85d61b;
      }

      .st9 {
        stroke: #1bb052;
      }

      .st23 {
        fill: #36bc4a;
      }

      .st24 {
        fill: #5ac73b;
      }

      .st10 {
        stroke: #018e5e;
      }

      .st11 {
        stroke: #9bdea5;
      }

      .st12 {
        stroke: #028960;
      }

      .st13 {
        stroke: #83d619;
      }

      .st25 {
        fill: #029a5d;
      }

      .st26 {
        fill: #4cbf46;
      }

      .st27 {
        fill: #71cf2c;
      }

      .st28 {
        fill: #95dd02;
      }

      .st14 {
        stroke: #7bd324;
      }

      .st15 {
        stroke: #80bcb1;
      }

      .st29 {
        fill: #00a35a;
      }

      .st16 {
        stroke: #48c243;
      }

      .st17 {
        stroke: #caee83;
      }

      .st18 {
        stroke: #caee81;
      }

      .st19 {
        stroke: #2db54b;
      }

      .st30 {
        fill: #111e2c;
      }
    </style>
  </defs>
  <g>
    <path class="st4" d="M109.75,90.05c7.51,12.32,16.5,23.51,26.98,33.58" vector-effect="non-scaling-stroke"/>
    <path class="st8" d="M136.73,123.63c5.82,5.51,11.99,10.63,18.52,15.36,5.91,4.28,12.58,7.59,18.25,11.62.2.15.25.42.11.62-.04.06-.1.11-.16.14-.27.14-.65.16-1.14.07-4.57-.89-9.17-1.79-13.78-2.72" vector-effect="non-scaling-stroke"/>
    <path class="st1" d="M158.53,148.72c-9.64-2.25-20.18-5.31-31.62-9.18-33.7-11.41-62.69-30.15-86.98-56.21-.13-.14-.34-.15-.48-.02-.11.1-.14.26-.08.39,5.49,13,12.88,24.96,22.18,35.88" vector-effect="non-scaling-stroke"/>
    <path class="st11" d="M61.55,119.58c8.31,10.09,18.25,19.53,29.81,28.31,8.84,6.71,17.27,12.18,25.28,16.43" vector-effect="non-scaling-stroke"/>
    <path class="st5" d="M116.64,164.32c26.1,13.37,53.79,21.24,83.07,23.59.03,0,.07,0,.11.02l.82.27c.22.07.34.29.27.51-.04.14-.15.24-.29.28-2.52.73-5.31,1.31-8.37,1.74-18.5,2.63-39.73,2.91-58.06-1.08-11.73-2.55-22.7-6.34-32.91-11.36-.17-.08-.36,0-.44.16-.02.04-.03.09-.03.14,0,.16.1.34.3.55,16.34,17.41,36.2,28.89,59.57,34.44,6.93,1.65,15.54,2.77,25.82,3.38,10.64.63,21.22-.88,31.87-2.43.19-.03.37.1.4.3.02.14-.04.27-.16.35-3.29,2.17-6.76,3.94-10.41,5.29-17.41,6.44-32.84,8.7-50.7,5.46-.21-.04-.41.09-.44.3-.02.13.02.27.12.37,1.92,1.72,3.98,3.16,6.17,4.31,6.44,3.39,12.91,6.52,19.96,8.22,14.09,3.41,28.18,3.33,42.27-.25.18-.05.36.06.41.23.03.1,0,.22-.07.3-3.82,4.73-8.12,9.4-11.25,14.04-14.09,20.88-21.1,44.15-21.04,69.8" vector-effect="non-scaling-stroke"/>
    <path class="st15" d="M193.63,323.25c.43,11.52,2.02,22.89,4.77,34.12.04.17.22.27.39.23.14-.04.24-.16.24-.3.11-16.33,3.39-33.14,8.53-47.98,5.65-16.33,14.71-30.76,27.2-43.3,2.02-2.03,5.55-5.2,10.6-9.52" vector-effect="non-scaling-stroke"/>
    <path class="st5" d="M245.36,256.5c9.88-7.57,20.48-14.06,31.81-19.47" vector-effect="non-scaling-stroke"/>
    <path class="st1" d="M277.17,237.03c12.94-5.64,24.44-10.95,35.44-19.27" vector-effect="non-scaling-stroke"/>
    <path class="st8" d="M312.61,217.76c5.37-4.56,10.76-9.14,16.16-13.74,2.88-2.45,6-4.6,9.35-6.47" vector-effect="non-scaling-stroke"/>
    <path class="st17" d="M338.12,197.55c6.61-3.29,13.53-4.87,20.74-4.73,7.19.14,15.55,1.5,21.12,6.25.31.26.77.22,1.03-.09.08-.09.13-.2.16-.31,2.42-10.6-4.38-16.02-12.72-20.32-.62-.31-1.09-.86-1.3-1.53-1.86-5.82-5.77-9.48-11.72-10.99-7.34-1.86-12.47-3.13-15.39-3.8-12.19-2.78-21.22-9.36-21.73-22.1,0-.2-.17-.37-.37-.37-.12,0-.24.06-.31.17-5.49,7.98-6.16,16.96-.27,24.78.25.34.18.82-.16,1.08-.13.09-.28.15-.43.15-5.77.19-11.45.95-17.06,2.26-3.89.91-7.53,2.11-10.93,3.61" vector-effect="non-scaling-stroke"/>
    <path class="st8" d="M288.78,171.61c-.61.71-.84,1.52-.7,2.41,1.53,10.02-1.28,18.59-8.42,25.7-.11.12-.3.13-.42.02-.08-.08-.11-.19-.09-.3,1.56-6.91,3.03-12.71,2.18-19.37" vector-effect="non-scaling-stroke"/>
    <path class="st4" d="M281.33,180.07c-1.45-14.62-14.81-24.06-26.73-29.42-4.87-2.19-11.78-5.06-17.17-7.07-27.99-10.42-56.8-23.3-81.93-40.27" vector-effect="non-scaling-stroke"/>
    <path class="st18" d="M155.5,103.31c-11.13-7.93-21.5-16.75-31.11-26.45-13.63-13.77-25.08-29.29-34.34-46.54-.06-.13-.22-.18-.35-.11-.1.05-.15.16-.14.26,2.51,21.24,9.24,41.1,20.19,59.58" vector-effect="non-scaling-stroke"/>
    <path class="st7" d="M155.5,103.31c-11.07-.44-21.75-2.86-32.04-7.25-4.56-1.95-9.13-3.96-13.71-6.01" vector-effect="non-scaling-stroke"/>
    <path class="st14" d="M281.33,180.07c-20.98-7.72-41.34-16.82-61.9-25.6-22.48-9.6-50.05-19.88-82.7-30.84" vector-effect="non-scaling-stroke"/>
    <path class="st13" d="M288.78,171.61c-.4,1.15-.56,2.14-.48,2.97.04.32.23.59.52.73,16.13,7.87,32.56,15.29,49.3,22.24" vector-effect="non-scaling-stroke"/>
    <path class="st6" d="M158.53,148.72c19.26,11.36,37.29,17.62,60.61,26.51,12.01,4.58,26.34,10.74,43,18.49,16.83,7.83,33.66,15.85,50.47,24.04" vector-effect="non-scaling-stroke"/>
    <path class="st19" d="M277.17,237.03l-15.93-9.27c-.28-.16-.45-.47-.42-.79.89-13.8-4.3-24.9-14.93-33.78-7.7-6.43-17.66-11.17-26.2-13.61-11.96-3.41-23.52-6.24-34.69-8.5-11.33-2.28-21.77-5.43-33.78-8.24-3.75-.88-9.77-3.12-18.06-6.71" vector-effect="non-scaling-stroke"/>
    <path class="st16" d="M133.16,156.13c-3.25-1.03-6.35-2.22-9.29-3.56-11.43-5.21-22.35-11.32-32.74-18.35-3.18-2.16-6.28-3.93-9.3-5.32-6.78-3.11-13.54-6.22-20.28-9.32" vector-effect="non-scaling-stroke"/>
    <path class="st10" d="M245.36,256.5c-7.23-.14-14.37.25-21.43,1.17-.33.04-.62.23-.8.52-6.15,10.13-10.58,17.95-13.28,23.46-.58,1.18-2.09,4.69-4.53,10.54-3.9,9.31-5.7,19.29-7.6,29.1-.09.47-.38,1.24-.87,2.33-.12.25-.43.36-.69.23-.07-.03-.13-.08-.17-.13-1.89-2.31-2.67-2.47-2.36-.47" vector-effect="non-scaling-stroke"/>
    <path class="st9" d="M133.16,156.13c-5.94,2-11.45,4.73-16.52,8.19" vector-effect="non-scaling-stroke"/>
    <path class="st15" d="M217.31,322.2c-.65,1.92-1.3,4.39-1.95,7.4-4.57,21.19-3.79,41.54,2.33,61.05,8.36,26.66,26.45,49.71,50.12,64.29,36.94,22.75,84.72,21.17,120.06-4.33,12.02-8.67,21.94-18.83,29.75-30.46" vector-effect="non-scaling-stroke"/>
    <path class="st5" d="M417.62,420.15c14.99-22.99,21.01-48.18,18.05-75.59" vector-effect="non-scaling-stroke"/>
    <path class="st0" d="M435.67,344.56c-2.05-19.85-8.85-37.8-20.4-53.85-.58-.81-1.08-1.38-1.49-1.73-.07-.05-.17-.04-.22.03-.04.05-.04.12,0,.17,1.33,1.94,2.43,3.92,3.32,5.95,5.92,13.57,9.03,27.75,9.32,42.53.06,3.27-.44,6.7-.5,10.06-.04,1.73-.34,4.22-.9,7.48-3.85,22.18-13.61,41.32-29.28,57.41" vector-effect="non-scaling-stroke"/>
    <path class="st5" d="M395.51,412.61c-16.44,16.72-38.76,27.7-62.31,28.91" vector-effect="non-scaling-stroke"/>
    <path class="st15" d="M333.2,441.52c-15.05.59-28.72-1.63-42.07-7.71-5.83-2.66-11.53-6.06-17.08-10.19-23.62-17.59-37.24-41.62-40.85-72.1" vector-effect="non-scaling-stroke"/>
    <path class="st3" d="M233.2,351.52c-1.53-15.77.01-30.25,4.62-43.44,9.97-28.58,29.19-49.82,57.66-63.73.13-.06.19-.21.13-.34-.05-.13-.2-.21-.33-.16-37.35,11.85-67.19,40.48-77.97,78.35" vector-effect="non-scaling-stroke"/>
    <path class="st12" d="M233.2,351.52c-5.75-9.46-11.04-19.23-15.89-29.32" vector-effect="non-scaling-stroke"/>
    <path class="st10" d="M333.2,441.52c7.79,3.74,15.82,6.89,24.1,9.46.36.12.75.11,1.1-.02,13.98-5.12,26.06-12.4,37.24-21.86.25-.21.53-.39.83-.54,6.77-3.39,13.82-6.19,21.15-8.41" vector-effect="non-scaling-stroke"/>
    <path class="st2" d="M435.67,344.56c-3.23,1.58-3.85,5.3-4.15,8.83-.63,7.34-3.02,14.02-4.19,21.09-.47,2.82-1.28,5.81-2.08,7.77-2.34,5.69-3.95,10.06-4.83,13.13-.11.36-.26.7-.45,1.01l-7.23,11.36c-.16.25-.39.43-.66.53-5.39,1.99-10.92,3.43-16.57,4.33" vector-effect="non-scaling-stroke"/>
  </g>
  <path class="st30" d="M500,0v500H0V0h500ZM109.75,90.05c7.51,12.32,16.5,23.51,26.98,33.58,5.82,5.51,11.99,10.63,18.52,15.36,5.91,4.28,12.58,7.59,18.25,11.62.2.15.25.42.11.62-.04.06-.1.11-.16.14-.27.14-.65.16-1.14.07-4.57-.89-9.17-1.79-13.78-2.72-9.64-2.25-20.18-5.31-31.62-9.18-33.7-11.41-62.69-30.15-86.98-56.21-.13-.14-.34-.15-.48-.02-.11.1-.14.26-.08.39,5.49,13,12.88,24.96,22.18,35.88,8.31,10.09,18.25,19.53,29.81,28.31,8.84,6.71,17.27,12.18,25.28,16.43,26.1,13.37,53.79,21.24,83.07,23.59.03,0,.07,0,.11.02l.82.27c.22.07.34.29.27.51-.04.14-.15.24-.29.28-2.52.73-5.31,1.31-8.37,1.74-18.5,2.63-39.73,2.91-58.06-1.08-11.73-2.55-22.7-6.34-32.91-11.36-.17-.08-.36,0-.44.16-.02.04-.03.09-.03.14,0,.16.1.34.3.55,16.34,17.41,36.2,28.89,59.57,34.44,6.93,1.65,15.54,2.77,25.82,3.38,10.64.63,21.22-.88,31.87-2.43.19-.03.37.1.4.3.02.14-.04.27-.16.35-3.29,2.17-6.76,3.94-10.41,5.29-17.41,6.44-32.84,8.7-50.7,5.46-.21-.04-.41.09-.44.3-.02.13.02.27.12.37,1.92,1.72,3.98,3.16,6.17,4.31,6.44,3.39,12.91,6.52,19.96,8.22,14.09,3.41,28.18,3.33,42.27-.25.18-.05.36.06.41.23.03.1,0,.22-.07.3-3.82,4.73-8.12,9.4-11.25,14.04-14.09,20.88-21.1,44.15-21.04,69.8.43,11.52,2.02,22.89,4.77,34.12.04.17.22.27.39.23.14-.04.24-.16.24-.3.11-16.33,3.39-33.14,8.53-47.98,5.65-16.33,14.71-30.76,27.2-43.3,2.02-2.03,5.55-5.2,10.6-9.52,9.88-7.57,20.48-14.06,31.81-19.47,12.94-5.64,24.44-10.95,35.44-19.27,5.37-4.56,10.76-9.14,16.16-13.74,2.88-2.45,6-4.6,9.35-6.47,6.61-3.29,13.53-4.87,20.74-4.73,7.19.14,15.55,1.5,21.12,6.25.31.26.77.22,1.03-.09.08-.09.13-.2.16-.31,2.42-10.6-4.38-16.02-12.72-20.32-.62-.31-1.09-.86-1.3-1.53-1.86-5.82-5.77-9.48-11.72-10.99-7.34-1.86-12.47-3.13-15.39-3.8-12.19-2.78-21.22-9.36-21.73-22.1,0-.2-.17-.37-.37-.37-.12,0-.24.06-.31.17-5.49,7.98-6.16,16.96-.27,24.78.25.34.18.82-.16,1.08-.13.09-.28.15-.43.15-5.77.19-11.45.95-17.06,2.26-3.89.91-7.53,2.11-10.93,3.61-.61.71-.84,1.52-.7,2.41,1.53,10.02-1.28,18.59-8.42,25.7-.11.12-.3.13-.42.02-.08-.08-.11-.19-.09-.3,1.56-6.91,3.03-12.71,2.18-19.37-1.45-14.62-14.81-24.06-26.73-29.42-4.87-2.19-11.78-5.06-17.17-7.07-27.99-10.42-56.8-23.3-81.93-40.27-11.13-7.93-21.5-16.75-31.11-26.45-13.63-13.77-25.08-29.29-34.34-46.54-.06-.13-.22-.18-.35-.11-.1.05-.15.16-.14.26,2.51,21.24,9.24,41.1,20.19,59.58ZM217.31,322.2c-.65,1.92-1.3,4.39-1.95,7.4-4.57,21.19-3.79,41.54,2.33,61.05,8.36,26.66,26.45,49.71,50.12,64.29,36.94,22.75,84.72,21.17,120.06-4.33,12.02-8.67,21.94-18.83,29.75-30.46,14.99-22.99,21.01-48.18,18.05-75.59-2.05-19.85-8.85-37.8-20.4-53.85-.58-.81-1.08-1.38-1.49-1.73-.07-.05-.17-.04-.22.03-.04.05-.04.12,0,.17,1.33,1.94,2.43,3.92,3.32,5.95,5.92,13.57,9.03,27.75,9.32,42.53.06,3.27-.44,6.7-.5,10.06-.04,1.73-.34,4.22-.9,7.48-3.85,22.18-13.61,41.32-29.28,57.41-16.44,16.72-38.76,27.7-62.31,28.91-15.05.59-28.72-1.63-42.07-7.71-5.83-2.66-11.53-6.06-17.08-10.19-23.62-17.59-37.24-41.62-40.85-72.1-1.53-15.77.01-30.25,4.62-43.44,9.97-28.58,29.19-49.82,57.66-63.73.13-.06.19-.21.13-.34-.05-.13-.2-.21-.33-.16-37.35,11.85-67.19,40.48-77.97,78.35Z"/>
  <path class="st28" d="M155.5,103.31c-11.07-.44-21.75-2.86-32.04-7.25-4.56-1.95-9.13-3.96-13.71-6.01-10.95-18.48-17.68-38.34-20.19-59.58-.02-.14.08-.27.23-.29.11-.01.22.04.26.14,9.26,17.25,20.71,32.77,34.34,46.54,9.61,9.7,19.98,18.52,31.11,26.45Z"/>
  <path class="st24" d="M158.53,148.72c19.26,11.36,37.29,17.62,60.61,26.51,12.01,4.58,26.34,10.74,43,18.49,16.83,7.83,33.66,15.85,50.47,24.04-11,8.32-22.5,13.63-35.44,19.27l-15.93-9.27c-.28-.16-.45-.47-.42-.79.89-13.8-4.3-24.9-14.93-33.78-7.7-6.43-17.66-11.17-26.2-13.61-11.96-3.41-23.52-6.24-34.69-8.5-11.33-2.28-21.77-5.43-33.78-8.24-3.75-.88-9.77-3.12-18.06-6.71-3.25-1.03-6.35-2.22-9.29-3.56-11.43-5.21-22.35-11.32-32.74-18.35-3.18-2.16-6.28-3.93-9.3-5.32-6.78-3.11-13.54-6.22-20.28-9.32-9.3-10.92-16.69-22.88-22.18-35.88-.08-.17,0-.37.17-.45.13-.06.29-.03.39.08,24.29,26.06,53.28,44.8,86.98,56.21,11.44,3.87,21.98,6.93,31.62,9.18Z"/>
  <path class="st22" d="M155.5,103.31c25.13,16.97,53.94,29.85,81.93,40.27,5.39,2.01,12.3,4.88,17.17,7.07,11.92,5.36,25.28,14.8,26.73,29.42-20.98-7.72-41.34-16.82-61.9-25.6-22.48-9.6-50.05-19.88-82.7-30.84-10.48-10.07-19.47-21.26-26.98-33.58,4.58,2.05,9.15,4.06,13.71,6.01,10.29,4.39,20.97,6.81,32.04,7.25Z"/>
  <path class="st23" d="M133.16,156.13c-5.94,2-11.45,4.73-16.52,8.19-8.01-4.25-16.44-9.72-25.28-16.43-11.56-8.78-21.5-18.22-29.81-28.31,6.74,3.1,13.5,6.21,20.28,9.32,3.02,1.39,6.12,3.16,9.3,5.32,10.39,7.03,21.31,13.14,32.74,18.35,2.94,1.34,6.04,2.53,9.29,3.56Z"/>
  <path class="st27" d="M281.33,180.07c.85,6.66-.62,12.46-2.18,19.37-.04.16.05.32.21.37.11.03.22,0,.3-.09,7.14-7.11,9.95-15.68,8.42-25.7-.14-.89.09-1.7.7-2.41-.4,1.15-.56,2.14-.48,2.97.04.32.23.59.52.73,16.13,7.87,32.56,15.29,49.3,22.24-3.35,1.87-6.47,4.02-9.35,6.47-5.4,4.6-10.79,9.18-16.16,13.74-16.81-8.19-33.64-16.21-50.47-24.04-16.66-7.75-30.99-13.91-43-18.49-23.32-8.89-41.35-15.15-60.61-26.51,4.61.93,9.21,1.83,13.78,2.72.49.09.87.07,1.14-.07.22-.11.3-.38.19-.6-.03-.06-.08-.12-.14-.16-5.67-4.03-12.34-7.34-18.25-11.62-6.53-4.73-12.7-9.85-18.52-15.36,32.65,10.96,60.22,21.24,82.7,30.84,20.56,8.78,40.92,17.88,61.9,25.6Z"/>
  <path class="st20" d="M338.12,197.55c-16.74-6.95-33.17-14.37-49.3-22.24-.29-.14-.48-.41-.52-.73-.08-.83.08-1.82.48-2.97,3.4-1.5,7.04-2.7,10.93-3.61,5.61-1.31,11.29-2.07,17.06-2.26.42-.01.76-.37.74-.8,0-.16-.06-.31-.15-.43-5.89-7.82-5.22-16.8.27-24.78.11-.17.34-.22.51-.11.1.07.17.18.17.31.51,12.74,9.54,19.32,21.73,22.1,2.92.67,8.05,1.94,15.39,3.8,5.95,1.51,9.86,5.17,11.72,10.99.21.67.68,1.22,1.3,1.53,8.34,4.3,15.14,9.72,12.72,20.32-.09.4-.49.65-.88.56-.11-.03-.22-.08-.31-.16-5.57-4.75-13.93-6.11-21.12-6.25-7.21-.14-14.13,1.44-20.74,4.73Z"/>
  <path class="st29" d="M133.16,156.13c8.29,3.59,14.31,5.83,18.06,6.71,12.01,2.81,22.45,5.96,33.78,8.24,11.17,2.26,22.73,5.09,34.69,8.5,8.54,2.44,18.5,7.18,26.2,13.61,10.63,8.88,15.82,19.98,14.93,33.78-.03.32.14.63.42.79l15.93,9.27c-11.33,5.41-21.93,11.9-31.81,19.47-7.23-.14-14.37.25-21.43,1.17-.33.04-.62.23-.8.52-6.15,10.13-10.58,17.95-13.28,23.46-.58,1.18-2.09,4.69-4.53,10.54-3.9,9.31-5.7,19.29-7.6,29.1-.09.47-.38,1.24-.87,2.33-.12.25-.43.36-.69.23-.07-.03-.13-.08-.17-.13-1.89-2.31-2.67-2.47-2.36-.47-.06-25.65,6.95-48.92,21.04-69.8,3.13-4.64,7.43-9.31,11.25-14.04.12-.14.1-.35-.04-.46-.08-.07-.19-.09-.3-.07-14.09,3.58-28.18,3.66-42.27.25-7.05-1.7-13.52-4.83-19.96-8.22-2.19-1.15-4.25-2.59-6.17-4.31-.16-.14-.17-.39-.04-.55.09-.1.22-.15.36-.12,17.86,3.24,33.29.98,50.7-5.46,3.65-1.35,7.12-3.12,10.41-5.29.16-.11.21-.33.1-.5-.07-.11-.21-.17-.34-.15-10.65,1.55-21.23,3.06-31.87,2.43-10.28-.61-18.89-1.73-25.82-3.38-23.37-5.55-43.23-17.03-59.57-34.44-.2-.21-.3-.39-.3-.55,0-.18.15-.33.33-.33.05,0,.1.01.14.03,10.21,5.02,21.18,8.81,32.91,11.36,18.33,3.99,39.56,3.71,58.06,1.08,3.06-.43,5.85-1.01,8.37-1.74.22-.05.35-.28.3-.5-.03-.14-.14-.25-.28-.29l-.82-.27s-.08-.02-.11-.02c-29.28-2.35-56.97-10.22-83.07-23.59,5.07-3.46,10.58-6.19,16.52-8.19Z"/>
  <path class="st25" d="M233.2,351.52c-5.75-9.46-11.04-19.23-15.89-29.32,10.78-37.87,40.62-66.5,77.97-78.35.13-.05.28.03.33.16.06.13,0,.28-.13.34-28.47,13.91-47.69,35.15-57.66,63.73-4.61,13.19-6.15,27.67-4.62,43.44Z"/>
  <path class="st21" d="M245.36,256.5c-5.05,4.32-8.58,7.49-10.6,9.52-12.49,12.54-21.55,26.97-27.2,43.3-5.14,14.84-8.42,31.65-8.53,47.98,0,.18-.15.32-.33.31-.14,0-.27-.1-.3-.24-2.75-11.23-4.34-22.6-4.77-34.12-.31-2,.47-1.84,2.36.47.19.22.51.25.73.07.06-.05.1-.1.13-.17.49-1.09.78-1.86.87-2.33,1.9-9.81,3.7-19.79,7.6-29.1,2.44-5.85,3.95-9.36,4.53-10.54,2.7-5.51,7.13-13.33,13.28-23.46.18-.29.47-.48.8-.52,7.06-.92,14.2-1.31,21.43-1.17Z"/>
  <path class="st26" d="M435.67,344.56c-3.23,1.58-3.85,5.3-4.15,8.83-.63,7.34-3.02,14.02-4.19,21.09-.47,2.82-1.28,5.81-2.08,7.77-2.34,5.69-3.95,10.06-4.83,13.13-.11.36-.26.7-.45,1.01l-7.23,11.36c-.16.25-.39.43-.66.53-5.39,1.99-10.92,3.43-16.57,4.33,15.67-16.09,25.43-35.23,29.28-57.41.56-3.26.86-5.75.9-7.48.06-3.36.56-6.79.5-10.06-.29-14.78-3.4-28.96-9.32-42.53-.89-2.03-1.99-4.01-3.32-5.95-.05-.07-.03-.16.05-.21.06-.03.13-.03.18,0,.41.35.91.92,1.49,1.73,11.55,16.05,18.35,34,20.4,53.85Z"/>
  <path class="st21" d="M233.2,351.52c3.61,30.48,17.23,54.51,40.85,72.1,5.55,4.13,11.25,7.53,17.08,10.19,13.35,6.08,27.02,8.3,42.07,7.71,7.79,3.74,15.82,6.89,24.1,9.46.36.12.75.11,1.1-.02,13.98-5.12,26.06-12.4,37.24-21.86.25-.21.53-.39.83-.54,6.77-3.39,13.82-6.19,21.15-8.41-7.81,11.63-17.73,21.79-29.75,30.46-35.34,25.5-83.12,27.08-120.06,4.33-23.67-14.58-41.76-37.63-50.12-64.29-6.12-19.51-6.9-39.86-2.33-61.05.65-3.01,1.3-5.48,1.95-7.4,4.85,10.09,10.14,19.86,15.89,29.32Z"/>
  <path class="st29" d="M435.67,344.56c2.96,27.41-3.06,52.6-18.05,75.59-7.33,2.22-14.38,5.02-21.15,8.41-.3.15-.58.33-.83.54-11.18,9.46-23.26,16.74-37.24,21.86-.35.13-.74.14-1.1.02-8.28-2.57-16.31-5.72-24.1-9.46,23.55-1.21,45.87-12.19,62.31-28.91,5.65-.9,11.18-2.34,16.57-4.33.27-.1.5-.28.66-.53l7.23-11.36c.19-.31.34-.65.45-1.01.88-3.07,2.49-7.44,4.83-13.13.8-1.96,1.61-4.95,2.08-7.77,1.17-7.07,3.56-13.75,4.19-21.09.3-3.53.92-7.25,4.15-8.83Z"/>
</svg>