<svg version="1.1" id="Layer_1" xmlns="http://www.w3.org/2000/svg" xmlns:xlink="http://www.w3.org/1999/xlink" x="0px" y="0px"
	 width="100%" viewBox="0 0 1024 336" enable-background="new 0 0 1024 336" xml:space="preserve">
<path fill="white" opacity="1.000000" stroke="none" 
	d="
M596.939026,276.304749 
	C591.780640,276.300568 587.114258,276.319214 582.448242,276.286926 
	C576.330383,276.244629 576.090332,276.004791 576.087036,269.694672 
	C576.074768,246.530228 576.100830,223.365738 576.069519,200.201340 
	C576.058167,191.774597 575.316467,183.402451 569.911926,176.473389 
	C555.159485,157.559570 524.712036,160.635773 512.562439,182.235489 
	C508.235657,189.927719 506.552246,198.214523 506.700409,207.144012 
	C507.043182,227.803040 506.813782,248.471115 506.913055,269.135071 
	C506.931641,272.998840 505.362762,274.418701 501.503143,274.290131 
	C494.677795,274.062744 487.837006,274.099213 481.008148,274.258484 
	C477.424408,274.342041 475.875824,273.064911 475.882477,269.357605 
	C475.958710,226.861450 475.969513,184.365143 475.935822,141.868927 
	C475.933044,138.353516 477.366333,137.342438 480.806732,137.446014 
	C487.794373,137.656372 494.803040,137.568802 501.788910,137.271835 
	C505.464600,137.115570 506.919189,138.127823 506.661499,142.038422 
	C506.304962,147.449692 505.981934,152.923584 506.881836,158.176270 
	C508.369995,158.584351 508.879242,157.799393 509.312042,157.177734 
	C519.857422,142.030762 535.389709,137.260086 552.709717,136.715256 
	C585.855103,135.672638 604.385620,152.271194 607.608521,186.611069 
	C607.730408,165.582382 613.858398,147.795822 627.658752,131.271378 
	C618.969849,131.849854 611.882263,132.770172 604.938416,130.992065 
	C598.029602,129.222931 591.245789,127.184120 585.745789,121.508621 
	C596.644531,121.932106 607.358948,122.032967 617.345276,116.557938 
	C592.081787,117.898407 569.374878,112.486870 551.620117,93.171074 
	C560.400879,94.418060 568.510437,98.361465 577.409363,98.850975 
	C586.124939,99.330414 594.842041,100.259293 603.646667,97.892212 
	C564.964722,90.575302 532.740479,73.954453 514.366638,36.812965 
	C535.675415,54.831295 559.639343,66.856697 587.738525,70.623138 
	C565.627075,53.957718 548.978699,34.096664 545.499695,5.553345 
	C548.048706,5.004918 548.674133,6.463720 549.326599,7.467739 
	C568.314270,36.686188 596.337219,53.423409 628.245239,64.912956 
	C636.226257,67.786812 644.132629,70.936958 651.855469,74.440361 
	C660.275452,78.259956 666.660034,84.056328 667.667908,94.039413 
	C667.725586,94.610909 668.218506,95.138496 668.563232,95.789230 
	C670.795959,94.380096 670.893188,92.288177 670.659424,90.371826 
	C670.162292,86.296631 672.387390,84.576912 675.837036,83.751289 
	C678.588989,83.092636 681.341431,82.385338 684.133179,81.957825 
	C687.127808,81.499275 688.132202,80.019447 687.387024,77.116806 
	C686.363037,73.127655 687.319397,69.644676 690.084167,66.557823 
	C690.775330,66.862213 691.487244,66.948227 691.608704,67.262474 
	C694.835144,75.608528 701.437622,79.160576 709.838135,79.798248 
	C720.132568,80.579697 725.330627,88.646271 731.789307,94.850334 
	C733.617249,96.606277 734.266785,99.531784 732.693604,101.804520 
	C731.067383,104.153824 728.717407,102.420341 726.767517,101.797035 
	C716.028442,98.364067 705.910461,99.746208 697.987854,107.759666 
	C686.624390,119.253448 672.095215,125.057220 658.134338,132.045395 
	C639.541748,141.352036 625.833496,155.266129 618.213257,174.875259 
	C615.348083,182.248108 614.084900,189.936859 612.993713,197.695663 
	C612.637817,200.226120 612.885681,202.945724 611.055481,205.677505 
	C607.719482,201.930145 609.049988,197.249359 607.308105,193.359406 
	C607.308105,217.844879 607.305725,242.175491 607.309265,266.506104 
	C607.310669,276.362335 607.316467,276.362335 596.939026,276.304749 
z"/>
<path fill="white" opacity="1.000000" stroke="none" 
	d="
M151.124298,274.201477 
	C142.943054,274.131927 142.939407,274.131927 142.939972,266.380829 
	C142.943909,211.548340 142.944794,156.715851 142.960159,101.883354 
	C142.962189,94.651451 142.997650,94.628365 150.069321,94.628983 
	C174.235565,94.631104 198.404358,94.446922 222.567047,94.746330 
	C235.494461,94.906517 248.052490,97.411674 259.617645,103.626053 
	C281.812256,115.551994 289.556702,135.308273 288.798798,159.105423 
	C288.268219,175.765549 283.039948,190.829132 270.300476,202.501816 
	C265.120117,207.248367 258.974274,210.546097 252.227692,214.141449 
	C265.448364,233.871613 278.377533,253.166733 291.120392,272.183807 
	C289.929871,274.544525 288.261719,274.149750 286.851776,274.158081 
	C278.185577,274.209442 269.517426,274.094055 260.853180,274.234711 
	C257.760620,274.284912 256.036102,272.940369 254.518982,270.386169 
	C245.414215,255.057770 236.054382,239.879593 227.069870,224.481934 
	C224.832932,220.648270 222.220673,219.237137 217.855438,219.321167 
	C205.026978,219.568100 192.189407,219.524994 179.358566,219.355499 
	C175.418381,219.303452 174.194534,220.678131 174.247955,224.594910 
	C174.445709,239.091995 174.144760,253.597000 174.431763,268.091125 
	C174.529144,273.008575 172.823669,274.552094 168.102356,274.274292 
	C162.621674,273.951782 157.107437,274.200165 151.124298,274.201477 
M175.378174,192.196945 
	C193.828430,192.827621 212.374130,194.230103 230.665863,191.300629 
	C245.142105,188.982224 255.268890,180.662811 258.250946,165.446564 
	C259.186676,160.671982 259.093781,155.812714 258.674805,151.005997 
	C257.799072,140.958984 253.570023,132.821655 244.537994,127.682831 
	C237.293991,123.561310 229.390335,121.547157 221.144638,121.402946 
	C207.320206,121.161148 193.487015,121.435265 179.661713,121.221298 
	C175.511826,121.157074 174.186859,122.549889 174.241150,126.677017 
	C174.438339,141.669159 174.241180,156.666061 174.358337,171.659851 
	C174.410217,178.300583 173.765198,184.963837 175.378174,192.196945 
z"/>
<path fill="white" opacity="1.000000" stroke="none" 
	d="
M342.358459,263.708588 
	C324.340210,251.395416 315.316162,234.402618 313.618774,213.206543 
	C312.013397,193.159424 315.922577,174.704544 329.440979,159.185196 
	C341.825531,144.967529 358.055206,138.273956 376.486938,136.859329 
	C388.504089,135.937012 400.404724,136.942688 411.832367,141.489594 
	C431.700867,149.395004 441.085602,165.266418 445.109528,185.107224 
	C446.863647,193.756363 447.407562,202.574417 447.164978,211.435257 
	C447.047302,215.732910 445.577667,217.503159 440.891144,217.471497 
	C410.899902,217.268814 380.906677,217.356079 350.914093,217.370285 
	C348.951202,217.371216 346.928619,217.037140 344.388855,218.188568 
	C346.600922,228.657806 351.478302,237.424896 360.284271,243.590958 
	C377.599762,255.715485 403.148590,253.725662 419.456421,238.895645 
	C422.821411,235.835617 424.935883,235.496216 427.921082,239.012177 
	C430.607880,242.176697 433.619232,245.109955 436.757599,247.833923 
	C439.708252,250.395020 439.831238,252.284073 436.841492,255.037552 
	C425.854248,265.156525 413.014069,271.351654 398.358337,273.825317 
	C378.628723,277.155396 359.891449,274.703491 342.358459,263.708588 
M362.406464,195.559967 
	C372.885986,195.414642 383.365204,195.238892 393.845123,195.134689 
	C400.834290,195.065201 407.826141,195.001678 414.813568,195.121613 
	C418.808258,195.190170 420.278107,193.740585 419.299225,189.685944 
	C418.161469,184.973160 416.882629,180.350555 414.307220,176.193237 
	C404.049866,159.635239 377.508453,154.711563 360.677094,166.257202 
	C350.639465,173.142654 345.478210,182.863602 343.500183,195.560959 
	C349.953766,195.560959 355.721558,195.560959 362.406464,195.559967 
z"/>
<path fill="white" opacity="1.000000" stroke="none" 
	d="
M772.071838,133.792603 
	C777.891846,133.789444 783.234619,134.009613 788.548462,133.713165 
	C792.515198,133.491898 794.473511,134.871002 795.800232,138.724594 
	C806.742981,170.507401 817.893555,202.218628 828.989929,233.948486 
	C829.571106,235.610275 829.704163,237.539597 832.087708,238.921997 
	C835.998291,227.614120 839.853149,216.498901 843.686523,205.376297 
	C851.387024,183.033203 859.143066,160.708786 866.698914,138.316849 
	C867.863708,134.865143 869.641235,133.648117 873.207703,133.741943 
	C881.313904,133.955170 889.429504,133.809143 897.109802,133.809143 
	C898.508606,136.332581 897.423096,137.818100 896.850403,139.309296 
	C880.737976,181.261475 864.536377,223.179672 848.559448,265.183319 
	C846.938171,269.445740 844.862854,271.281189 840.230408,271.039642 
	C833.419067,270.684418 826.575256,270.862823 819.747192,270.958130 
	C816.472717,271.003784 814.711548,269.724640 813.496460,266.541473 
	C805.007507,244.304230 796.356323,222.128540 787.681335,199.962814 
	C780.163208,180.753204 772.528931,161.589066 764.992798,142.386475 
	C764.093323,140.094543 763.487854,137.687225 762.730408,135.283249 
	C765.636292,132.852478 768.752563,134.175446 772.071838,133.792603 
z"/>
<path fill="white" opacity="1.000000" stroke="none" 
	d="
M651.809448,143.750244 
	C658.832520,139.095612 665.585327,134.688324 673.797424,133.176895 
	C632.716370,162.035477 620.570679,197.634506 651.249451,240.482468 
	C667.581726,263.293121 698.326355,270.951538 725.211060,259.473297 
	C766.599976,241.802597 776.391052,208.926605 764.076599,167.271912 
	C779.880493,187.163239 783.958984,231.317245 754.466003,261.239685 
	C721.812866,294.368225 669.622070,292.830933 638.727417,257.573029 
	C609.125549,223.790634 615.072937,170.995285 651.809448,143.750244 
z"/>
<path fill="white" opacity="1.000000" stroke="none" 
	d="
M303.746277,316.063141 
	C302.896973,304.908905 308.179443,300.215454 318.305603,302.694916 
	C318.466431,302.734314 318.639862,302.887421 318.772614,302.853058 
	C327.124939,300.691254 325.203156,306.708313 325.255951,311.055420 
	C325.308563,315.386108 325.454041,319.734894 325.143646,324.045868 
	C324.773468,329.187073 321.429077,332.153625 315.892761,332.849701 
	C311.038300,333.460052 307.242218,331.271515 305.009644,326.050568 
	C310.289185,325.489777 317.389557,333.548187 321.069641,322.613708 
	C313.054749,325.282440 306.791565,324.797394 303.746277,316.063141 
M309.125061,317.454987 
	C309.988342,318.498138 311.011566,319.279541 312.357025,319.631592 
	C316.459473,320.705048 319.831177,318.728882 320.644470,314.742279 
	C321.495239,310.571716 319.491791,306.973572 315.887268,306.198761 
	C311.863068,305.333740 308.315308,307.898438 307.630005,312.082275 
	C307.340790,313.847992 308.080383,315.313965 309.125061,317.454987 
z"/>
<path fill="white" opacity="1.000000" stroke="none" 
	d="
M263.109344,324.268982 
	C255.951462,324.129211 255.892990,324.078278 255.878357,317.576202 
	C255.865265,311.753571 255.952560,305.929199 255.834793,300.108856 
	C255.768799,296.846893 256.940338,295.054138 260.398987,295.088470 
	C264.889923,295.132996 269.382385,295.048859 273.872772,295.115814 
	C275.346649,295.137756 277.127045,295.195953 277.182892,297.276276 
	C277.243347,299.525818 275.377533,299.290924 273.936279,299.323395 
	C270.943146,299.390839 267.944122,299.444275 264.954132,299.329803 
	C261.952454,299.214905 260.331696,300.115997 260.251709,303.511261 
	C260.170990,306.939301 261.691711,307.875275 264.765289,307.717987 
	C267.418671,307.582153 270.087128,307.700592 272.747711,307.759857 
	C274.208923,307.792389 275.449432,308.257843 275.332703,310.041992 
	C275.233276,311.561523 273.968842,311.855865 272.806030,311.904785 
	C269.816406,312.030518 266.820679,312.074127 263.828186,312.050415 
	C260.867584,312.026947 260.297363,313.751007 260.288574,316.268433 
	C260.279572,318.850464 261.461914,319.874176 263.915649,319.851593 
	C267.076019,319.822510 270.239075,319.799469 273.396881,319.901550 
	C275.001282,319.953369 277.095978,319.809998 276.993683,322.248962 
	C276.906982,324.316650 275.031372,324.194824 273.572144,324.225037 
	C270.246246,324.293945 266.918213,324.259674 263.109344,324.268982 
z"/>
<path fill="white" opacity="1.000000" stroke="none" 
	d="
M710.337646,300.148834 
	C710.331299,306.937469 710.340149,313.247955 710.314087,319.558258 
	C710.302246,322.433960 710.286804,325.369598 705.955811,323.399353 
	C704.939331,322.936920 704.040649,323.553192 703.092896,323.807892 
	C698.190979,325.125214 693.825989,324.439209 690.655334,320.084930 
	C687.828613,316.203125 687.816162,309.722351 690.675476,306.012756 
	C693.910278,301.816040 698.167053,300.839325 703.125488,302.469757 
	C703.731995,302.669189 704.390808,302.709717 704.967224,302.813416 
	C706.371277,301.251434 705.631348,299.510162 705.833557,297.930267 
	C706.039307,296.322754 705.715820,294.252869 708.021179,294.107758 
	C710.513306,293.950867 710.176514,296.087494 710.324707,297.678864 
	C710.386047,298.337463 710.337341,299.006378 710.337646,300.148834 
M700.983643,320.250458 
	C705.088440,318.773651 706.375916,315.689148 705.859375,311.617859 
	C705.485535,308.672180 703.891235,306.783966 700.912598,306.201660 
	C697.117615,305.459747 693.945435,307.589325 693.228943,311.342133 
	C692.250549,316.466522 694.411621,319.246613 700.983643,320.250458 
z"/>
<path fill="white" opacity="1.000000" stroke="none" 
	d="
M335.761902,323.904236 
	C328.708740,320.119812 326.399658,314.115631 329.304199,308.002411 
	C331.837830,302.669861 337.657959,300.399353 343.165558,302.551392 
	C345.260376,303.369934 346.991669,304.661987 348.124329,306.565918 
	C349.404297,308.717529 350.720703,311.162048 349.591705,313.601837 
	C348.462921,316.041077 345.784454,315.037537 343.721466,315.153839 
	C340.475922,315.336853 337.165222,314.742157 333.838623,315.649841 
	C336.133301,320.629547 338.873871,321.623291 342.851135,319.232910 
	C344.585785,318.190369 345.990784,315.933136 348.483002,317.711334 
	C347.277863,323.262695 344.223694,324.816650 335.761902,323.904236 
M337.853729,310.778564 
	C340.024414,310.451233 342.483459,311.601074 344.378754,309.617706 
	C341.032104,304.663757 336.864349,304.764679 333.948364,309.789246 
	C334.693298,311.047760 335.977203,310.604523 337.853729,310.778564 
z"/>
<path fill="white" opacity="1.000000" stroke="none" 
	d="
M720.887512,319.177246 
	C723.802002,321.040283 726.270752,320.466583 728.594604,318.753784 
	C730.066040,317.669281 731.397888,316.260010 733.445496,317.487549 
	C732.830444,322.571075 728.787048,325.067657 722.557068,324.245453 
	C717.094910,323.524536 713.436707,318.946381 713.489685,312.897736 
	C713.544312,306.663177 717.415466,302.309631 723.376343,301.779114 
	C728.814575,301.295135 733.682190,304.770813 734.943237,310.022034 
	C735.713440,313.229156 735.008972,315.309021 731.178223,315.170563 
	C729.180908,315.098328 727.179749,315.125214 725.180359,315.117737 
	C723.209290,315.110352 721.238281,315.116119 719.528198,315.116119 
	C718.416870,317.306335 719.660645,318.082062 720.887512,319.177246 
M724.477112,310.766388 
	C726.136597,310.451538 728.167786,311.475739 729.427002,309.388458 
	C728.576660,306.312164 726.171631,305.940887 723.590881,306.124939 
	C721.111023,306.301758 719.366333,307.452057 718.946045,310.476196 
	C720.745911,310.586456 722.209045,310.676086 724.477112,310.766388 
z"/>
<path fill="white" opacity="1.000000" stroke="none" 
	d="
M608.890991,310.513733 
	C611.427002,304.003479 614.929688,301.451904 620.452209,301.741791 
	C625.256409,301.993927 629.097961,305.096405 630.183594,309.648895 
	C631.027588,313.187653 630.424561,315.524536 625.962646,315.269836 
	C622.171692,315.053406 618.358582,315.225159 614.177734,315.225159 
	C614.911194,319.622437 617.621582,320.446167 620.992065,320.245270 
	C623.845581,320.075165 625.315674,315.768677 629.153992,317.468201 
	C628.914734,321.622650 626.116333,323.348846 622.852051,324.059570 
	C618.180481,325.076660 613.898987,324.083069 610.856995,319.946930 
	C608.867432,317.241730 608.474487,314.161652 608.890991,310.513733 
M624.907227,309.037689 
	C620.654114,304.682648 616.809753,305.014587 614.386475,309.946075 
	C618.981018,311.143097 621.353516,311.083282 624.907227,309.037689 
z"/>
<path fill="white" opacity="1.000000" stroke="none" 
	d="
M415.224884,323.106873 
	C407.360077,325.921204 401.866760,323.760651 399.547394,317.139832 
	C397.289948,310.695801 400.349609,304.315033 406.365662,302.178772 
	C410.769073,300.615204 414.884216,304.177216 419.337067,302.452759 
	C420.376129,302.050293 420.819427,304.359558 420.836945,305.674622 
	C420.900970,310.480927 420.907654,315.288116 420.915009,320.095001 
	C420.921448,324.315186 418.920258,324.929291 415.224884,323.106873 
M403.332092,314.162537 
	C403.784302,317.792023 405.914642,319.933289 409.446899,320.333557 
	C412.127838,320.637299 414.297424,319.353607 415.573730,316.901215 
	C417.096497,313.975250 416.855194,311.096466 414.927063,308.447571 
	C413.258301,306.154938 410.844513,305.652588 408.246948,306.304779 
	C404.626434,307.213776 403.218231,309.812927 403.332092,314.162537 
z"/>
<path fill="white" opacity="1.000000" stroke="none" 
	d="
M467.812927,302.652344 
	C469.821350,309.140411 468.716553,315.470520 468.754303,321.754608 
	C468.761505,322.954193 467.818970,324.551361 466.673218,323.973694 
	C463.278412,322.262238 460.276642,324.589691 457.064117,324.409180 
	C450.620941,324.047150 445.942383,318.310547 446.816833,311.594238 
	C447.676727,304.989655 453.397766,300.337250 459.480042,302.074127 
	C462.324677,302.886383 464.837128,302.596832 467.812927,302.652344 
M452.224457,317.050201 
	C454.581848,320.407135 457.750000,321.597168 461.227600,319.288269 
	C464.435425,317.158478 465.427185,313.873901 463.829193,310.096649 
	C462.349030,306.597839 459.607452,305.438354 456.144836,306.341705 
	C451.700378,307.501251 450.916840,310.950867 451.420837,314.957428 
	C451.481689,315.440948 451.715698,315.902679 452.224457,317.050201 
z"/>
<path fill="white" opacity="1.000000" stroke="none" 
	d="
M659.430908,322.695770 
	C654.456421,317.632477 653.380188,312.061951 656.155823,307.109100 
	C658.792053,302.404816 662.585388,302.774902 669.969177,302.341492 
	C678.868835,301.819153 676.168579,307.010712 676.434692,311.257172 
	C676.601135,313.913391 676.890991,316.583435 676.765808,319.230255 
	C676.637634,321.939636 677.016113,325.704529 672.166199,323.229370 
	C671.143433,322.707428 670.271667,323.489655 669.345154,323.791199 
	C666.025269,324.871704 662.797729,324.780762 659.430908,322.695770 
M668.304504,319.724701 
	C669.983154,318.820831 671.171753,317.526886 671.813660,315.686188 
	C672.851379,312.710602 672.337280,310.039490 670.141357,307.858185 
	C668.009277,305.740295 665.366638,305.555176 662.740540,306.822113 
	C659.785034,308.248016 659.005920,310.897369 659.269531,313.951965 
	C659.656311,318.433136 662.351257,320.365295 668.304504,319.724701 
z"/>
<path fill="white" opacity="1.000000" stroke="none" 
	d="
M537.628174,311.518188 
	C539.588806,303.260529 543.950684,300.586060 551.891602,302.410400 
	C552.374390,302.521301 552.929016,302.913940 553.311340,302.779785 
	C560.581299,300.228851 559.311523,305.442200 559.340515,309.406525 
	C559.368347,313.214722 559.327148,317.023773 559.278381,320.832001 
	C559.246887,323.293488 558.322571,324.794708 555.607910,323.618683 
	C554.403992,323.097107 553.431702,323.414856 552.286011,323.684570 
	C542.977173,325.876038 537.759644,321.660187 537.628174,311.518188 
M551.213928,319.632233 
	C554.820740,317.784241 555.246033,314.585083 554.701050,311.088959 
	C554.306519,308.558594 552.757507,306.853088 550.231689,306.291840 
	C547.632446,305.714264 545.218811,306.099945 543.548218,308.453094 
	C541.641541,311.138855 541.360596,314.128784 542.930969,316.939392 
	C544.545837,319.829620 547.130493,321.144104 551.213928,319.632233 
z"/>
<path fill="white" opacity="1.000000" stroke="none" 
	d="
M834.329834,301.851837 
	C838.293091,301.205383 841.649475,304.055420 845.359436,302.315399 
	C846.188232,301.926727 847.146423,303.182648 847.156494,304.273438 
	C847.210327,310.097931 847.214233,315.923340 847.171997,321.747955 
	C847.162476,323.057648 846.134827,324.477844 845.078613,323.911072 
	C842.126160,322.326660 839.593384,324.219086 836.881836,324.344543 
	C831.177795,324.608551 826.768921,321.287964 825.708740,315.787445 
	C824.418152,309.091614 827.159058,304.461243 834.329834,301.851837 
M829.794983,314.816254 
	C830.052307,315.425079 830.232239,316.082611 830.579773,316.634644 
	C832.423218,319.562561 834.810242,321.263947 838.449829,319.929138 
	C842.230957,318.542419 843.073059,315.541687 842.804932,311.950287 
	C842.546570,308.490143 840.568787,306.389526 837.262390,305.937958 
	C833.637695,305.442932 831.312500,307.461121 830.127563,310.767120 
	C829.750183,311.820068 829.739868,313.004517 829.794983,314.816254 
z"/>
<path fill="white" opacity="1.000000" stroke="none" 
	d="
M488.801239,307.485901 
	C492.188995,307.674774 495.178986,307.681732 498.165222,307.790619 
	C499.801300,307.850250 501.889252,307.759735 501.782745,310.127502 
	C501.678833,312.437653 499.587341,312.159424 497.963745,312.267761 
	C497.467224,312.300873 496.966919,312.274841 496.468384,312.280060 
	C488.146790,312.366821 488.140381,312.366180 487.155487,320.677399 
	C486.976685,322.186401 486.948853,323.889954 484.887054,323.897064 
	C482.752655,323.904419 482.751648,322.142639 482.743591,320.657990 
	C482.704010,313.346161 482.743713,306.033905 482.707306,298.722015 
	C482.696350,296.521088 483.641663,295.155151 485.865540,295.114441 
	C490.848083,295.023224 495.833862,295.028107 500.817017,295.093109 
	C502.414642,295.113922 503.966217,295.739929 503.760406,297.677368 
	C503.574402,299.428680 501.920868,299.315857 500.613434,299.341553 
	C498.121613,299.390533 495.628113,299.348389 493.135498,299.366150 
	C486.926483,299.410370 485.791687,301.329163 488.801239,307.485901 
z"/>
<path fill="white" opacity="1.000000" stroke="none" 
	d="
M759.114929,299.355957 
	C756.195923,299.834503 752.573425,297.858673 752.125793,302.532623 
	C751.805786,305.873566 752.566406,308.112244 756.605774,307.837830 
	C759.091309,307.669006 761.600891,307.768890 764.095886,307.856506 
	C765.551880,307.907593 766.768188,308.512970 766.656250,310.240692 
	C766.562439,311.688080 765.432617,312.135803 764.185913,312.175995 
	C761.856567,312.251068 759.508362,312.425232 757.196960,312.224670 
	C753.254333,311.882538 751.859619,313.546692 751.962341,317.422821 
	C752.021301,319.644897 753.175476,323.626678 749.942932,323.622070 
	C746.026062,323.616516 747.839294,319.483185 747.736206,317.185760 
	C747.467590,311.202026 747.702209,305.197510 747.617065,299.202942 
	C747.579529,296.560028 748.549805,295.065796 751.318970,295.070740 
	C755.981445,295.079102 760.644836,295.052124 765.305908,295.141144 
	C766.796814,295.169586 768.610718,295.352814 768.516296,297.413971 
	C768.418823,299.542542 766.512878,299.260742 765.074585,299.323883 
	C763.245850,299.404114 761.411255,299.351379 759.114929,299.355957 
z"/>
<path fill="white" opacity="1.000000" stroke="none" 
	d="
M822.367065,315.994659 
	C821.702576,318.954163 823.939941,323.602539 820.360596,323.554077 
	C816.428406,323.500824 818.564209,318.841003 818.192627,316.181976 
	C817.966492,314.563599 818.354431,312.859711 818.130859,311.240570 
	C817.697876,308.104675 816.109253,305.871857 812.585754,306.132019 
	C809.282410,306.375946 807.492676,308.397552 807.334473,311.670441 
	C807.190369,314.652588 807.297913,317.646088 807.213745,320.632263 
	C807.171875,322.120911 807.145020,323.900146 805.030823,323.840210 
	C803.027832,323.783386 802.841980,322.087433 802.835999,320.559357 
	C802.805298,312.757080 802.804321,304.954529 802.837341,297.152252 
	C802.843933,295.590271 803.139587,293.995575 805.210815,294.088043 
	C806.979187,294.166962 807.165527,295.629700 807.206848,296.994141 
	C807.261292,298.790894 807.220215,300.590515 807.220215,301.927917 
	C808.431335,303.145569 809.199585,302.613678 809.966492,302.414307 
	C817.215393,300.529846 822.097168,304.112335 822.372070,311.538361 
	C822.421143,312.864471 822.371765,314.194214 822.367065,315.994659 
z"/>
<path fill="white" opacity="1.000000" stroke="none" 
	d="
M396.285919,312.318176 
	C396.293274,314.770111 396.428772,316.778748 396.252014,318.759491 
	C396.079132,320.696808 397.175140,323.813202 393.899658,323.762054 
	C391.085083,323.718079 391.892700,320.832184 391.781128,318.985748 
	C391.640900,316.664154 391.757446,314.328339 391.694336,312.000519 
	C391.601990,308.595795 390.356903,306.024872 386.463135,306.161865 
	C382.846741,306.289124 381.126953,308.415039 381.147217,312.028046 
	C381.164032,315.021698 381.141998,318.017517 381.039795,321.009064 
	C380.993134,322.373596 380.654236,323.758820 378.936523,323.906250 
	C377.067535,324.066681 376.749115,322.671753 376.742889,321.280975 
	C376.706482,313.129639 376.705139,304.977966 376.741180,296.826630 
	C376.747253,295.454254 377.033234,294.038605 378.868622,294.083984 
	C380.623718,294.127441 380.939819,295.494690 381.049469,296.877563 
	C381.191956,298.674835 381.255585,300.478394 381.353088,302.278442 
	C392.389008,301.387299 395.101196,303.166931 396.285919,312.318176 
z"/>
<path fill="white" opacity="1.000000" stroke="none" 
	d="
M770.222473,317.161133 
	C767.413940,305.267761 776.342896,300.451263 782.990112,302.027039 
	C788.177429,303.256714 791.288452,307.414459 791.303833,312.980896 
	C791.318970,318.490631 788.376038,322.826660 783.792419,324.047974 
	C777.882019,325.622833 773.464539,323.483521 770.222473,317.161133 
M786.835327,312.548370 
	C786.681763,308.909851 784.937439,306.588959 781.232422,306.108643 
	C777.460815,305.619690 774.646240,308.064423 774.152161,312.088318 
	C773.638916,316.269226 775.956970,319.820801 779.542908,320.347778 
	C783.198364,320.885010 785.781372,318.398712 786.835327,312.548370 
z"/>
<path fill="white" opacity="1.000000" stroke="none" 
	d="
M514.832153,310.108734 
	C514.855164,307.967316 514.844482,306.300751 514.909851,304.637146 
	C514.959900,303.362457 515.762939,301.777863 516.815857,302.213959 
	C520.213440,303.621216 523.278625,301.304443 526.497192,301.804108 
	C530.722046,302.460022 533.755493,304.796417 534.219299,309.105286 
	C534.661804,313.217010 534.329407,317.415741 534.273682,321.575348 
	C534.257080,322.817932 533.805176,323.924988 532.294556,323.947601 
	C530.765869,323.970459 530.287964,322.792725 530.233276,321.608887 
	C530.079773,318.283997 530.146118,314.949158 530.004089,311.623444 
	C529.866211,308.394379 528.480774,306.072632 524.883484,306.174896 
	C521.525208,306.270355 519.689087,308.368866 519.416748,311.562012 
	C519.148438,314.707306 519.312012,317.887634 519.221069,321.050720 
	C519.181763,322.420044 518.955200,323.874329 517.141235,323.857880 
	C515.418335,323.842285 514.959534,322.465271 514.921143,321.078461 
	C514.824402,317.582458 514.852905,314.082947 514.832153,310.108734 
z"/>
<path fill="white" opacity="1.000000" stroke="none" 
	d="
M372.456238,319.591187 
	C372.213196,321.576630 372.675018,323.853210 370.324707,323.853455 
	C367.687500,323.853760 368.072418,321.432129 367.992615,319.687988 
	C367.870819,317.026367 367.948578,314.356201 367.868713,311.691864 
	C367.771393,308.445160 366.439789,306.117218 362.848419,306.149536 
	C359.431244,306.180298 357.701172,308.387482 357.403809,311.538635 
	C357.122955,314.514557 357.305267,317.532043 357.217712,320.529297 
	C357.174164,322.019196 357.208557,323.791443 355.121796,323.869019 
	C353.040619,323.946381 352.837891,322.238953 352.819855,320.709198 
	C352.759125,315.544281 352.767334,310.378448 352.771454,305.212952 
	C352.772583,303.788147 353.387451,301.854553 354.729279,302.335388 
	C358.017212,303.513702 360.871765,301.562012 363.943359,301.769470 
	C368.534485,302.079590 371.873688,305.338409 372.266754,310.185425 
	C372.508698,313.168549 372.418640,316.178619 372.456238,319.591187 
z"/>
<path fill="white" opacity="1.000000" stroke="none" 
	d="
M296.665771,323.076965 
	C295.421936,319.129517 296.120880,315.442749 295.852142,311.804718 
	C295.618134,308.636597 294.512695,306.117035 290.905548,306.160187 
	C287.346039,306.202667 285.457214,308.360504 285.307922,311.881439 
	C285.174072,315.038391 285.239166,318.203339 285.150330,321.362854 
	C285.115967,322.585266 284.720245,323.763123 283.273682,323.894806 
	C281.549652,324.051788 280.879822,322.863190 280.861023,321.394531 
	C280.790771,315.904846 280.794983,310.413971 280.804504,304.923645 
	C280.806641,303.691803 281.419647,301.967377 282.516266,302.364563 
	C286.082184,303.656219 289.299683,301.232574 292.696838,301.850372 
	C296.254517,302.497345 299.028870,304.427521 299.846466,307.990295 
	C300.893433,312.552612 300.437469,317.266083 300.125000,321.904572 
	C299.996887,323.806396 298.701263,324.414673 296.665771,323.076965 
z"/>
<path fill="white" opacity="1.000000" stroke="none" 
	d="
M578.858032,320.625305 
	C578.823364,317.682098 578.791504,315.191650 578.802124,312.701385 
	C578.817322,309.138214 577.713440,306.227997 573.643616,306.202576 
	C569.358032,306.175812 568.112183,309.158722 568.114807,312.935394 
	C568.116516,315.425659 568.126770,317.917206 568.051636,320.405701 
	C568.006653,321.895111 567.994263,323.664825 565.991333,323.810089 
	C563.871765,323.963898 563.748474,322.207214 563.732910,320.693970 
	C563.679871,315.547760 563.681396,310.400726 563.700195,305.254150 
	C563.705139,303.896271 564.136658,301.804718 565.538696,302.386444 
	C568.864197,303.766327 571.643372,301.580017 574.695679,301.753143 
	C578.908569,301.992035 582.528442,305.075256 583.045471,309.610504 
	C583.475342,313.381531 583.224487,317.233032 583.220947,321.048828 
	C583.219849,322.236420 583.005615,323.539551 581.598999,323.788666 
	C579.575378,324.147095 579.098816,322.678009 578.858032,320.625305 
z"/>
<path fill="white" opacity="1.000000" stroke="none" 
	d="
M601.821533,308.117615 
	C598.050781,305.132416 594.676392,305.324829 591.963684,308.816772 
	C589.494507,311.995392 589.716797,315.518158 592.568970,318.326813 
	C595.506165,321.219208 598.834961,321.073120 601.899658,318.238708 
	C603.205688,317.030853 604.509766,316.155945 606.286194,317.279358 
	C605.559937,322.302856 602.419128,324.544861 596.441406,324.338715 
	C590.809204,324.144501 586.691406,320.134521 586.027893,314.197998 
	C585.392517,308.512054 589.273132,303.059570 594.766907,301.919220 
	C600.092407,300.813843 604.869385,303.587646 606.743103,308.936584 
	C604.968689,310.719025 603.511108,309.710388 601.821533,308.117615 
z"/>
<path fill="white" opacity="1.000000" stroke="none" 
	d="
M646.247192,321.662048 
	C644.478699,325.209534 642.488220,324.566772 642.228210,321.652069 
	C641.729309,316.060425 642.081970,310.392700 642.086365,304.756531 
	C642.086487,304.593536 642.129211,304.427032 642.173523,304.268158 
	C642.455627,303.258423 643.620361,301.876343 643.963623,302.273499 
	C647.155273,305.966339 650.813293,299.937836 653.754944,302.856842 
	C654.604675,303.700043 654.299500,305.354187 653.016724,305.804138 
	C645.176453,308.554260 646.456787,315.182495 646.247192,321.662048 
z"/>
<path fill="white" opacity="1.000000" stroke="none" 
	d="
M427.247864,302.580658 
	C429.173248,303.945923 430.670349,303.909393 432.465515,302.744751 
	C433.793610,301.883148 435.773926,301.016815 436.817688,302.994385 
	C437.886902,305.020050 436.211670,305.770569 434.531555,306.486725 
	C430.219391,308.324921 429.561615,312.101807 429.196960,316.290558 
	C428.972992,318.863220 431.136749,323.650146 427.006592,323.539185 
	C423.256104,323.438477 425.222076,318.665253 424.939697,315.965759 
	C424.613892,312.850952 424.804840,309.673676 424.896027,306.527161 
	C424.941895,304.944580 424.654480,303.055969 427.247864,302.580658 
z"/>
<path fill="white" opacity="1.000000" stroke="none" 
	d="
M798.633667,295.685242 
	C798.803406,304.062897 798.891052,312.020050 798.818237,319.975769 
	C798.802795,321.667847 798.972046,324.142639 796.291382,323.951935 
	C793.816467,323.775848 794.642334,321.456482 794.632141,319.974335 
	C794.580750,312.511688 794.601685,305.047516 794.702942,297.585327 
	C794.737366,295.048584 794.992859,292.371033 798.633667,295.685242 
z"/>
<path fill="white" opacity="1.000000" stroke="none" 
	d="
M506.585083,309.324463 
	C506.578522,307.556152 506.531769,306.235260 506.570770,304.916931 
	C506.612152,303.517731 506.066254,301.639099 508.387695,301.620148 
	C509.985931,301.607086 510.756531,302.919861 510.777496,304.291962 
	C510.865723,310.060699 510.849915,315.832458 510.763733,321.601471 
	C510.742737,323.006226 510.063599,324.221161 508.337555,324.093475 
	C506.446259,323.953613 506.560242,322.487671 506.560364,321.157104 
	C506.560669,317.362427 506.574219,313.567719 506.585083,309.324463 
z"/>
<path fill="white" opacity="1.000000" stroke="none" 
	d="
M444.048645,313.984406 
	C444.012482,316.791443 444.038513,319.119324 443.907227,321.438263 
	C443.839172,322.639679 443.361053,323.777710 441.902496,323.861237 
	C440.405609,323.947021 439.826538,322.892517 439.798676,321.636719 
	C439.669708,315.824219 439.598877,310.010162 439.553497,304.196289 
	C439.545013,303.108002 440.090820,302.253296 441.275726,302.127258 
	C443.015015,301.942200 443.728943,303.145813 443.819611,304.540253 
	C444.013336,307.519653 443.983734,310.513550 444.048645,313.984406 
z"/>
<path fill="white" opacity="1.000000" stroke="none" 
	d="
M633.606506,308.528748 
	C634.229736,305.980713 632.002502,302.070496 635.621643,302.056976 
	C638.887024,302.044769 637.756104,305.930511 637.850708,308.184387 
	C638.031250,312.481659 637.892578,316.796844 637.754150,321.100311 
	C637.712036,322.408203 637.358276,323.926697 635.556641,323.835114 
	C633.751770,323.743408 633.668640,322.220428 633.650513,320.892029 
	C633.596375,316.915680 633.616821,312.938324 633.606506,308.528748 
z"/>
<path fill="white" opacity="1.000000" stroke="none" 
	d="
M509.503662,299.605774 
	C506.424896,300.353241 505.949982,298.740021 506.309814,296.627197 
	C506.585388,295.009369 507.933807,294.328217 509.296234,294.971558 
	C511.531677,296.027191 511.232788,297.735260 509.503662,299.605774 
z"/>
<path fill="white" opacity="1.000000" stroke="none" 
	d="
M636.548828,299.425018 
	C633.623657,299.909485 633.025024,298.484406 633.489136,296.313049 
	C633.788086,294.914459 634.976807,294.398407 636.129578,294.893951 
	C638.406311,295.872742 638.128845,297.538483 636.548828,299.425018 
z"/>
<path fill="white" opacity="1.000000" stroke="none" 
	d="
M439.641602,298.362305 
	C439.377777,295.881012 439.957184,294.348297 442.506378,294.947968 
	C443.877167,295.270416 444.199371,296.534027 443.817261,297.687408 
	C443.051575,299.998840 441.564209,300.171387 439.641602,298.362305 
z"/>
</svg>
