<?xml version="1.0" encoding="UTF-8" standalone="no"?>
<!DOCTYPE svg PUBLIC "-//W3C//DTD SVG 1.1//EN" "http://www.w3.org/Graphics/SVG/1.1/DTD/svg11.dtd">
<svg xmlns="http://www.w3.org/2000/svg" version="1.1" viewBox="0.00 0.00 1500.00 500.00">
<g stroke-width="2.00" fill="none" stroke-linecap="butt">
<path stroke="#bfea9d" vector-effect="non-scaling-stroke" d="
  M 827.73 71.09
  Q 837.71 82.34 851.14 92.35
  Q 863.21 101.35 872.47 107.20"
/>
<path stroke="#b4e6a5" vector-effect="non-scaling-stroke" d="
  M 872.47 107.20
  Q 855.48 104.63 844.04 101.72
  Q 827.01 97.39 808.57 89.35
  C 787.71 80.25 769.56 67.72 753.04 52.38
  A 0.44 0.44 0.0 0 0 752.31 52.83
  Q 752.98 55.11 753.91 56.87
  C 757.27 63.19 761.94 71.33 767.36 77.92
  Q 776.09 88.55 786.49 97.61"
/>
<path stroke="#a6ddab" vector-effect="non-scaling-stroke" d="
  M 786.49 97.61
  Q 798.50 108.28 812.52 115.99
  C 819.87 120.03 824.98 123.12 830.58 125.27"
/>
<path stroke="#94d7ad" vector-effect="non-scaling-stroke" d="
  M 830.58 125.27
  Q 840.09 129.70 853.20 133.27
  Q 873.46 138.79 890.57 141.11
  Q 892.50 141.38 897.03 141.42"
/>
<path stroke="#8dd5b3" vector-effect="non-scaling-stroke" d="
  M 897.03 141.42
  Q 897.43 141.52 897.63 141.65
  A 0.29 0.29 0.0 0 1 897.51 142.17
  Q 880.93 144.88 873.49 145.19
  Q 862.97 145.63 852.50 145.23
  Q 832.01 144.44 810.01 135.53
  Q 808.52 134.93 806.72 134.72
  A 0.34 0.34 0.0 0 0 806.42 135.27
  Q 809.20 138.56 812.16 141.07
  Q 843.77 167.81 885.76 167.76
  Q 899.97 167.74 913.96 165.92
  A 0.25 0.25 0.0 0 1 914.11 166.38
  C 908.67 169.33 903.10 172.38 896.73 174.23
  C 883.47 178.07 870.30 178.44 856.92 176.37
  A 0.38 0.38 0.0 0 0 856.60 177.02
  Q 858.39 178.81 860.79 180.21
  Q 882.61 193.01 907.60 190.37
  Q 914.86 189.61 921.71 188.37
  A 0.26 0.26 0.0 0 1 921.94 188.80
  C 906.46 204.73 895.94 224.28 891.89 246.38
  Q 889.57 259.02 889.50 272.02"
/>
<path stroke="#85c0b0" vector-effect="non-scaling-stroke" d="
  M 889.50 272.02
  Q 889.81 286.27 892.99 300.21
  A 0.40 0.40 0.0 0 0 893.75 300.26
  Q 894.09 299.32 894.19 298.25
  C 895.80 281.40 898.20 266.02 904.39 251.49
  Q 910.04 238.19 915.74 230.00
  Q 926.97 213.84 945.62 200.46"
/>
<path stroke="#b4e6a5" vector-effect="non-scaling-stroke" d="
  M 945.62 200.46
  Q 958.98 191.80 973.62 185.11
  Q 982.63 181.00 991.60 176.81
  C 1001.53 172.17 1008.88 165.54 1017.27 157.70"
/>
<path stroke="#bfea9d" vector-effect="non-scaling-stroke" d="
  M 1017.27 157.70
  L 1026.67 150.22"
/>
<path stroke="#cff194" vector-effect="non-scaling-stroke" d="
  M 1026.67 150.22
  Q 1042.63 140.64 1060.88 145.88
  Q 1064.39 146.89 1068.75 148.46
  Q 1071.53 149.46 1072.06 146.89
  C 1073.63 139.34 1066.36 134.27 1060.76 130.70
  A 4.71 4.67 2.3 0 1 1059.14 128.96
  C 1057.10 125.22 1055.51 122.39 1051.12 120.63
  Q 1045.10 118.22 1031.41 115.57
  Q 1015.14 112.42 1010.69 96.75
  A 0.70 0.70 0.0 0 0 1009.39 96.64
  C 1005.81 104.12 1004.40 110.98 1009.51 118.12
  A 0.54 0.53 68.9 0 1 1009.14 118.96
  Q 1002.10 119.88 993.00 121.53
  Q 988.10 122.42 982.91 124.90
  A 1.95 1.94 -19.9 0 0 981.86 127.13
  Q 982.82 130.93 982.26 135.04"
/>
<path stroke="#bfea9d" vector-effect="non-scaling-stroke" d="
  M 982.26 135.04
  C 980.97 141.30 977.38 146.19 973.89 151.36
  A 0.13 0.13 0.0 0 1 973.65 151.26
  L 975.06 144.59"
/>
<path stroke="#c8ee99" vector-effect="non-scaling-stroke" d="
  M 975.06 144.59
  C 975.83 134.19 974.97 127.47 968.08 119.64
  C 961.67 112.36 953.15 108.09 943.99 104.51
  C 931.56 99.64 918.21 95.08 905.13 89.46
  Q 902.12 88.17 890.09 83.12
  Q 879.34 78.60 869.32 72.89
  C 861.53 68.46 853.18 62.22 845.28 56.67"
/>
<path stroke="#d3f19a" vector-effect="non-scaling-stroke" d="
  M 845.28 56.67
  Q 824.09 40.58 808.61 18.92
  Q 804.51 13.19 799.46 6.04
  A 0.45 0.45 0.0 0 0 798.64 6.34
  C 800.22 21.98 806.03 38.20 813.87 51.40
  Q 820.02 61.78 827.73 71.09"
/>
<path stroke="#9bdf33" vector-effect="non-scaling-stroke" d="
  M 845.28 56.67
  Q 839.96 54.65 835.26 51.45
  Q 835.24 51.43 835.20 51.47
  A 0.10 0.09 40.9 0 0 835.22 51.61
  Q 853.51 66.68 872.70 79.82
  A 0.16 0.16 0.0 0 1 872.55 80.10
  C 867.17 77.79 861.88 74.77 857.29 71.04
  Q 851.73 66.53 846.12 62.16
  Q 841.90 58.88 838.05 59.20
  Q 832.61 59.66 827.35 59.42
  A 0.84 0.84 0.0 0 0 826.52 60.54
  L 829.73 69.51"
/>
<path stroke="#92dc37" vector-effect="non-scaling-stroke" d="
  M 829.73 69.51
  L 827.73 71.09"
/>
<path stroke="#87d936" vector-effect="non-scaling-stroke" d="
  M 975.06 144.59
  Q 968.30 130.67 954.73 123.70
  Q 947.51 120.00 938.67 116.32
  C 925.99 111.04 910.55 106.71 897.83 102.07
  Q 886.54 97.96 874.51 93.87
  Q 860.00 88.93 853.31 85.56
  Q 843.15 80.45 833.93 73.65
  Q 831.58 71.92 829.73 69.51"
/>
<path stroke="#8fdc32" vector-effect="non-scaling-stroke" d="
  M 982.26 135.04
  C 990.49 137.00 995.92 140.25 1004.36 144.91
  Q 1014.59 150.55 1026.67 150.22"
/>
<path stroke="#74d142" vector-effect="non-scaling-stroke" d="
  M 872.47 107.20
  Q 882.52 113.53 894.39 117.36
  Q 905.94 121.08 917.49 124.88
  C 928.26 128.43 938.81 134.06 951.04 141.26
  Q 971.51 153.33 982.24 158.83
  C 990.15 162.89 997.45 165.29 1006.09 162.62
  Q 1010.90 161.14 1017.27 157.70"
/>
<path stroke="#3aa756" vector-effect="non-scaling-stroke" d="
  M 945.62 200.46
  Q 945.83 199.71 945.79 198.94"
/>
<path stroke="#37b956" vector-effect="non-scaling-stroke" d="
  M 945.79 198.94
  L 948.36 195.59
  A 1.01 0.86 77.1 0 0 948.50 195.32
  Q 948.86 194.29 950.16 192.42
  C 951.68 190.25 953.75 186.19 954.43 182.93
  C 958.20 164.84 950.15 151.19 935.34 141.92
  C 924.51 135.15 913.25 132.27 901.02 129.28"
/>
<path stroke="#49be52" vector-effect="non-scaling-stroke" d="
  M 901.02 129.28
  Q 898.33 128.47 895.55 127.96
  Q 882.60 125.61 866.12 121.87
  C 862.70 121.09 859.26 119.85 856.00 119.07
  Q 844.96 116.43 834.32 112.71"
/>
<path stroke="#5bc450" vector-effect="non-scaling-stroke" d="
  M 834.32 112.71
  C 825.41 109.55 819.98 107.90 813.41 104.17
  Q 808.29 101.25 805.39 100.32
  Q 796.22 97.38 786.49 97.61"
/>
<path stroke="#089362" vector-effect="non-scaling-stroke" d="
  M 945.79 198.94
  Q 939.62 202.85 936.94 203.71
  Q 933.43 204.84 932.08 204.51
  Q 924.89 202.76 918.80 206.52"
/>
<path stroke="#10a864" vector-effect="non-scaling-stroke" d="
  M 918.80 206.52
  Q 920.64 202.29 922.90 198.23
  Q 926.48 191.81 927.07 189.97
  C 929.23 183.18 929.56 174.02 925.97 167.42
  Q 923.16 162.25 921.64 160.78
  Q 915.01 154.38 897.98 141.23"
/>
<path stroke="#17aa5e" vector-effect="non-scaling-stroke" d="
  M 901.02 129.28
  L 897.98 141.23"
/>
<path stroke="#22ad60" vector-effect="non-scaling-stroke" d="
  M 897.98 141.23
  Q 897.39 141.09 897.03 141.42"
/>
<path stroke="#3ab558" vector-effect="non-scaling-stroke" d="
  M 834.32 112.71
  Q 830.70 118.33 830.58 125.27"
/>
<path stroke="#139664" vector-effect="non-scaling-stroke" d="
  M 918.80 206.52
  Q 916.48 210.58 908.09 224.12
  C 904.27 230.29 900.84 237.87 899.06 246.42
  C 897.31 254.77 895.45 264.52 889.50 272.02"
/>
<path stroke="#8b8f98" vector-effect="non-scaling-stroke" d="
  M 253.86 319.75
  L 326.62 319.75
  A 0.86 0.86 0.0 0 1 327.36 320.17
  L 374.78 398.99
  A 1.06 1.05 74.2 0 0 375.68 399.50
  L 424.58 399.50
  A 0.35 0.34 72.7 0 0 424.86 398.96
  L 366.61 312.04
  A 0.44 0.44 0.0 0 1 366.81 311.39
  Q 404.00 296.46 415.83 260.30
  C 421.34 243.46 422.13 223.10 418.73 205.53
  Q 413.90 180.49 396.14 163.67
  C 374.52 143.18 342.48 137.55 314.00 137.69
  Q 299.20 137.77 209.44 137.73
  A 0.38 0.38 0.0 0 0 209.06 138.11
  L 209.06 399.20
  A 0.30 0.30 0.0 0 0 209.36 399.50
  L 252.64 399.50
  A 0.52 0.52 0.0 0 0 253.16 398.98
  L 253.16 320.45
  A 0.70 0.70 0.0 0 1 253.86 319.75"
/>
<path stroke="#87cab8" vector-effect="non-scaling-stroke" d="
  M 948.18 214.73
  Q 915.72 242.27 909.03 284.17"
/>
<path stroke="#83bbb4" vector-effect="non-scaling-stroke" d="
  M 909.03 284.17
  Q 904.49 315.53 916.14 344.69
  Q 922.26 360.00 933.20 373.30
  Q 949.92 393.64 972.49 404.26
  C 1018.87 426.10 1071.75 414.69 1106.05 377.01"
/>
<path stroke="#87cbb2" vector-effect="non-scaling-stroke" d="
  M 1106.05 377.01
  Q 1121.52 360.43 1128.68 338.72
  C 1132.78 326.28 1135.34 313.11 1134.57 299.95"
/>
<path stroke="#adddb4" vector-effect="non-scaling-stroke" d="
  M 1134.57 299.95
  Q 1134.06 281.80 1128.86 266.62
  Q 1125.80 257.70 1118.12 243.43
  A 0.41 0.40 62.1 0 0 1117.58 243.26
  L 1117.56 243.27
  A 0.37 0.36 63.8 0 0 1117.40 243.75
  Q 1120.88 250.80 1122.81 256.98
  Q 1123.53 259.26 1125.59 270.18
  Q 1126.87 276.92 1126.84 283.05
  Q 1126.80 291.25 1126.26 296.00
  Q 1126.02 298.21 1124.67 305.51
  C 1122.40 317.91 1118.39 328.90 1111.48 339.46"
/>
<path stroke="#98dab5" vector-effect="non-scaling-stroke" d="
  M 1111.48 339.46
  Q 1099.36 358.85 1080.33 371.50"
/>
<path stroke="#86cdb9" vector-effect="non-scaling-stroke" d="
  M 1080.33 371.50
  C 1058.82 384.38 1034.82 389.56 1009.76 385.61"
/>
<path stroke="#83bbb4" vector-effect="non-scaling-stroke" d="
  M 1009.76 385.61
  Q 980.30 380.46 958.54 360.21
  Q 943.65 346.35 935.60 326.90"
/>
<path stroke="#87cab8" vector-effect="non-scaling-stroke" d="
  M 935.60 326.90
  Q 929.62 312.79 927.74 297.51
  C 924.34 269.99 934.35 241.68 951.85 220.60"
/>
<path stroke="#a6ceb8" vector-effect="non-scaling-stroke" d="
  M 951.85 220.60
  C 961.35 209.48 973.07 201.57 985.79 194.73
  A 0.28 0.27 -25.6 0 0 985.92 194.38
  L 985.91 194.37
  A 0.28 0.27 -20.9 0 0 985.57 194.22
  Q 965.08 201.19 948.18 214.73"
/>
<path stroke="#2e9970" vector-effect="non-scaling-stroke" d="
  M 951.85 220.60
  L 948.18 214.73"
/>
<path stroke="#0b866d" vector-effect="non-scaling-stroke" d="
  M 935.60 326.90
  Q 921.98 322.74 917.01 309.15
  Q 912.54 296.95 909.03 284.17"
/>
<path stroke="#09896e" vector-effect="non-scaling-stroke" d="
  M 1009.76 385.61
  Q 1010.86 389.09 1014.05 391.31
  Q 1014.67 391.74 1020.46 394.70
  Q 1031.12 400.15 1043.36 398.96
  Q 1052.56 398.06 1058.34 396.10
  Q 1061.15 395.14 1071.39 390.51"
/>
<path stroke="#0b8767" vector-effect="non-scaling-stroke" d="
  M 1071.39 390.51
  L 1092.29 387.44
  A 1.79 1.76 20.9 0 0 1093.16 387.06
  C 1097.40 383.53 1101.10 379.55 1106.05 377.01"
/>
<path stroke="#0e996c" vector-effect="non-scaling-stroke" d="
  M 1071.39 390.51
  Q 1080.62 385.72 1090.44 378.45
  Q 1096.68 373.82 1100.94 368.91"
/>
<path stroke="#20a668" vector-effect="non-scaling-stroke" d="
  M 1100.94 368.91
  Q 1108.23 360.76 1114.44 351.69
  Q 1115.34 350.38 1118.23 344.95"
/>
<path stroke="#1fa86e" vector-effect="non-scaling-stroke" d="
  M 1100.94 368.91
  C 1097.39 370.90 1093.82 371.38 1090.21 369.56
  Q 1088.67 368.78 1087.50 369.22
  Q 1084.00 370.52 1080.33 371.50"
/>
<path stroke="#35a967" vector-effect="non-scaling-stroke" d="
  M 1134.57 299.95
  L 1134.39 301.68
  A 0.41 0.41 0.0 0 1 1133.69 301.93
  L 1132.81 301.04
  A 0.53 0.52 26.2 0 0 1131.92 301.34
  L 1130.07 314.47
  A 0.60 0.49 65.7 0 1 1130.03 314.62
  Q 1128.34 320.39 1128.06 321.05
  Q 1125.57 326.87 1124.33 332.76
  Q 1123.68 335.85 1118.23 344.95"
/>
<path stroke="#46b86a" vector-effect="non-scaling-stroke" d="
  M 1118.23 344.95
  Q 1113.87 343.62 1111.48 339.46"
/>
<path stroke="#8b8f98" vector-effect="non-scaling-stroke" d="
  M 1216.07 353.82
  L 1161.22 196.20
  A 0.68 0.67 80.1 0 0 1160.59 195.75
  L 1116.70 195.75
  A 0.42 0.42 0.0 0 0 1116.31 196.33
  C 1118.13 200.54 1119.18 204.88 1120.90 209.28
  Q 1136.86 249.88 1144.72 270.63
  C 1145.48 272.62 1146.71 274.65 1147.45 276.56
  Q 1176.91 352.49 1192.97 393.94
  A 0.88 0.88 0.0 0 0 1193.79 394.50
  L 1237.32 394.50
  A 0.53 0.52 -79.4 0 0 1237.81 394.16
  L 1313.84 196.24
  A 0.36 0.36 0.0 0 0 1313.50 195.75
  L 1271.49 195.75
  A 0.69 0.67 -80.3 0 0 1270.85 196.21
  L 1216.71 353.81
  A 0.34 0.34 0.0 0 1 1216.07 353.82"
/>
<path stroke="#8b8f98" vector-effect="non-scaling-stroke" d="
  M 619.04 344.93
  C 616.90 346.38 613.77 349.93 611.06 352.01
  Q 587.02 370.51 555.71 367.52
  C 526.90 364.76 507.30 344.75 501.53 316.97
  A 0.39 0.39 0.0 0 1 501.91 316.51
  L 651.37 316.51
  A 0.58 0.58 0.0 0 0 651.95 315.97
  C 655.11 275.13 646.79 227.20 605.00 208.21
  Q 593.87 203.16 581.02 201.19
  C 553.20 196.94 524.31 200.82 500.48 216.33
  C 477.98 230.98 463.79 254.16 459.61 280.83
  C 453.30 321.12 465.80 362.10 500.90 384.79
  C 524.14 399.80 552.14 403.46 579.28 399.60
  C 603.33 396.17 625.64 385.09 641.91 367.59
  A 0.49 0.49 0.0 0 0 641.89 366.91
  L 619.93 345.00
  A 0.70 0.69 -40.1 0 0 619.04 344.93"
/>
<path stroke="#8b8f98" vector-effect="non-scaling-stroke" d="
  M 739.85 237.62
  L 739.85 201.26
  A 0.51 0.50 90.0 0 0 739.35 200.75
  L 697.13 200.75
  A 0.31 0.31 0.0 0 0 696.82 201.06
  L 696.82 399.22
  A 0.28 0.28 0.0 0 0 697.10 399.50
  L 739.40 399.50
  A 0.43 0.43 0.0 0 0 739.83 399.07
  Q 739.91 355.13 739.78 306.12
  Q 739.74 290.59 741.32 283.54
  Q 744.89 267.64 755.78 255.08
  C 763.26 246.46 775.45 239.54 787.50 238.91
  Q 792.18 238.67 797.66 238.56
  Q 805.60 238.41 812.59 240.80
  C 823.65 244.57 834.42 253.23 838.85 264.43
  Q 843.50 276.22 843.54 288.75
  Q 843.75 358.91 843.57 401.12
  A 1.48 1.48 0.0 0 0 845.05 402.61
  L 885.16 402.61
  A 1.12 1.11 7.9 0 0 886.23 401.81
  Q 887.34 397.86 887.33 393.00
  Q 887.22 339.01 887.37 281.59
  C 887.42 265.42 885.66 249.47 879.15 236.60
  C 863.84 206.33 834.03 197.12 801.77 200.08
  Q 783.25 201.78 768.85 209.05
  Q 758.06 214.49 751.53 221.77
  Q 745.73 228.23 740.26 237.73
  A 0.22 0.22 0.0 0 1 739.85 237.62"
/>
<path stroke="#8b8f98" vector-effect="non-scaling-stroke" d="
  M 555.59 446.44
  L 555.59 430.57
  A 0.52 0.52 0.0 0 0 555.07 430.05
  L 551.46 430.05
  A 0.47 0.47 0.0 0 0 550.99 430.52
  L 550.99 472.45
  A 0.53 0.52 90.0 0 0 551.51 472.98
  L 555.09 472.98
  A 0.52 0.51 -89.4 0 0 555.60 472.47
  Q 555.61 471.74 555.57 457.97
  C 555.56 452.68 556.26 449.01 560.90 446.88
  C 564.93 445.02 569.92 446.12 572.24 450.21
  Q 573.42 452.30 573.43 456.00
  Q 573.45 465.78 573.44 472.39
  A 0.58 0.57 0.5 0 0 574.02 472.97
  L 577.47 472.97
  A 0.56 0.56 0.0 0 0 578.03 472.42
  Q 578.12 462.66 578.00 454.79
  C 577.84 444.64 568.92 439.07 559.75 443.29
  C 558.46 443.89 556.98 445.69 555.94 446.60
  A 0.21 0.21 0.0 0 1 555.59 446.44"
/>
<path stroke="#8b8f98" vector-effect="non-scaling-stroke" d="
  M 1033.69 469.11
  L 1033.69 472.47
  A 0.53 0.53 0.0 0 0 1034.22 473.00
  L 1037.75 473.00
  A 0.52 0.51 0.0 0 0 1038.27 472.49
  L 1038.27 430.47
  A 0.40 0.40 0.0 0 0 1037.87 430.07
  L 1034.06 430.07
  A 0.39 0.39 0.0 0 0 1033.67 430.46
  L 1033.67 446.37
  A 0.29 0.29 0.0 0 1 1033.17 446.56
  Q 1027.07 439.89 1018.01 442.61
  C 1004.60 446.64 1004.36 467.91 1017.44 472.55
  Q 1026.34 475.70 1033.15 468.89
  A 0.32 0.31 -22.5 0 1 1033.69 469.11"
/>
<path stroke="#8a9098" vector-effect="non-scaling-stroke" d="
  M 1167.58 430.49
  A 0.44 0.44 0.0 0 0 1167.14 430.05
  L 1163.42 430.05
  A 0.44 0.44 0.0 0 0 1162.98 430.49
  L 1162.98 472.55
  A 0.44 0.44 0.0 0 0 1163.42 472.99
  L 1167.14 472.99
  A 0.44 0.44 0.0 0 0 1167.58 472.55
  L 1167.58 430.49"
/>
<path stroke="#8b8f98" vector-effect="non-scaling-stroke" d="
  M 1180.09 446.46
  L 1180.09 430.58
  A 0.52 0.52 0.0 0 0 1179.57 430.06
  L 1175.96 430.06
  A 0.47 0.47 0.0 0 0 1175.48 430.53
  L 1175.48 472.49
  A 0.53 0.52 -90.0 0 0 1176.00 473.02
  L 1179.58 473.02
  A 0.52 0.51 -89.4 0 0 1180.09 472.51
  Q 1180.10 471.78 1180.06 458.00
  C 1180.05 452.71 1180.76 449.03 1185.40 446.90
  C 1189.43 445.04 1194.43 446.15 1196.75 450.24
  Q 1197.93 452.33 1197.94 456.03
  Q 1197.96 465.82 1197.94 472.44
  A 0.58 0.57 0.5 0 0 1198.52 473.02
  L 1201.98 473.02
  A 0.56 0.56 0.0 0 0 1202.54 472.47
  Q 1202.63 462.70 1202.51 454.82
  C 1202.35 444.67 1193.43 439.09 1184.25 443.31
  C 1182.96 443.91 1181.48 445.71 1180.44 446.62
  A 0.21 0.21 0.0 0 1 1180.09 446.46"
/>
<path stroke="#8a9098" vector-effect="non-scaling-stroke" d="
  M 648.0210 431.5813
  A 0.44 0.44 0.0 0 0 647.5794 431.1429
  L 643.4795 431.1572
  A 0.44 0.44 0.0 0 0 643.0410 431.5987
  L 643.0590 436.7587
  A 0.44 0.44 0.0 0 0 643.5006 437.1971
  L 647.6005 437.1828
  A 0.44 0.44 0.0 0 0 648.0390 436.7413
  L 648.0210 431.5813"
/>
<path stroke="#8b8f98" vector-effect="non-scaling-stroke" d="
  M 746.01 431.60
  A 0.41 0.41 0.0 0 0 745.60 431.19
  L 741.46 431.19
  A 0.41 0.41 0.0 0 0 741.05 431.60
  L 741.05 436.78
  A 0.41 0.41 0.0 0 0 741.46 437.19
  L 745.60 437.19
  A 0.41 0.41 0.0 0 0 746.01 436.78
  L 746.01 431.60"
/>
<path stroke="#8a9098" vector-effect="non-scaling-stroke" d="
  M 932.0170 431.6970
  A 0.54 0.54 0.0 0 0 931.4742 431.1598
  L 927.5743 431.1803
  A 0.54 0.54 0.0 0 0 927.0371 431.7231
  L 927.0630 436.6630
  A 0.54 0.54 0.0 0 0 927.6058 437.2002
  L 931.5057 437.1797
  A 0.54 0.54 0.0 0 0 932.0429 436.6369
  L 932.0170 431.6970"
/>
<path stroke="#8b8f98" vector-effect="non-scaling-stroke" d="
  M 374.47 452.68
  Q 374.47 472.19 374.50 472.38
  A 0.70 0.69 -3.9 0 0 375.19 472.97
  L 403.98 472.98
  A 0.36 0.36 0.0 0 0 404.34 472.62
  L 404.34 468.92
  A 0.34 0.34 0.0 0 0 404.00 468.58
  L 379.66 468.58
  A 0.61 0.61 0.0 0 1 379.05 467.97
  L 379.05 455.30
  A 0.39 0.39 0.0 0 1 379.44 454.91
  L 401.20 454.91
  A 0.46 0.46 0.0 0 0 401.66 454.43
  Q 401.62 453.70 401.62 452.69
  Q 401.62 451.67 401.66 450.95
  A 0.46 0.46 0.0 0 0 401.20 450.46
  L 379.44 450.45
  A 0.39 0.39 0.0 0 1 379.05 450.06
  L 379.06 437.39
  A 0.61 0.61 0.0 0 1 379.67 436.78
  L 404.01 436.80
  A 0.34 0.34 0.0 0 0 404.35 436.46
  L 404.35 432.76
  A 0.36 0.36 0.0 0 0 403.99 432.40
  L 375.20 432.39
  A 0.70 0.69 4.0 0 0 374.51 432.98
  Q 374.48 433.17 374.47 452.68"
/>
<path stroke="#8b8f98" vector-effect="non-scaling-stroke" d="
  M 711.47 450.91
  A 0.41 0.41 0.0 0 1 711.06 450.50
  L 711.06 437.20
  A 0.41 0.41 0.0 0 1 711.47 436.79
  L 735.39 436.79
  A 0.41 0.41 0.0 0 0 735.80 436.38
  L 735.80 432.81
  A 0.41 0.41 0.0 0 0 735.39 432.40
  L 706.89 432.40
  A 0.41 0.41 0.0 0 0 706.48 432.81
  L 706.48 472.58
  A 0.41 0.41 0.0 0 0 706.89 472.99
  L 710.65 472.99
  A 0.41 0.41 0.0 0 0 711.06 472.58
  L 711.06 455.80
  A 0.41 0.41 0.0 0 1 711.47 455.39
  L 732.69 455.39
  A 0.41 0.41 0.0 0 0 733.10 454.98
  L 733.10 451.32
  A 0.41 0.41 0.0 0 0 732.69 450.91
  L 711.47 450.91"
/>
<path stroke="#8b8f98" vector-effect="non-scaling-stroke" d="
  M 1099.69 436.78
  L 1123.41 436.80
  A 0.39 0.39 0.0 0 0 1123.80 436.40
  L 1123.79 432.79
  A 0.40 0.40 0.0 0 0 1123.39 432.40
  L 1094.72 432.40
  A 0.25 0.24 -90.0 0 0 1094.48 432.65
  L 1094.48 472.56
  A 0.40 0.40 0.0 0 0 1094.88 472.96
  L 1098.64 473.00
  A 0.41 0.40 -89.3 0 0 1099.05 472.59
  L 1099.06 455.74
  A 0.35 0.34 -89.2 0 1 1099.41 455.39
  L 1120.60 455.39
  A 0.49 0.49 0.0 0 0 1121.09 454.90
  L 1121.11 451.42
  A 0.51 0.51 0.0 0 0 1120.60 450.91
  L 1099.73 450.92
  A 0.67 0.67 0.0 0 1 1099.06 450.25
  L 1099.05 437.43
  A 0.65 0.64 -90.0 0 1 1099.69 436.78"
/>
<path stroke="#8b8f98" vector-effect="non-scaling-stroke" d="
  M 415.34 446.42
  L 415.34 442.89
  A 0.57 0.56 -0.0 0 0 414.77 442.33
  L 411.26 442.33
  A 0.53 0.53 0.0 0 0 410.73 442.86
  L 410.73 472.45
  A 0.54 0.54 0.0 0 0 411.27 472.99
  L 414.84 472.99
  A 0.50 0.49 -0.0 0 0 415.34 472.50
  Q 415.35 462.54 415.33 456.67
  Q 415.31 453.11 416.11 451.41
  C 419.36 444.55 429.56 443.89 432.54 451.41
  Q 433.31 453.38 433.20 458.71
  Q 433.19 459.34 433.20 472.46
  A 0.54 0.54 0.0 0 0 433.74 473.00
  L 437.25 473.00
  A 0.52 0.52 0.0 0 0 437.77 472.49
  Q 437.87 460.61 437.73 454.54
  C 437.52 444.91 429.08 439.39 420.14 442.97
  C 418.92 443.46 416.56 445.54 415.81 446.57
  A 0.26 0.26 0.0 0 1 415.34 446.42"
/>
<path stroke="#8b8f98" vector-effect="non-scaling-stroke" d="
  M 469.51 468.56
  C 469.43 474.07 469.29 478.76 464.14 480.69
  C 459.78 482.33 453.40 481.75 450.59 477.34
  A 1.46 1.45 73.7 0 0 449.36 476.66
  L 446.10 476.66
  A 0.62 0.62 0.0 0 0 445.54 477.54
  C 448.74 484.45 455.57 486.36 462.67 485.37
  C 468.80 484.52 472.67 481.09 473.75 475.12
  Q 474.02 473.61 474.02 467.84
  Q 474.02 445.71 474.02 442.92
  A 0.63 0.62 89.5 0 0 473.40 442.30
  L 469.98 442.30
  A 0.53 0.52 90.0 0 0 469.46 442.83
  L 469.46 446.27
  A 0.35 0.35 0.0 0 1 468.86 446.51
  Q 468.68 446.32 468.25 445.85
  C 462.70 439.81 451.79 440.83 446.94 447.21
  C 441.53 454.33 442.61 466.14 450.62 470.87
  C 455.22 473.59 462.93 474.13 467.25 469.86
  Q 468.77 468.35 468.93 468.25
  A 0.37 0.37 0.0 0 1 469.51 468.56"
/>
<path stroke="#8a9098" vector-effect="non-scaling-stroke" d="
  M 485.35 459.48
  L 510.12 459.48
  A 0.27 0.26 -86.3 0 0 510.38 459.24
  C 512.38 442.39 490.88 435.34 482.43 448.85
  C 479.44 453.62 479.33 461.26 482.16 465.88
  C 488.61 476.35 504.12 476.41 509.48 464.37
  A 0.13 0.13 0.0 0 0 509.36 464.18
  L 504.84 464.18
  A 0.51 0.50 -73.1 0 0 504.42 464.41
  Q 501.32 469.15 496.39 469.27
  Q 487.25 469.50 484.84 460.13
  A 0.53 0.52 -7.2 0 1 485.35 459.48"
/>
<path stroke="#8b8f98" vector-effect="non-scaling-stroke" d="
  M 520.85 446.41
  L 520.85 442.88
  A 0.57 0.56 0.0 0 0 520.28 442.32
  L 516.77 442.32
  A 0.53 0.53 0.0 0 0 516.24 442.85
  L 516.23 472.44
  A 0.54 0.54 0.0 0 0 516.76 472.98
  L 520.34 472.98
  A 0.50 0.49 0.0 0 0 520.84 472.49
  Q 520.85 462.53 520.83 456.66
  Q 520.82 453.10 521.62 451.40
  C 524.87 444.54 535.07 443.89 538.05 451.41
  Q 538.82 453.38 538.71 458.71
  Q 538.70 459.34 538.70 472.46
  A 0.54 0.54 0.0 0 0 539.24 473.01
  L 542.75 473.01
  A 0.52 0.52 0.0 0 0 543.27 472.50
  Q 543.38 460.62 543.24 454.55
  C 543.03 444.91 534.60 439.39 525.65 442.96
  C 524.43 443.45 522.07 445.53 521.32 446.56
  A 0.26 0.26 0.0 0 1 520.85 446.41"
/>
<path stroke="#8b8f98" vector-effect="non-scaling-stroke" d="
  M 583.60 457.66
  C 583.60 465.63 588.43 472.39 596.66 473.35
  Q 604.06 474.22 608.81 468.83
  A 0.36 0.36 0.0 0 1 609.44 469.07
  L 609.44 472.45
  A 0.56 0.56 0.0 0 0 610.00 473.01
  L 613.33 473.01
  A 0.71 0.71 0.0 0 0 614.04 472.29
  Q 614.02 465.15 614.03 457.64
  Q 614.01 450.13 614.03 442.99
  A 0.71 0.71 0.0 0 0 613.31 442.27
  L 609.98 442.27
  A 0.56 0.56 0.0 0 0 609.42 442.83
  L 609.43 446.21
  A 0.36 0.36 0.0 0 1 608.80 446.45
  Q 604.04 441.07 596.64 441.95
  C 588.41 442.93 583.59 449.69 583.60 457.66"
/>
<path stroke="#8a9098" vector-effect="non-scaling-stroke" d="
  M 626.57 448.63
  L 626.57 442.85
  A 0.54 0.54 0.0 0 0 626.03 442.31
  L 622.55 442.31
  A 0.58 0.58 0.0 0 0 621.97 442.89
  L 621.97 472.44
  A 0.58 0.58 0.0 0 0 622.55 473.02
  L 626.05 473.02
  A 0.58 0.58 0.0 0 0 626.63 472.43
  Q 626.49 461.09 626.69 458.27
  C 627.13 452.22 631.08 446.37 637.53 446.50
  A 0.68 0.68 0.0 0 0 638.22 445.82
  L 638.22 442.54
  A 0.67 0.66 89.2 0 0 637.54 441.87
  Q 630.56 442.03 627.02 448.74
  A 0.24 0.24 0.0 0 1 626.57 448.63"
/>
<path stroke="#8b8f98" vector-effect="non-scaling-stroke" d="
  M 653.85 457.67
  C 653.86 465.65 658.68 472.40 666.92 473.37
  Q 674.32 474.24 679.07 468.85
  A 0.36 0.36 0.0 0 1 679.69 469.09
  L 679.69 472.47
  A 0.56 0.56 0.0 0 0 680.25 473.03
  L 683.58 473.03
  A 0.71 0.71 0.0 0 0 684.30 472.31
  Q 684.27 465.16 684.28 457.65
  Q 684.26 450.15 684.28 443.00
  A 0.71 0.71 0.0 0 0 683.57 442.28
  L 680.24 442.29
  A 0.56 0.56 0.0 0 0 679.68 442.85
  L 679.68 446.23
  A 0.36 0.36 0.0 0 1 679.05 446.47
  Q 674.29 441.09 666.90 441.97
  C 658.67 442.94 653.85 449.70 653.85 457.67"
/>
<path stroke="#8a9098" vector-effect="non-scaling-stroke" d="
  M 758.34 446.43
  L 758.34 442.90
  A 0.57 0.56 -0.0 0 0 757.77 442.34
  L 754.26 442.34
  A 0.53 0.53 0.0 0 0 753.73 442.87
  L 753.74 472.45
  A 0.54 0.54 0.0 0 0 754.28 472.99
  L 757.85 472.99
  A 0.50 0.49 -0.0 0 0 758.35 472.50
  Q 758.35 462.54 758.33 456.67
  Q 758.31 453.12 759.11 451.42
  C 762.36 444.56 772.56 443.89 775.54 451.41
  Q 776.31 453.38 776.20 458.71
  Q 776.19 459.34 776.20 472.46
  A 0.54 0.54 0.0 0 0 776.74 473.00
  L 780.25 473.00
  A 0.52 0.52 0.0 0 0 780.77 472.49
  Q 780.87 460.61 780.73 454.54
  C 780.52 444.91 772.08 439.39 763.14 442.98
  C 761.92 443.47 759.56 445.55 758.81 446.58
  A 0.26 0.26 0.0 0 1 758.34 446.43"
/>
<path stroke="#8b8f98" vector-effect="non-scaling-stroke" d="
  M 786.60 457.66
  C 786.60 465.64 791.43 472.39 799.66 473.35
  Q 807.06 474.22 811.81 468.83
  A 0.36 0.36 0.0 0 1 812.44 469.07
  L 812.44 472.45
  A 0.56 0.56 0.0 0 0 813.00 473.01
  L 816.33 473.01
  A 0.71 0.71 0.0 0 0 817.04 472.29
  Q 817.01 465.15 817.02 457.64
  Q 817.00 450.14 817.02 442.99
  A 0.71 0.71 0.0 0 0 816.30 442.28
  L 812.98 442.28
  A 0.56 0.56 0.0 0 0 812.42 442.84
  L 812.42 446.22
  A 0.36 0.36 0.0 0 1 811.79 446.46
  Q 807.04 441.08 799.64 441.96
  C 791.41 442.93 786.59 449.69 786.60 457.66"
/>
<path stroke="#8b8f98" vector-effect="non-scaling-stroke" d="
  M 829.59 446.42
  L 829.60 442.88
  A 0.57 0.56 0.0 0 0 829.03 442.32
  L 825.51 442.32
  A 0.53 0.53 0.0 0 0 824.98 442.85
  L 824.97 472.46
  A 0.54 0.54 0.0 0 0 825.51 473.00
  L 829.08 473.00
  A 0.50 0.49 0.0 0 0 829.58 472.51
  Q 829.60 462.55 829.58 456.67
  Q 829.56 453.11 830.36 451.41
  C 833.62 444.55 843.82 443.89 846.80 451.42
  Q 847.57 453.39 847.46 458.72
  Q 847.45 459.35 847.45 472.48
  A 0.54 0.54 0.0 0 0 847.99 473.02
  L 851.50 473.02
  A 0.52 0.52 0.0 0 0 852.03 472.51
  Q 852.13 460.63 851.99 454.55
  C 851.79 444.92 843.35 439.39 834.40 442.97
  C 833.18 443.46 830.81 445.54 830.06 446.57
  A 0.26 0.26 0.0 0 1 829.59 446.42"
/>
<path stroke="#8b8f98" vector-effect="non-scaling-stroke" d="
  M 857.85 457.66
  C 857.84 475.07 880.11 479.47 887.14 464.34
  A 0.70 0.70 0.0 0 0 886.51 463.35
  L 883.44 463.35
  A 1.62 1.61 -75.7 0 0 882.02 464.20
  Q 879.07 469.63 872.86 469.27
  C 866.46 468.90 862.46 463.88 862.47 457.66
  C 862.47 451.45 866.47 446.44 872.86 446.07
  Q 879.08 445.71 882.02 451.14
  A 1.62 1.61 75.7 0 0 883.44 451.99
  L 886.51 451.99
  A 0.70 0.70 0.0 0 0 887.15 451.00
  C 880.12 435.87 857.85 440.26 857.85 457.66"
/>
<path stroke="#8b8f98" vector-effect="non-scaling-stroke" d="
  M 896.35 459.48
  L 921.12 459.48
  A 0.27 0.26 -86.3 0 0 921.38 459.24
  C 923.38 442.39 901.88 435.34 893.43 448.85
  C 890.44 453.62 890.33 461.26 893.16 465.88
  C 899.61 476.35 915.12 476.41 920.48 464.37
  A 0.13 0.13 0.0 0 0 920.36 464.18
  L 915.84 464.18
  A 0.51 0.50 -73.1 0 0 915.42 464.41
  Q 912.32 469.15 907.39 469.27
  Q 898.25 469.50 895.84 460.13
  A 0.53 0.52 -7.2 0 1 896.35 459.48"
/>
<path stroke="#8a9098" vector-effect="non-scaling-stroke" d="
  M 944.58 448.63
  L 944.58 442.86
  A 0.54 0.54 0.0 0 0 944.04 442.32
  L 940.57 442.32
  A 0.58 0.58 0.0 0 0 939.99 442.90
  L 939.97 472.40
  A 0.58 0.58 0.0 0 0 940.55 472.98
  L 944.05 472.98
  A 0.58 0.58 0.0 0 0 944.63 472.40
  Q 944.49 461.07 944.69 458.26
  C 945.13 452.22 949.08 446.38 955.52 446.51
  A 0.68 0.68 0.0 0 0 956.21 445.83
  L 956.21 442.56
  A 0.67 0.66 89.2 0 0 955.53 441.89
  Q 948.56 442.04 945.03 448.74
  A 0.24 0.24 0.0 0 1 944.58 448.63"
/>
<path stroke="#8a9098" vector-effect="non-scaling-stroke" d="
  M 958.34 457.67
  C 958.35 465.65 963.18 472.41 971.41 473.38
  Q 978.81 474.25 983.57 468.85
  A 0.36 0.36 0.0 0 1 984.20 469.10
  L 984.20 472.48
  A 0.56 0.56 0.0 0 0 984.76 473.04
  L 988.09 473.04
  A 0.71 0.71 0.0 0 0 988.80 472.32
  Q 988.78 465.17 988.79 457.66
  Q 988.77 450.15 988.79 443.00
  A 0.71 0.71 0.0 0 0 988.07 442.28
  L 984.74 442.29
  A 0.56 0.56 0.0 0 0 984.18 442.85
  L 984.19 446.23
  A 0.36 0.36 0.0 0 1 983.56 446.47
  Q 978.80 441.08 971.40 441.96
  C 963.16 442.93 958.34 449.70 958.34 457.67"
/>
<path stroke="#8a9098" vector-effect="non-scaling-stroke" d="
  M 1049.60 459.48
  L 1074.37 459.48
  A 0.27 0.26 -86.2 0 0 1074.63 459.24
  C 1076.63 442.39 1055.13 435.34 1046.68 448.85
  C 1043.69 453.62 1043.58 461.26 1046.41 465.87
  C 1052.86 476.34 1068.37 476.41 1073.73 464.37
  A 0.13 0.13 0.0 0 0 1073.61 464.18
  L 1069.09 464.18
  A 0.51 0.50 -73.1 0 0 1068.67 464.41
  Q 1065.57 469.15 1060.64 469.27
  Q 1051.50 469.49 1049.09 460.13
  A 0.53 0.52 -7.2 0 1 1049.60 459.48"
/>
<path stroke="#8b8f98" vector-effect="non-scaling-stroke" d="
  M 1141.8458 441.6801
  A 15.98 15.34 -89.8 0 0 1126.4501 457.6065
  A 15.98 15.34 -89.8 0 0 1141.7342 473.6399
  A 15.98 15.34 -89.8 0 0 1157.1299 457.7135
  A 15.98 15.34 -89.8 0 0 1141.8458 441.6801"
/>
<path stroke="#8b8f98" vector-effect="non-scaling-stroke" d="
  M 1208.35 457.67
  C 1208.35 465.64 1213.18 472.40 1221.41 473.36
  Q 1228.81 474.23 1233.56 468.84
  A 0.36 0.36 0.0 0 1 1234.19 469.08
  L 1234.19 472.46
  A 0.56 0.56 0.0 0 0 1234.75 473.02
  L 1238.08 473.02
  A 0.71 0.71 0.0 0 0 1238.79 472.30
  Q 1238.77 465.16 1238.78 457.65
  Q 1238.76 450.14 1238.78 442.99
  A 0.71 0.71 0.0 0 0 1238.06 442.28
  L 1234.73 442.28
  A 0.56 0.56 0.0 0 0 1234.17 442.84
  L 1234.18 446.22
  A 0.36 0.36 0.0 0 1 1233.55 446.46
  Q 1228.79 441.08 1221.39 441.96
  C 1213.16 442.93 1208.34 449.69 1208.35 457.67"
/>
<path stroke="#8a9098" vector-effect="non-scaling-stroke" d="
  M 647.83 442.74
  A 0.42 0.42 0.0 0 0 647.41 442.32
  L 643.67 442.32
  A 0.42 0.42 0.0 0 0 643.25 442.74
  L 643.25 472.58
  A 0.42 0.42 0.0 0 0 643.67 473.00
  L 647.41 473.00
  A 0.42 0.42 0.0 0 0 647.83 472.58
  L 647.83 442.74"
/>
<path stroke="#8a9098" vector-effect="non-scaling-stroke" d="
  M 745.82 442.76
  A 0.45 0.45 0.0 0 0 745.37 442.31
  L 741.71 442.31
  A 0.45 0.45 0.0 0 0 741.26 442.76
  L 741.26 472.54
  A 0.45 0.45 0.0 0 0 741.71 472.99
  L 745.37 472.99
  A 0.45 0.45 0.0 0 0 745.82 472.54
  L 745.82 442.76"
/>
<path stroke="#8a9098" vector-effect="non-scaling-stroke" d="
  M 931.83 442.74
  A 0.42 0.42 0.0 0 0 931.41 442.32
  L 927.69 442.32
  A 0.42 0.42 0.0 0 0 927.27 442.74
  L 927.27 472.56
  A 0.42 0.42 0.0 0 0 927.69 472.98
  L 931.41 472.98
  A 0.42 0.42 0.0 0 0 931.83 472.56
  L 931.83 442.74"
/>
<path stroke="#8b8f98" vector-effect="non-scaling-stroke" d="
  M 253.16 228.74
  Q 253.21 277.83 253.28 281.67
  A 0.31 0.30 89.1 0 0 253.58 281.97
  Q 267.04 282.00 314.25 281.90
  C 327.90 281.87 340.79 280.38 353.19 274.42
  C 371.87 265.45 378.81 248.64 378.79 228.60
  C 378.77 208.57 371.79 191.78 353.09 182.84
  C 340.68 176.91 327.79 175.45 314.14 175.45
  Q 266.93 175.45 253.47 175.50
  A 0.31 0.30 -89.2 0 0 253.17 175.80
  Q 253.11 179.64 253.16 228.74"
/>
<path stroke="#8b8f98" vector-effect="non-scaling-stroke" d="
  M 614.38 285.41
  C 613.96 273.95 610.70 262.21 603.93 252.91
  Q 593.05 237.99 573.51 233.93
  C 555.54 230.20 535.68 232.94 521.84 244.99
  Q 503.79 260.70 500.72 285.39
  A 0.30 0.30 0.0 0 0 501.02 285.73
  L 614.07 285.73
  A 0.31 0.31 0.0 0 0 614.38 285.41"
/>
<path stroke="#8b8f98" vector-effect="non-scaling-stroke" d="
  M 1023.2916 445.9002
  A 11.76 10.81 -89.7 0 0 1012.4201 457.6034
  A 11.76 10.81 -89.7 0 0 1023.1684 469.4198
  A 11.76 10.81 -89.7 0 0 1034.0399 457.7166
  A 11.76 10.81 -89.7 0 0 1023.2916 445.9002"
/>
<path stroke="#8b8f98" vector-effect="non-scaling-stroke" d="
  M 459.0305 445.9003
  A 11.53 10.84 -89.6 0 0 448.1103 457.3543
  A 11.53 10.84 -89.6 0 0 458.8695 468.9597
  A 11.53 10.84 -89.6 0 0 469.7897 457.5057
  A 11.53 10.84 -89.6 0 0 459.0305 445.9003"
/>
<path stroke="#8a9098" vector-effect="non-scaling-stroke" d="
  M 485.29 455.23
  L 505.35 455.19
  A 0.10 0.10 0.0 0 0 505.45 455.09
  L 505.45 454.99
  A 10.05 8.92 -0.1 0 0 495.38 446.09
  L 495.22 446.09
  A 10.05 8.92 -0.1 0 0 485.19 455.03
  L 485.19 455.13
  A 0.10 0.10 0.0 0 0 485.29 455.23"
/>
<path stroke="#8b8f98" vector-effect="non-scaling-stroke" d="
  M 598.9805 445.9000
  A 11.77 10.83 -89.9 0 0 588.1300 457.6511
  A 11.77 10.83 -89.9 0 0 598.9395 469.4400
  A 11.77 10.83 -89.9 0 0 609.7900 457.6889
  A 11.77 10.83 -89.9 0 0 598.9805 445.9000"
/>
<path stroke="#8b8f98" vector-effect="non-scaling-stroke" d="
  M 669.1589 445.9101
  A 11.77 10.82 -90.2 0 0 658.3801 457.7178
  A 11.77 10.82 -90.2 0 0 669.2411 469.4499
  A 11.77 10.82 -90.2 0 0 680.0199 457.6422
  A 11.77 10.82 -90.2 0 0 669.1589 445.9101"
/>
<path stroke="#8b8f98" vector-effect="non-scaling-stroke" d="
  M 802.0217 445.8902
  A 11.78 10.83 -89.7 0 0 791.1301 457.6133
  A 11.78 10.83 -89.7 0 0 801.8983 469.4498
  A 11.78 10.83 -89.7 0 0 812.7899 457.7267
  A 11.78 10.83 -89.7 0 0 802.0217 445.8902"
/>
<path stroke="#8b8f98" vector-effect="non-scaling-stroke" d="
  M 896.31 455.21
  L 916.31 455.21
  A 0.13 0.13 0.0 0 0 916.44 455.08
  L 916.44 455.00
  A 10.06 8.91 0.0 0 0 906.38 446.09
  L 906.24 446.09
  A 10.06 8.91 -0.0 0 0 896.18 455.00
  L 896.18 455.08
  A 0.13 0.13 0.0 0 0 896.31 455.21"
/>
<path stroke="#8a9098" vector-effect="non-scaling-stroke" d="
  M 973.6389 445.9101
  A 11.76 10.81 -90.2 0 0 962.8701 457.7077
  A 11.76 10.81 -90.2 0 0 973.7211 469.4299
  A 11.76 10.81 -90.2 0 0 984.4899 457.6323
  A 11.76 10.81 -90.2 0 0 973.6389 445.9101"
/>
<path stroke="#8a9098" vector-effect="non-scaling-stroke" d="
  M 1049.51 455.21
  L 1069.59 455.21
  A 0.10 0.10 0.0 0 0 1069.69 455.11
  L 1069.69 455.01
  A 10.06 8.90 -0.0 0 0 1059.63 446.11
  L 1059.47 446.11
  A 10.06 8.90 0.0 0 0 1049.41 455.01
  L 1049.41 455.11
  A 0.10 0.10 0.0 0 0 1049.51 455.21"
/>
<path stroke="#8b8f98" vector-effect="non-scaling-stroke" d="
  M 1141.8206 445.8800
  A 11.79 10.72 -89.9 0 0 1131.0800 457.6513
  A 11.79 10.72 -89.9 0 0 1141.7794 469.4600
  A 11.79 10.72 -89.9 0 0 1152.5200 457.6887
  A 11.79 10.72 -89.9 0 0 1141.8206 445.8800"
/>
<path stroke="#8b8f98" vector-effect="non-scaling-stroke" d="
  M 1223.6795 445.9100
  A 11.76 10.83 -90.1 0 0 1212.8700 457.6889
  A 11.76 10.83 -90.1 0 0 1223.7205 469.4300
  A 11.76 10.83 -90.1 0 0 1234.5300 457.6511
  A 11.76 10.83 -90.1 0 0 1223.6795 445.9100"
/>
</g>
<path fill="#ffffff" d="
  M 1500.00 0.00
  L 1500.00 500.00
  L 0.00 500.00
  L 0.00 0.00
  L 1500.00 0.00
  Z
  M 827.73 71.09
  Q 837.71 82.34 851.14 92.35
  Q 863.21 101.35 872.47 107.20
  Q 855.48 104.63 844.04 101.72
  Q 827.01 97.39 808.57 89.35
  C 787.71 80.25 769.56 67.72 753.04 52.38
  A 0.44 0.44 0.0 0 0 752.31 52.83
  Q 752.98 55.11 753.91 56.87
  C 757.27 63.19 761.94 71.33 767.36 77.92
  Q 776.09 88.55 786.49 97.61
  Q 798.50 108.28 812.52 115.99
  C 819.87 120.03 824.98 123.12 830.58 125.27
  Q 840.09 129.70 853.20 133.27
  Q 873.46 138.79 890.57 141.11
  Q 892.50 141.38 897.03 141.42
  Q 897.43 141.52 897.63 141.65
  A 0.29 0.29 0.0 0 1 897.51 142.17
  Q 880.93 144.88 873.49 145.19
  Q 862.97 145.63 852.50 145.23
  Q 832.01 144.44 810.01 135.53
  Q 808.52 134.93 806.72 134.72
  A 0.34 0.34 0.0 0 0 806.42 135.27
  Q 809.20 138.56 812.16 141.07
  Q 843.77 167.81 885.76 167.76
  Q 899.97 167.74 913.96 165.92
  A 0.25 0.25 0.0 0 1 914.11 166.38
  C 908.67 169.33 903.10 172.38 896.73 174.23
  C 883.47 178.07 870.30 178.44 856.92 176.37
  A 0.38 0.38 0.0 0 0 856.60 177.02
  Q 858.39 178.81 860.79 180.21
  Q 882.61 193.01 907.60 190.37
  Q 914.86 189.61 921.71 188.37
  A 0.26 0.26 0.0 0 1 921.94 188.80
  C 906.46 204.73 895.94 224.28 891.89 246.38
  Q 889.57 259.02 889.50 272.02
  Q 889.81 286.27 892.99 300.21
  A 0.40 0.40 0.0 0 0 893.75 300.26
  Q 894.09 299.32 894.19 298.25
  C 895.80 281.40 898.20 266.02 904.39 251.49
  Q 910.04 238.19 915.74 230.00
  Q 926.97 213.84 945.62 200.46
  Q 958.98 191.80 973.62 185.11
  Q 982.63 181.00 991.60 176.81
  C 1001.53 172.17 1008.88 165.54 1017.27 157.70
  L 1026.67 150.22
  Q 1042.63 140.64 1060.88 145.88
  Q 1064.39 146.89 1068.75 148.46
  Q 1071.53 149.46 1072.06 146.89
  C 1073.63 139.34 1066.36 134.27 1060.76 130.70
  A 4.71 4.67 2.3 0 1 1059.14 128.96
  C 1057.10 125.22 1055.51 122.39 1051.12 120.63
  Q 1045.10 118.22 1031.41 115.57
  Q 1015.14 112.42 1010.69 96.75
  A 0.70 0.70 0.0 0 0 1009.39 96.64
  C 1005.81 104.12 1004.40 110.98 1009.51 118.12
  A 0.54 0.53 68.9 0 1 1009.14 118.96
  Q 1002.10 119.88 993.00 121.53
  Q 988.10 122.42 982.91 124.90
  A 1.95 1.94 -19.9 0 0 981.86 127.13
  Q 982.82 130.93 982.26 135.04
  C 980.97 141.30 977.38 146.19 973.89 151.36
  A 0.13 0.13 0.0 0 1 973.65 151.26
  L 975.06 144.59
  C 975.83 134.19 974.97 127.47 968.08 119.64
  C 961.67 112.36 953.15 108.09 943.99 104.51
  C 931.56 99.64 918.21 95.08 905.13 89.46
  Q 902.12 88.17 890.09 83.12
  Q 879.34 78.60 869.32 72.89
  C 861.53 68.46 853.18 62.22 845.28 56.67
  Q 824.09 40.58 808.61 18.92
  Q 804.51 13.19 799.46 6.04
  A 0.45 0.45 0.0 0 0 798.64 6.34
  C 800.22 21.98 806.03 38.20 813.87 51.40
  Q 820.02 61.78 827.73 71.09
  Z
  M 253.86 319.75
  L 326.62 319.75
  A 0.86 0.86 0.0 0 1 327.36 320.17
  L 374.78 398.99
  A 1.06 1.05 74.2 0 0 375.68 399.50
  L 424.58 399.50
  A 0.35 0.34 72.7 0 0 424.86 398.96
  L 366.61 312.04
  A 0.44 0.44 0.0 0 1 366.81 311.39
  Q 404.00 296.46 415.83 260.30
  C 421.34 243.46 422.13 223.10 418.73 205.53
  Q 413.90 180.49 396.14 163.67
  C 374.52 143.18 342.48 137.55 314.00 137.69
  Q 299.20 137.77 209.44 137.73
  A 0.38 0.38 0.0 0 0 209.06 138.11
  L 209.06 399.20
  A 0.30 0.30 0.0 0 0 209.36 399.50
  L 252.64 399.50
  A 0.52 0.52 0.0 0 0 253.16 398.98
  L 253.16 320.45
  A 0.70 0.70 0.0 0 1 253.86 319.75
  Z
  M 948.18 214.73
  Q 915.72 242.27 909.03 284.17
  Q 904.49 315.53 916.14 344.69
  Q 922.26 360.00 933.20 373.30
  Q 949.92 393.64 972.49 404.26
  C 1018.87 426.10 1071.75 414.69 1106.05 377.01
  Q 1121.52 360.43 1128.68 338.72
  C 1132.78 326.28 1135.34 313.11 1134.57 299.95
  Q 1134.06 281.80 1128.86 266.62
  Q 1125.80 257.70 1118.12 243.43
  A 0.41 0.40 62.1 0 0 1117.58 243.26
  L 1117.56 243.27
  A 0.37 0.36 63.8 0 0 1117.40 243.75
  Q 1120.88 250.80 1122.81 256.98
  Q 1123.53 259.26 1125.59 270.18
  Q 1126.87 276.92 1126.84 283.05
  Q 1126.80 291.25 1126.26 296.00
  Q 1126.02 298.21 1124.67 305.51
  C 1122.40 317.91 1118.39 328.90 1111.48 339.46
  Q 1099.36 358.85 1080.33 371.50
  C 1058.82 384.38 1034.82 389.56 1009.76 385.61
  Q 980.30 380.46 958.54 360.21
  Q 943.65 346.35 935.60 326.90
  Q 929.62 312.79 927.74 297.51
  C 924.34 269.99 934.35 241.68 951.85 220.60
  C 961.35 209.48 973.07 201.57 985.79 194.73
  A 0.28 0.27 -25.6 0 0 985.92 194.38
  L 985.91 194.37
  A 0.28 0.27 -20.9 0 0 985.57 194.22
  Q 965.08 201.19 948.18 214.73
  Z
  M 1216.07 353.82
  L 1161.22 196.20
  A 0.68 0.67 80.1 0 0 1160.59 195.75
  L 1116.70 195.75
  A 0.42 0.42 0.0 0 0 1116.31 196.33
  C 1118.13 200.54 1119.18 204.88 1120.90 209.28
  Q 1136.86 249.88 1144.72 270.63
  C 1145.48 272.62 1146.71 274.65 1147.45 276.56
  Q 1176.91 352.49 1192.97 393.94
  A 0.88 0.88 0.0 0 0 1193.79 394.50
  L 1237.32 394.50
  A 0.53 0.52 -79.4 0 0 1237.81 394.16
  L 1313.84 196.24
  A 0.36 0.36 0.0 0 0 1313.50 195.75
  L 1271.49 195.75
  A 0.69 0.67 -80.3 0 0 1270.85 196.21
  L 1216.71 353.81
  A 0.34 0.34 0.0 0 1 1216.07 353.82
  Z
  M 619.04 344.93
  C 616.90 346.38 613.77 349.93 611.06 352.01
  Q 587.02 370.51 555.71 367.52
  C 526.90 364.76 507.30 344.75 501.53 316.97
  A 0.39 0.39 0.0 0 1 501.91 316.51
  L 651.37 316.51
  A 0.58 0.58 0.0 0 0 651.95 315.97
  C 655.11 275.13 646.79 227.20 605.00 208.21
  Q 593.87 203.16 581.02 201.19
  C 553.20 196.94 524.31 200.82 500.48 216.33
  C 477.98 230.98 463.79 254.16 459.61 280.83
  C 453.30 321.12 465.80 362.10 500.90 384.79
  C 524.14 399.80 552.14 403.46 579.28 399.60
  C 603.33 396.17 625.64 385.09 641.91 367.59
  A 0.49 0.49 0.0 0 0 641.89 366.91
  L 619.93 345.00
  A 0.70 0.69 -40.1 0 0 619.04 344.93
  Z
  M 739.85 237.62
  L 739.85 201.26
  A 0.51 0.50 90.0 0 0 739.35 200.75
  L 697.13 200.75
  A 0.31 0.31 0.0 0 0 696.82 201.06
  L 696.82 399.22
  A 0.28 0.28 0.0 0 0 697.10 399.50
  L 739.40 399.50
  A 0.43 0.43 0.0 0 0 739.83 399.07
  Q 739.91 355.13 739.78 306.12
  Q 739.74 290.59 741.32 283.54
  Q 744.89 267.64 755.78 255.08
  C 763.26 246.46 775.45 239.54 787.50 238.91
  Q 792.18 238.67 797.66 238.56
  Q 805.60 238.41 812.59 240.80
  C 823.65 244.57 834.42 253.23 838.85 264.43
  Q 843.50 276.22 843.54 288.75
  Q 843.75 358.91 843.57 401.12
  A 1.48 1.48 0.0 0 0 845.05 402.61
  L 885.16 402.61
  A 1.12 1.11 7.9 0 0 886.23 401.81
  Q 887.34 397.86 887.33 393.00
  Q 887.22 339.01 887.37 281.59
  C 887.42 265.42 885.66 249.47 879.15 236.60
  C 863.84 206.33 834.03 197.12 801.77 200.08
  Q 783.25 201.78 768.85 209.05
  Q 758.06 214.49 751.53 221.77
  Q 745.73 228.23 740.26 237.73
  A 0.22 0.22 0.0 0 1 739.85 237.62
  Z
  M 555.59 446.44
  L 555.59 430.57
  A 0.52 0.52 0.0 0 0 555.07 430.05
  L 551.46 430.05
  A 0.47 0.47 0.0 0 0 550.99 430.52
  L 550.99 472.45
  A 0.53 0.52 90.0 0 0 551.51 472.98
  L 555.09 472.98
  A 0.52 0.51 -89.4 0 0 555.60 472.47
  Q 555.61 471.74 555.57 457.97
  C 555.56 452.68 556.26 449.01 560.90 446.88
  C 564.93 445.02 569.92 446.12 572.24 450.21
  Q 573.42 452.30 573.43 456.00
  Q 573.45 465.78 573.44 472.39
  A 0.58 0.57 0.5 0 0 574.02 472.97
  L 577.47 472.97
  A 0.56 0.56 0.0 0 0 578.03 472.42
  Q 578.12 462.66 578.00 454.79
  C 577.84 444.64 568.92 439.07 559.75 443.29
  C 558.46 443.89 556.98 445.69 555.94 446.60
  A 0.21 0.21 0.0 0 1 555.59 446.44
  Z
  M 1033.69 469.11
  L 1033.69 472.47
  A 0.53 0.53 0.0 0 0 1034.22 473.00
  L 1037.75 473.00
  A 0.52 0.51 0.0 0 0 1038.27 472.49
  L 1038.27 430.47
  A 0.40 0.40 0.0 0 0 1037.87 430.07
  L 1034.06 430.07
  A 0.39 0.39 0.0 0 0 1033.67 430.46
  L 1033.67 446.37
  A 0.29 0.29 0.0 0 1 1033.17 446.56
  Q 1027.07 439.89 1018.01 442.61
  C 1004.60 446.64 1004.36 467.91 1017.44 472.55
  Q 1026.34 475.70 1033.15 468.89
  A 0.32 0.31 -22.5 0 1 1033.69 469.11
  Z
  M 1167.58 430.49
  A 0.44 0.44 0.0 0 0 1167.14 430.05
  L 1163.42 430.05
  A 0.44 0.44 0.0 0 0 1162.98 430.49
  L 1162.98 472.55
  A 0.44 0.44 0.0 0 0 1163.42 472.99
  L 1167.14 472.99
  A 0.44 0.44 0.0 0 0 1167.58 472.55
  L 1167.58 430.49
  Z
  M 1180.09 446.46
  L 1180.09 430.58
  A 0.52 0.52 0.0 0 0 1179.57 430.06
  L 1175.96 430.06
  A 0.47 0.47 0.0 0 0 1175.48 430.53
  L 1175.48 472.49
  A 0.53 0.52 -90.0 0 0 1176.00 473.02
  L 1179.58 473.02
  A 0.52 0.51 -89.4 0 0 1180.09 472.51
  Q 1180.10 471.78 1180.06 458.00
  C 1180.05 452.71 1180.76 449.03 1185.40 446.90
  C 1189.43 445.04 1194.43 446.15 1196.75 450.24
  Q 1197.93 452.33 1197.94 456.03
  Q 1197.96 465.82 1197.94 472.44
  A 0.58 0.57 0.5 0 0 1198.52 473.02
  L 1201.98 473.02
  A 0.56 0.56 0.0 0 0 1202.54 472.47
  Q 1202.63 462.70 1202.51 454.82
  C 1202.35 444.67 1193.43 439.09 1184.25 443.31
  C 1182.96 443.91 1181.48 445.71 1180.44 446.62
  A 0.21 0.21 0.0 0 1 1180.09 446.46
  Z
  M 648.0210 431.5813
  A 0.44 0.44 0.0 0 0 647.5794 431.1429
  L 643.4795 431.1572
  A 0.44 0.44 0.0 0 0 643.0410 431.5987
  L 643.0590 436.7587
  A 0.44 0.44 0.0 0 0 643.5006 437.1971
  L 647.6005 437.1828
  A 0.44 0.44 0.0 0 0 648.0390 436.7413
  L 648.0210 431.5813
  Z
  M 746.01 431.60
  A 0.41 0.41 0.0 0 0 745.60 431.19
  L 741.46 431.19
  A 0.41 0.41 0.0 0 0 741.05 431.60
  L 741.05 436.78
  A 0.41 0.41 0.0 0 0 741.46 437.19
  L 745.60 437.19
  A 0.41 0.41 0.0 0 0 746.01 436.78
  L 746.01 431.60
  Z
  M 932.0170 431.6970
  A 0.54 0.54 0.0 0 0 931.4742 431.1598
  L 927.5743 431.1803
  A 0.54 0.54 0.0 0 0 927.0371 431.7231
  L 927.0630 436.6630
  A 0.54 0.54 0.0 0 0 927.6058 437.2002
  L 931.5057 437.1797
  A 0.54 0.54 0.0 0 0 932.0429 436.6369
  L 932.0170 431.6970
  Z
  M 374.47 452.68
  Q 374.47 472.19 374.50 472.38
  A 0.70 0.69 -3.9 0 0 375.19 472.97
  L 403.98 472.98
  A 0.36 0.36 0.0 0 0 404.34 472.62
  L 404.34 468.92
  A 0.34 0.34 0.0 0 0 404.00 468.58
  L 379.66 468.58
  A 0.61 0.61 0.0 0 1 379.05 467.97
  L 379.05 455.30
  A 0.39 0.39 0.0 0 1 379.44 454.91
  L 401.20 454.91
  A 0.46 0.46 0.0 0 0 401.66 454.43
  Q 401.62 453.70 401.62 452.69
  Q 401.62 451.67 401.66 450.95
  A 0.46 0.46 0.0 0 0 401.20 450.46
  L 379.44 450.45
  A 0.39 0.39 0.0 0 1 379.05 450.06
  L 379.06 437.39
  A 0.61 0.61 0.0 0 1 379.67 436.78
  L 404.01 436.80
  A 0.34 0.34 0.0 0 0 404.35 436.46
  L 404.35 432.76
  A 0.36 0.36 0.0 0 0 403.99 432.40
  L 375.20 432.39
  A 0.70 0.69 4.0 0 0 374.51 432.98
  Q 374.48 433.17 374.47 452.68
  Z
  M 711.47 450.91
  A 0.41 0.41 0.0 0 1 711.06 450.50
  L 711.06 437.20
  A 0.41 0.41 0.0 0 1 711.47 436.79
  L 735.39 436.79
  A 0.41 0.41 0.0 0 0 735.80 436.38
  L 735.80 432.81
  A 0.41 0.41 0.0 0 0 735.39 432.40
  L 706.89 432.40
  A 0.41 0.41 0.0 0 0 706.48 432.81
  L 706.48 472.58
  A 0.41 0.41 0.0 0 0 706.89 472.99
  L 710.65 472.99
  A 0.41 0.41 0.0 0 0 711.06 472.58
  L 711.06 455.80
  A 0.41 0.41 0.0 0 1 711.47 455.39
  L 732.69 455.39
  A 0.41 0.41 0.0 0 0 733.10 454.98
  L 733.10 451.32
  A 0.41 0.41 0.0 0 0 732.69 450.91
  L 711.47 450.91
  Z
  M 1099.69 436.78
  L 1123.41 436.80
  A 0.39 0.39 0.0 0 0 1123.80 436.40
  L 1123.79 432.79
  A 0.40 0.40 0.0 0 0 1123.39 432.40
  L 1094.72 432.40
  A 0.25 0.24 -90.0 0 0 1094.48 432.65
  L 1094.48 472.56
  A 0.40 0.40 0.0 0 0 1094.88 472.96
  L 1098.64 473.00
  A 0.41 0.40 -89.3 0 0 1099.05 472.59
  L 1099.06 455.74
  A 0.35 0.34 -89.2 0 1 1099.41 455.39
  L 1120.60 455.39
  A 0.49 0.49 0.0 0 0 1121.09 454.90
  L 1121.11 451.42
  A 0.51 0.51 0.0 0 0 1120.60 450.91
  L 1099.73 450.92
  A 0.67 0.67 0.0 0 1 1099.06 450.25
  L 1099.05 437.43
  A 0.65 0.64 -90.0 0 1 1099.69 436.78
  Z
  M 415.34 446.42
  L 415.34 442.89
  A 0.57 0.56 -0.0 0 0 414.77 442.33
  L 411.26 442.33
  A 0.53 0.53 0.0 0 0 410.73 442.86
  L 410.73 472.45
  A 0.54 0.54 0.0 0 0 411.27 472.99
  L 414.84 472.99
  A 0.50 0.49 -0.0 0 0 415.34 472.50
  Q 415.35 462.54 415.33 456.67
  Q 415.31 453.11 416.11 451.41
  C 419.36 444.55 429.56 443.89 432.54 451.41
  Q 433.31 453.38 433.20 458.71
  Q 433.19 459.34 433.20 472.46
  A 0.54 0.54 0.0 0 0 433.74 473.00
  L 437.25 473.00
  A 0.52 0.52 0.0 0 0 437.77 472.49
  Q 437.87 460.61 437.73 454.54
  C 437.52 444.91 429.08 439.39 420.14 442.97
  C 418.92 443.46 416.56 445.54 415.81 446.57
  A 0.26 0.26 0.0 0 1 415.34 446.42
  Z
  M 469.51 468.56
  C 469.43 474.07 469.29 478.76 464.14 480.69
  C 459.78 482.33 453.40 481.75 450.59 477.34
  A 1.46 1.45 73.7 0 0 449.36 476.66
  L 446.10 476.66
  A 0.62 0.62 0.0 0 0 445.54 477.54
  C 448.74 484.45 455.57 486.36 462.67 485.37
  C 468.80 484.52 472.67 481.09 473.75 475.12
  Q 474.02 473.61 474.02 467.84
  Q 474.02 445.71 474.02 442.92
  A 0.63 0.62 89.5 0 0 473.40 442.30
  L 469.98 442.30
  A 0.53 0.52 90.0 0 0 469.46 442.83
  L 469.46 446.27
  A 0.35 0.35 0.0 0 1 468.86 446.51
  Q 468.68 446.32 468.25 445.85
  C 462.70 439.81 451.79 440.83 446.94 447.21
  C 441.53 454.33 442.61 466.14 450.62 470.87
  C 455.22 473.59 462.93 474.13 467.25 469.86
  Q 468.77 468.35 468.93 468.25
  A 0.37 0.37 0.0 0 1 469.51 468.56
  Z
  M 485.35 459.48
  L 510.12 459.48
  A 0.27 0.26 -86.3 0 0 510.38 459.24
  C 512.38 442.39 490.88 435.34 482.43 448.85
  C 479.44 453.62 479.33 461.26 482.16 465.88
  C 488.61 476.35 504.12 476.41 509.48 464.37
  A 0.13 0.13 0.0 0 0 509.36 464.18
  L 504.84 464.18
  A 0.51 0.50 -73.1 0 0 504.42 464.41
  Q 501.32 469.15 496.39 469.27
  Q 487.25 469.50 484.84 460.13
  A 0.53 0.52 -7.2 0 1 485.35 459.48
  Z
  M 520.85 446.41
  L 520.85 442.88
  A 0.57 0.56 0.0 0 0 520.28 442.32
  L 516.77 442.32
  A 0.53 0.53 0.0 0 0 516.24 442.85
  L 516.23 472.44
  A 0.54 0.54 0.0 0 0 516.76 472.98
  L 520.34 472.98
  A 0.50 0.49 0.0 0 0 520.84 472.49
  Q 520.85 462.53 520.83 456.66
  Q 520.82 453.10 521.62 451.40
  C 524.87 444.54 535.07 443.89 538.05 451.41
  Q 538.82 453.38 538.71 458.71
  Q 538.70 459.34 538.70 472.46
  A 0.54 0.54 0.0 0 0 539.24 473.01
  L 542.75 473.01
  A 0.52 0.52 0.0 0 0 543.27 472.50
  Q 543.38 460.62 543.24 454.55
  C 543.03 444.91 534.60 439.39 525.65 442.96
  C 524.43 443.45 522.07 445.53 521.32 446.56
  A 0.26 0.26 0.0 0 1 520.85 446.41
  Z
  M 583.60 457.66
  C 583.60 465.63 588.43 472.39 596.66 473.35
  Q 604.06 474.22 608.81 468.83
  A 0.36 0.36 0.0 0 1 609.44 469.07
  L 609.44 472.45
  A 0.56 0.56 0.0 0 0 610.00 473.01
  L 613.33 473.01
  A 0.71 0.71 0.0 0 0 614.04 472.29
  Q 614.02 465.15 614.03 457.64
  Q 614.01 450.13 614.03 442.99
  A 0.71 0.71 0.0 0 0 613.31 442.27
  L 609.98 442.27
  A 0.56 0.56 0.0 0 0 609.42 442.83
  L 609.43 446.21
  A 0.36 0.36 0.0 0 1 608.80 446.45
  Q 604.04 441.07 596.64 441.95
  C 588.41 442.93 583.59 449.69 583.60 457.66
  Z
  M 626.57 448.63
  L 626.57 442.85
  A 0.54 0.54 0.0 0 0 626.03 442.31
  L 622.55 442.31
  A 0.58 0.58 0.0 0 0 621.97 442.89
  L 621.97 472.44
  A 0.58 0.58 0.0 0 0 622.55 473.02
  L 626.05 473.02
  A 0.58 0.58 0.0 0 0 626.63 472.43
  Q 626.49 461.09 626.69 458.27
  C 627.13 452.22 631.08 446.37 637.53 446.50
  A 0.68 0.68 0.0 0 0 638.22 445.82
  L 638.22 442.54
  A 0.67 0.66 89.2 0 0 637.54 441.87
  Q 630.56 442.03 627.02 448.74
  A 0.24 0.24 0.0 0 1 626.57 448.63
  Z
  M 653.85 457.67
  C 653.86 465.65 658.68 472.40 666.92 473.37
  Q 674.32 474.24 679.07 468.85
  A 0.36 0.36 0.0 0 1 679.69 469.09
  L 679.69 472.47
  A 0.56 0.56 0.0 0 0 680.25 473.03
  L 683.58 473.03
  A 0.71 0.71 0.0 0 0 684.30 472.31
  Q 684.27 465.16 684.28 457.65
  Q 684.26 450.15 684.28 443.00
  A 0.71 0.71 0.0 0 0 683.57 442.28
  L 680.24 442.29
  A 0.56 0.56 0.0 0 0 679.68 442.85
  L 679.68 446.23
  A 0.36 0.36 0.0 0 1 679.05 446.47
  Q 674.29 441.09 666.90 441.97
  C 658.67 442.94 653.85 449.70 653.85 457.67
  Z
  M 758.34 446.43
  L 758.34 442.90
  A 0.57 0.56 -0.0 0 0 757.77 442.34
  L 754.26 442.34
  A 0.53 0.53 0.0 0 0 753.73 442.87
  L 753.74 472.45
  A 0.54 0.54 0.0 0 0 754.28 472.99
  L 757.85 472.99
  A 0.50 0.49 -0.0 0 0 758.35 472.50
  Q 758.35 462.54 758.33 456.67
  Q 758.31 453.12 759.11 451.42
  C 762.36 444.56 772.56 443.89 775.54 451.41
  Q 776.31 453.38 776.20 458.71
  Q 776.19 459.34 776.20 472.46
  A 0.54 0.54 0.0 0 0 776.74 473.00
  L 780.25 473.00
  A 0.52 0.52 0.0 0 0 780.77 472.49
  Q 780.87 460.61 780.73 454.54
  C 780.52 444.91 772.08 439.39 763.14 442.98
  C 761.92 443.47 759.56 445.55 758.81 446.58
  A 0.26 0.26 0.0 0 1 758.34 446.43
  Z
  M 786.60 457.66
  C 786.60 465.64 791.43 472.39 799.66 473.35
  Q 807.06 474.22 811.81 468.83
  A 0.36 0.36 0.0 0 1 812.44 469.07
  L 812.44 472.45
  A 0.56 0.56 0.0 0 0 813.00 473.01
  L 816.33 473.01
  A 0.71 0.71 0.0 0 0 817.04 472.29
  Q 817.01 465.15 817.02 457.64
  Q 817.00 450.14 817.02 442.99
  A 0.71 0.71 0.0 0 0 816.30 442.28
  L 812.98 442.28
  A 0.56 0.56 0.0 0 0 812.42 442.84
  L 812.42 446.22
  A 0.36 0.36 0.0 0 1 811.79 446.46
  Q 807.04 441.08 799.64 441.96
  C 791.41 442.93 786.59 449.69 786.60 457.66
  Z
  M 829.59 446.42
  L 829.60 442.88
  A 0.57 0.56 0.0 0 0 829.03 442.32
  L 825.51 442.32
  A 0.53 0.53 0.0 0 0 824.98 442.85
  L 824.97 472.46
  A 0.54 0.54 0.0 0 0 825.51 473.00
  L 829.08 473.00
  A 0.50 0.49 0.0 0 0 829.58 472.51
  Q 829.60 462.55 829.58 456.67
  Q 829.56 453.11 830.36 451.41
  C 833.62 444.55 843.82 443.89 846.80 451.42
  Q 847.57 453.39 847.46 458.72
  Q 847.45 459.35 847.45 472.48
  A 0.54 0.54 0.0 0 0 847.99 473.02
  L 851.50 473.02
  A 0.52 0.52 0.0 0 0 852.03 472.51
  Q 852.13 460.63 851.99 454.55
  C 851.79 444.92 843.35 439.39 834.40 442.97
  C 833.18 443.46 830.81 445.54 830.06 446.57
  A 0.26 0.26 0.0 0 1 829.59 446.42
  Z
  M 857.85 457.66
  C 857.84 475.07 880.11 479.47 887.14 464.34
  A 0.70 0.70 0.0 0 0 886.51 463.35
  L 883.44 463.35
  A 1.62 1.61 -75.7 0 0 882.02 464.20
  Q 879.07 469.63 872.86 469.27
  C 866.46 468.90 862.46 463.88 862.47 457.66
  C 862.47 451.45 866.47 446.44 872.86 446.07
  Q 879.08 445.71 882.02 451.14
  A 1.62 1.61 75.7 0 0 883.44 451.99
  L 886.51 451.99
  A 0.70 0.70 0.0 0 0 887.15 451.00
  C 880.12 435.87 857.85 440.26 857.85 457.66
  Z
  M 896.35 459.48
  L 921.12 459.48
  A 0.27 0.26 -86.3 0 0 921.38 459.24
  C 923.38 442.39 901.88 435.34 893.43 448.85
  C 890.44 453.62 890.33 461.26 893.16 465.88
  C 899.61 476.35 915.12 476.41 920.48 464.37
  A 0.13 0.13 0.0 0 0 920.36 464.18
  L 915.84 464.18
  A 0.51 0.50 -73.1 0 0 915.42 464.41
  Q 912.32 469.15 907.39 469.27
  Q 898.25 469.50 895.84 460.13
  A 0.53 0.52 -7.2 0 1 896.35 459.48
  Z
  M 944.58 448.63
  L 944.58 442.86
  A 0.54 0.54 0.0 0 0 944.04 442.32
  L 940.57 442.32
  A 0.58 0.58 0.0 0 0 939.99 442.90
  L 939.97 472.40
  A 0.58 0.58 0.0 0 0 940.55 472.98
  L 944.05 472.98
  A 0.58 0.58 0.0 0 0 944.63 472.40
  Q 944.49 461.07 944.69 458.26
  C 945.13 452.22 949.08 446.38 955.52 446.51
  A 0.68 0.68 0.0 0 0 956.21 445.83
  L 956.21 442.56
  A 0.67 0.66 89.2 0 0 955.53 441.89
  Q 948.56 442.04 945.03 448.74
  A 0.24 0.24 0.0 0 1 944.58 448.63
  Z
  M 958.34 457.67
  C 958.35 465.65 963.18 472.41 971.41 473.38
  Q 978.81 474.25 983.57 468.85
  A 0.36 0.36 0.0 0 1 984.20 469.10
  L 984.20 472.48
  A 0.56 0.56 0.0 0 0 984.76 473.04
  L 988.09 473.04
  A 0.71 0.71 0.0 0 0 988.80 472.32
  Q 988.78 465.17 988.79 457.66
  Q 988.77 450.15 988.79 443.00
  A 0.71 0.71 0.0 0 0 988.07 442.28
  L 984.74 442.29
  A 0.56 0.56 0.0 0 0 984.18 442.85
  L 984.19 446.23
  A 0.36 0.36 0.0 0 1 983.56 446.47
  Q 978.80 441.08 971.40 441.96
  C 963.16 442.93 958.34 449.70 958.34 457.67
  Z
  M 1049.60 459.48
  L 1074.37 459.48
  A 0.27 0.26 -86.2 0 0 1074.63 459.24
  C 1076.63 442.39 1055.13 435.34 1046.68 448.85
  C 1043.69 453.62 1043.58 461.26 1046.41 465.87
  C 1052.86 476.34 1068.37 476.41 1073.73 464.37
  A 0.13 0.13 0.0 0 0 1073.61 464.18
  L 1069.09 464.18
  A 0.51 0.50 -73.1 0 0 1068.67 464.41
  Q 1065.57 469.15 1060.64 469.27
  Q 1051.50 469.49 1049.09 460.13
  A 0.53 0.52 -7.2 0 1 1049.60 459.48
  Z
  M 1141.8458 441.6801
  A 15.98 15.34 -89.8 0 0 1126.4501 457.6065
  A 15.98 15.34 -89.8 0 0 1141.7342 473.6399
  A 15.98 15.34 -89.8 0 0 1157.1299 457.7135
  A 15.98 15.34 -89.8 0 0 1141.8458 441.6801
  Z
  M 1208.35 457.67
  C 1208.35 465.64 1213.18 472.40 1221.41 473.36
  Q 1228.81 474.23 1233.56 468.84
  A 0.36 0.36 0.0 0 1 1234.19 469.08
  L 1234.19 472.46
  A 0.56 0.56 0.0 0 0 1234.75 473.02
  L 1238.08 473.02
  A 0.71 0.71 0.0 0 0 1238.79 472.30
  Q 1238.77 465.16 1238.78 457.65
  Q 1238.76 450.14 1238.78 442.99
  A 0.71 0.71 0.0 0 0 1238.06 442.28
  L 1234.73 442.28
  A 0.56 0.56 0.0 0 0 1234.17 442.84
  L 1234.18 446.22
  A 0.36 0.36 0.0 0 1 1233.55 446.46
  Q 1228.79 441.08 1221.39 441.96
  C 1213.16 442.93 1208.34 449.69 1208.35 457.67
  Z
  M 647.83 442.74
  A 0.42 0.42 0.0 0 0 647.41 442.32
  L 643.67 442.32
  A 0.42 0.42 0.0 0 0 643.25 442.74
  L 643.25 472.58
  A 0.42 0.42 0.0 0 0 643.67 473.00
  L 647.41 473.00
  A 0.42 0.42 0.0 0 0 647.83 472.58
  L 647.83 442.74
  Z
  M 745.82 442.76
  A 0.45 0.45 0.0 0 0 745.37 442.31
  L 741.71 442.31
  A 0.45 0.45 0.0 0 0 741.26 442.76
  L 741.26 472.54
  A 0.45 0.45 0.0 0 0 741.71 472.99
  L 745.37 472.99
  A 0.45 0.45 0.0 0 0 745.82 472.54
  L 745.82 442.76
  Z
  M 931.83 442.74
  A 0.42 0.42 0.0 0 0 931.41 442.32
  L 927.69 442.32
  A 0.42 0.42 0.0 0 0 927.27 442.74
  L 927.27 472.56
  A 0.42 0.42 0.0 0 0 927.69 472.98
  L 931.41 472.98
  A 0.42 0.42 0.0 0 0 931.83 472.56
  L 931.83 442.74
  Z"
/>
<path fill="#a6e234" d="
  M 845.28 56.67
  Q 839.96 54.65 835.26 51.45
  Q 835.24 51.43 835.20 51.47
  A 0.10 0.09 40.9 0 0 835.22 51.61
  Q 853.51 66.68 872.70 79.82
  A 0.16 0.16 0.0 0 1 872.55 80.10
  C 867.17 77.79 861.88 74.77 857.29 71.04
  Q 851.73 66.53 846.12 62.16
  Q 841.90 58.88 838.05 59.20
  Q 832.61 59.66 827.35 59.42
  A 0.84 0.84 0.0 0 0 826.52 60.54
  L 829.73 69.51
  L 827.73 71.09
  Q 820.02 61.78 813.87 51.40
  C 806.03 38.20 800.22 21.98 798.64 6.34
  A 0.45 0.45 0.0 0 1 799.46 6.04
  Q 804.51 13.19 808.61 18.92
  Q 824.09 40.58 845.28 56.67
  Z"
/>
<path fill="#90dc32" d="
  M 845.28 56.67
  C 853.18 62.22 861.53 68.46 869.32 72.89
  Q 879.34 78.60 890.09 83.12
  Q 902.12 88.17 905.13 89.46
  C 918.21 95.08 931.56 99.64 943.99 104.51
  C 953.15 108.09 961.67 112.36 968.08 119.64
  C 974.97 127.47 975.83 134.19 975.06 144.59
  Q 968.30 130.67 954.73 123.70
  Q 947.51 120.00 938.67 116.32
  C 925.99 111.04 910.55 106.71 897.83 102.07
  Q 886.54 97.96 874.51 93.87
  Q 860.00 88.93 853.31 85.56
  Q 843.15 80.45 833.93 73.65
  Q 831.58 71.92 829.73 69.51
  L 826.52 60.54
  A 0.84 0.84 0.0 0 1 827.35 59.42
  Q 832.61 59.66 838.05 59.20
  Q 841.90 58.88 846.12 62.16
  Q 851.73 66.53 857.29 71.04
  C 861.88 74.77 867.17 77.79 872.55 80.10
  A 0.16 0.16 0.0 0 0 872.70 79.82
  Q 853.51 66.68 835.22 51.61
  A 0.10 0.09 40.9 0 1 835.20 51.47
  Q 835.24 51.43 835.26 51.45
  Q 839.96 54.65 845.28 56.67
  Z"
/>
<path fill="#69cd4a" d="
  M 872.47 107.20
  Q 882.52 113.53 894.39 117.36
  Q 905.94 121.08 917.49 124.88
  C 928.26 128.43 938.81 134.06 951.04 141.26
  Q 971.51 153.33 982.24 158.83
  C 990.15 162.89 997.45 165.29 1006.09 162.62
  Q 1010.90 161.14 1017.27 157.70
  C 1008.88 165.54 1001.53 172.17 991.60 176.81
  Q 982.63 181.00 973.62 185.11
  Q 958.98 191.80 945.62 200.46
  Q 945.83 199.71 945.79 198.94
  L 948.36 195.59
  A 1.01 0.86 77.1 0 0 948.50 195.32
  Q 948.86 194.29 950.16 192.42
  C 951.68 190.25 953.75 186.19 954.43 182.93
  C 958.20 164.84 950.15 151.19 935.34 141.92
  C 924.51 135.15 913.25 132.27 901.02 129.28
  Q 898.33 128.47 895.55 127.96
  Q 882.60 125.61 866.12 121.87
  C 862.70 121.09 859.26 119.85 856.00 119.07
  Q 844.96 116.43 834.32 112.71
  C 825.41 109.55 819.98 107.90 813.41 104.17
  Q 808.29 101.25 805.39 100.32
  Q 796.22 97.38 786.49 97.61
  Q 776.09 88.55 767.36 77.92
  C 761.94 71.33 757.27 63.19 753.91 56.87
  Q 752.98 55.11 752.31 52.83
  A 0.44 0.44 0.0 0 1 753.04 52.38
  C 769.56 67.72 787.71 80.25 808.57 89.35
  Q 827.01 97.39 844.04 101.72
  Q 855.48 104.63 872.47 107.20
  Z"
/>
<path fill="#7ed53a" d="
  M 829.73 69.51
  Q 831.58 71.92 833.93 73.65
  Q 843.15 80.45 853.31 85.56
  Q 860.00 88.93 874.51 93.87
  Q 886.54 97.96 897.83 102.07
  C 910.55 106.71 925.99 111.04 938.67 116.32
  Q 947.51 120.00 954.73 123.70
  Q 968.30 130.67 975.06 144.59
  L 973.65 151.26
  A 0.13 0.13 0.0 0 0 973.89 151.36
  C 977.38 146.19 980.97 141.30 982.26 135.04
  C 990.49 137.00 995.92 140.25 1004.36 144.91
  Q 1014.59 150.55 1026.67 150.22
  L 1017.27 157.70
  Q 1010.90 161.14 1006.09 162.62
  C 997.45 165.29 990.15 162.89 982.24 158.83
  Q 971.51 153.33 951.04 141.26
  C 938.81 134.06 928.26 128.43 917.49 124.88
  Q 905.94 121.08 894.39 117.36
  Q 882.52 113.53 872.47 107.20
  Q 863.21 101.35 851.14 92.35
  Q 837.71 82.34 827.73 71.09
  L 829.73 69.51
  Z"
/>
<path fill="#4cbb56" d="
  M 834.32 112.71
  Q 830.70 118.33 830.58 125.27
  C 824.98 123.12 819.87 120.03 812.52 115.99
  Q 798.50 108.28 786.49 97.61
  Q 796.22 97.38 805.39 100.32
  Q 808.29 101.25 813.41 104.17
  C 819.98 107.90 825.41 109.55 834.32 112.71
  Z"
/>
<path fill="#9fe229" d="
  M 1026.67 150.22
  Q 1014.59 150.55 1004.36 144.91
  C 995.92 140.25 990.49 137.00 982.26 135.04
  Q 982.82 130.93 981.86 127.13
  A 1.95 1.94 -19.9 0 1 982.91 124.90
  Q 988.10 122.42 993.00 121.53
  Q 1002.10 119.88 1009.14 118.96
  A 0.54 0.53 68.9 0 0 1009.51 118.12
  C 1004.40 110.98 1005.81 104.12 1009.39 96.64
  A 0.70 0.70 0.0 0 1 1010.69 96.75
  Q 1015.14 112.42 1031.41 115.57
  Q 1045.10 118.22 1051.12 120.63
  C 1055.51 122.39 1057.10 125.22 1059.14 128.96
  A 4.71 4.67 2.3 0 0 1060.76 130.70
  C 1066.36 134.27 1073.63 139.34 1072.06 146.89
  Q 1071.53 149.46 1068.75 148.46
  Q 1064.39 146.89 1060.88 145.88
  Q 1042.63 140.64 1026.67 150.22
  Z"
/>
<path fill="#28ae5a" d="
  M 834.32 112.71
  Q 844.96 116.43 856.00 119.07
  C 859.26 119.85 862.70 121.09 866.12 121.87
  Q 882.60 125.61 895.55 127.96
  Q 898.33 128.47 901.02 129.28
  L 897.98 141.23
  Q 897.39 141.09 897.03 141.42
  Q 892.50 141.38 890.57 141.11
  Q 873.46 138.79 853.20 133.27
  Q 840.09 129.70 830.58 125.27
  Q 830.70 118.33 834.32 112.71
  Z"
/>
<path fill="#05a562" d="
  M 945.79 198.94
  Q 939.62 202.85 936.94 203.71
  Q 933.43 204.84 932.08 204.51
  Q 924.89 202.76 918.80 206.52
  Q 920.64 202.29 922.90 198.23
  Q 926.48 191.81 927.07 189.97
  C 929.23 183.18 929.56 174.02 925.97 167.42
  Q 923.16 162.25 921.64 160.78
  Q 915.01 154.38 897.98 141.23
  L 901.02 129.28
  C 913.25 132.27 924.51 135.15 935.34 141.92
  C 950.15 151.19 958.20 164.84 954.43 182.93
  C 953.75 186.19 951.68 190.25 950.16 192.42
  Q 948.86 194.29 948.50 195.32
  A 1.01 0.86 77.1 0 1 948.36 195.59
  L 945.79 198.94
  Z"
/>
<path fill="#1bab66" d="
  M 897.03 141.42
  Q 897.39 141.09 897.98 141.23
  Q 915.01 154.38 921.64 160.78
  Q 923.16 162.25 925.97 167.42
  C 929.56 174.02 929.23 183.18 927.07 189.97
  Q 926.48 191.81 922.90 198.23
  Q 920.64 202.29 918.80 206.52
  Q 916.48 210.58 908.09 224.12
  C 904.27 230.29 900.84 237.87 899.06 246.42
  C 897.31 254.77 895.45 264.52 889.50 272.02
  Q 889.57 259.02 891.89 246.38
  C 895.94 224.28 906.46 204.73 921.94 188.80
  A 0.26 0.26 0.0 0 0 921.71 188.37
  Q 914.86 189.61 907.60 190.37
  Q 882.61 193.01 860.79 180.21
  Q 858.39 178.81 856.60 177.02
  A 0.38 0.38 0.0 0 1 856.92 176.37
  C 870.30 178.44 883.47 178.07 896.73 174.23
  C 903.10 172.38 908.67 169.33 914.11 166.38
  A 0.25 0.25 0.0 0 0 913.96 165.92
  Q 899.97 167.74 885.76 167.76
  Q 843.77 167.81 812.16 141.07
  Q 809.20 138.56 806.42 135.27
  A 0.34 0.34 0.0 0 1 806.72 134.72
  Q 808.52 134.93 810.01 135.53
  Q 832.01 144.44 852.50 145.23
  Q 862.97 145.63 873.49 145.19
  Q 880.93 144.88 897.51 142.17
  A 0.29 0.29 0.0 0 0 897.63 141.65
  Q 897.43 141.52 897.03 141.42
  Z"
/>
<path fill="#161f30" d="
  M 253.16 320.45
  L 253.16 398.98
  A 0.52 0.52 0.0 0 1 252.64 399.50
  L 209.36 399.50
  A 0.30 0.30 0.0 0 1 209.06 399.20
  L 209.06 138.11
  A 0.38 0.38 0.0 0 1 209.44 137.73
  Q 299.20 137.77 314.00 137.69
  C 342.48 137.55 374.52 143.18 396.14 163.67
  Q 413.90 180.49 418.73 205.53
  C 422.13 223.10 421.34 243.46 415.83 260.30
  Q 404.00 296.46 366.81 311.39
  A 0.44 0.44 0.0 0 0 366.61 312.04
  L 424.86 398.96
  A 0.35 0.34 72.7 0 1 424.58 399.50
  L 375.68 399.50
  A 1.06 1.05 74.2 0 1 374.78 398.99
  L 327.36 320.17
  A 0.86 0.86 0.0 0 0 326.62 319.75
  L 253.86 319.75
  A 0.70 0.70 0.0 0 0 253.16 320.45
  Z
  M 253.16 228.74
  Q 253.21 277.83 253.28 281.67
  A 0.31 0.30 89.1 0 0 253.58 281.97
  Q 267.04 282.00 314.25 281.90
  C 327.90 281.87 340.79 280.38 353.19 274.42
  C 371.87 265.45 378.81 248.64 378.79 228.60
  C 378.77 208.57 371.79 191.78 353.09 182.84
  C 340.68 176.91 327.79 175.45 314.14 175.45
  Q 266.93 175.45 253.47 175.50
  A 0.31 0.30 -89.2 0 0 253.17 175.80
  Q 253.11 179.64 253.16 228.74
  Z"
/>
<path fill="#ffffff" d="
  M 378.79 228.60
  C 378.81 248.64 371.87 265.45 353.19 274.42
  C 340.79 280.38 327.90 281.87 314.25 281.90
  Q 267.04 282.00 253.58 281.97
  A 0.31 0.30 89.1 0 1 253.28 281.67
  Q 253.21 277.83 253.16 228.74
  Q 253.11 179.64 253.17 175.80
  A 0.31 0.30 -89.2 0 1 253.47 175.50
  Q 266.93 175.45 314.14 175.45
  C 327.79 175.45 340.68 176.91 353.09 182.84
  C 371.79 191.78 378.77 208.57 378.79 228.60
  Z"
/>
<path fill="#4c9c70" d="
  M 951.85 220.60
  L 948.18 214.73
  Q 965.08 201.19 985.57 194.22
  A 0.28 0.27 -20.9 0 1 985.91 194.37
  L 985.92 194.38
  A 0.28 0.27 -25.6 0 1 985.79 194.73
  C 973.07 201.57 961.35 209.48 951.85 220.60
  Z"
/>
<path fill="#161f30" d="
  M 1216.07 353.82
  A 0.34 0.34 0.0 0 0 1216.71 353.81
  L 1270.85 196.21
  A 0.69 0.67 -80.3 0 1 1271.49 195.75
  L 1313.50 195.75
  A 0.36 0.36 0.0 0 1 1313.84 196.24
  L 1237.81 394.16
  A 0.53 0.52 -79.4 0 1 1237.32 394.50
  L 1193.79 394.50
  A 0.88 0.88 0.0 0 1 1192.97 393.94
  Q 1176.91 352.49 1147.45 276.56
  C 1146.71 274.65 1145.48 272.62 1144.72 270.63
  Q 1136.86 249.88 1120.90 209.28
  C 1119.18 204.88 1118.13 200.54 1116.31 196.33
  A 0.42 0.42 0.0 0 1 1116.70 195.75
  L 1160.59 195.75
  A 0.68 0.67 80.1 0 1 1161.22 196.20
  L 1216.07 353.82
  Z"
/>
<path fill="#0b8061" d="
  M 945.79 198.94
  Q 945.83 199.71 945.62 200.46
  Q 926.97 213.84 915.74 230.00
  Q 910.04 238.19 904.39 251.49
  C 898.20 266.02 895.80 281.40 894.19 298.25
  Q 894.09 299.32 893.75 300.26
  A 0.40 0.40 0.0 0 1 892.99 300.21
  Q 889.81 286.27 889.50 272.02
  C 895.45 264.52 897.31 254.77 899.06 246.42
  C 900.84 237.87 904.27 230.29 908.09 224.12
  Q 916.48 210.58 918.80 206.52
  Q 924.89 202.76 932.08 204.51
  Q 933.43 204.84 936.94 203.71
  Q 939.62 202.85 945.79 198.94
  Z"
/>
<path fill="#161f30" d="
  M 619.93 345.00
  L 641.89 366.91
  A 0.49 0.49 0.0 0 1 641.91 367.59
  C 625.64 385.09 603.33 396.17 579.28 399.60
  C 552.14 403.46 524.14 399.80 500.90 384.79
  C 465.80 362.10 453.30 321.12 459.61 280.83
  C 463.79 254.16 477.98 230.98 500.48 216.33
  C 524.31 200.82 553.20 196.94 581.02 201.19
  Q 593.87 203.16 605.00 208.21
  C 646.79 227.20 655.11 275.13 651.95 315.97
  A 0.58 0.58 0.0 0 1 651.37 316.51
  L 501.91 316.51
  A 0.39 0.39 0.0 0 0 501.53 316.97
  C 507.30 344.75 526.90 364.76 555.71 367.52
  Q 587.02 370.51 611.06 352.01
  C 613.77 349.93 616.90 346.38 619.04 344.93
  A 0.70 0.69 -40.1 0 1 619.93 345.00
  Z
  M 614.38 285.41
  C 613.96 273.95 610.70 262.21 603.93 252.91
  Q 593.05 237.99 573.51 233.93
  C 555.54 230.20 535.68 232.94 521.84 244.99
  Q 503.79 260.70 500.72 285.39
  A 0.30 0.30 0.0 0 0 501.02 285.73
  L 614.07 285.73
  A 0.31 0.31 0.0 0 0 614.38 285.41
  Z"
/>
<path fill="#161f30" d="
  M 739.85 237.62
  A 0.22 0.22 0.0 0 0 740.26 237.73
  Q 745.73 228.23 751.53 221.77
  Q 758.06 214.49 768.85 209.05
  Q 783.25 201.78 801.77 200.08
  C 834.03 197.12 863.84 206.33 879.15 236.60
  C 885.66 249.47 887.42 265.42 887.37 281.59
  Q 887.22 339.01 887.33 393.00
  Q 887.34 397.86 886.23 401.81
  A 1.12 1.11 7.9 0 1 885.16 402.61
  L 845.05 402.61
  A 1.48 1.48 0.0 0 1 843.57 401.12
  Q 843.75 358.91 843.54 288.75
  Q 843.50 276.22 838.85 264.43
  C 834.42 253.23 823.65 244.57 812.59 240.80
  Q 805.60 238.41 797.66 238.56
  Q 792.18 238.67 787.50 238.91
  C 775.45 239.54 763.26 246.46 755.78 255.08
  Q 744.89 267.64 741.32 283.54
  Q 739.74 290.59 739.78 306.12
  Q 739.91 355.13 739.83 399.07
  A 0.43 0.43 0.0 0 1 739.40 399.50
  L 697.10 399.50
  A 0.28 0.28 0.0 0 1 696.82 399.22
  L 696.82 201.06
  A 0.31 0.31 0.0 0 1 697.13 200.75
  L 739.35 200.75
  A 0.51 0.50 90.0 0 1 739.85 201.26
  L 739.85 237.62
  Z"
/>
<path fill="#0f9570" d="
  M 948.18 214.73
  L 951.85 220.60
  C 934.35 241.68 924.34 269.99 927.74 297.51
  Q 929.62 312.79 935.60 326.90
  Q 921.98 322.74 917.01 309.15
  Q 912.54 296.95 909.03 284.17
  Q 915.72 242.27 948.18 214.73
  Z"
/>
<path fill="#ffffff" d="
  M 614.38 285.41
  A 0.31 0.31 0.0 0 1 614.07 285.73
  L 501.02 285.73
  A 0.30 0.30 0.0 0 1 500.72 285.39
  Q 503.79 260.70 521.84 244.99
  C 535.68 232.94 555.54 230.20 573.51 233.93
  Q 593.05 237.99 603.93 252.91
  C 610.70 262.21 613.96 273.95 614.38 285.41
  Z"
/>
<path fill="#5bbb69" d="
  M 1134.57 299.95
  L 1134.39 301.68
  A 0.41 0.41 0.0 0 1 1133.69 301.93
  L 1132.81 301.04
  A 0.53 0.52 26.2 0 0 1131.92 301.34
  L 1130.07 314.47
  A 0.60 0.49 65.7 0 1 1130.03 314.62
  Q 1128.34 320.39 1128.06 321.05
  Q 1125.57 326.87 1124.33 332.76
  Q 1123.68 335.85 1118.23 344.95
  Q 1113.87 343.62 1111.48 339.46
  C 1118.39 328.90 1122.40 317.91 1124.67 305.51
  Q 1126.02 298.21 1126.26 296.00
  Q 1126.80 291.25 1126.84 283.05
  Q 1126.87 276.92 1125.59 270.18
  Q 1123.53 259.26 1122.81 256.98
  Q 1120.88 250.80 1117.40 243.75
  A 0.37 0.36 63.8 0 1 1117.56 243.27
  L 1117.58 243.26
  A 0.41 0.40 62.1 0 1 1118.12 243.43
  Q 1125.80 257.70 1128.86 266.62
  Q 1134.06 281.80 1134.57 299.95
  Z"
/>
<path fill="#067669" d="
  M 935.60 326.90
  Q 943.65 346.35 958.54 360.21
  Q 980.30 380.46 1009.76 385.61
  Q 1010.86 389.09 1014.05 391.31
  Q 1014.67 391.74 1020.46 394.70
  Q 1031.12 400.15 1043.36 398.96
  Q 1052.56 398.06 1058.34 396.10
  Q 1061.15 395.14 1071.39 390.51
  L 1092.29 387.44
  A 1.79 1.76 20.9 0 0 1093.16 387.06
  C 1097.40 383.53 1101.10 379.55 1106.05 377.01
  C 1071.75 414.69 1018.87 426.10 972.49 404.26
  Q 949.92 393.64 933.20 373.30
  Q 922.26 360.00 916.14 344.69
  Q 904.49 315.53 909.03 284.17
  Q 912.54 296.95 917.01 309.15
  Q 921.98 322.74 935.60 326.90
  Z"
/>
<path fill="#0f9765" d="
  M 1106.05 377.01
  C 1101.10 379.55 1097.40 383.53 1093.16 387.06
  A 1.79 1.76 20.9 0 1 1092.29 387.44
  L 1071.39 390.51
  Q 1080.62 385.72 1090.44 378.45
  Q 1096.68 373.82 1100.94 368.91
  Q 1108.23 360.76 1114.44 351.69
  Q 1115.34 350.38 1118.23 344.95
  Q 1123.68 335.85 1124.33 332.76
  Q 1125.57 326.87 1128.06 321.05
  Q 1128.34 320.39 1130.03 314.62
  A 0.60 0.49 65.7 0 0 1130.07 314.47
  L 1131.92 301.34
  A 0.53 0.52 26.2 0 1 1132.81 301.04
  L 1133.69 301.93
  A 0.41 0.41 0.0 0 0 1134.39 301.68
  L 1134.57 299.95
  C 1135.34 313.11 1132.78 326.28 1128.68 338.72
  Q 1121.52 360.43 1106.05 377.01
  Z"
/>
<path fill="#31b56a" d="
  M 1111.48 339.46
  Q 1113.87 343.62 1118.23 344.95
  Q 1115.34 350.38 1114.44 351.69
  Q 1108.23 360.76 1100.94 368.91
  C 1097.39 370.90 1093.82 371.38 1090.21 369.56
  Q 1088.67 368.78 1087.50 369.22
  Q 1084.00 370.52 1080.33 371.50
  Q 1099.36 358.85 1111.48 339.46
  Z"
/>
<path fill="#0c9b72" d="
  M 1100.94 368.91
  Q 1096.68 373.82 1090.44 378.45
  Q 1080.62 385.72 1071.39 390.51
  Q 1061.15 395.14 1058.34 396.10
  Q 1052.56 398.06 1043.36 398.96
  Q 1031.12 400.15 1020.46 394.70
  Q 1014.67 391.74 1014.05 391.31
  Q 1010.86 389.09 1009.76 385.61
  C 1034.82 389.56 1058.82 384.38 1080.33 371.50
  Q 1084.00 370.52 1087.50 369.22
  Q 1088.67 368.78 1090.21 369.56
  C 1093.82 371.38 1097.39 370.90 1100.94 368.91
  Z"
/>
<path fill="#161f30" d="
  M 555.94 446.60
  C 556.98 445.69 558.46 443.89 559.75 443.29
  C 568.92 439.07 577.84 444.64 578.00 454.79
  Q 578.12 462.66 578.03 472.42
  A 0.56 0.56 0.0 0 1 577.47 472.97
  L 574.02 472.97
  A 0.58 0.57 0.5 0 1 573.44 472.39
  Q 573.45 465.78 573.43 456.00
  Q 573.42 452.30 572.24 450.21
  C 569.92 446.12 564.93 445.02 560.90 446.88
  C 556.26 449.01 555.56 452.68 555.57 457.97
  Q 555.61 471.74 555.60 472.47
  A 0.52 0.51 -89.4 0 1 555.09 472.98
  L 551.51 472.98
  A 0.53 0.52 90.0 0 1 550.99 472.45
  L 550.99 430.52
  A 0.47 0.47 0.0 0 1 551.46 430.05
  L 555.07 430.05
  A 0.52 0.52 0.0 0 1 555.59 430.57
  L 555.59 446.44
  A 0.21 0.21 0.0 0 0 555.94 446.60
  Z"
/>
<path fill="#161f30" d="
  M 1033.15 468.89
  Q 1026.34 475.70 1017.44 472.55
  C 1004.36 467.91 1004.60 446.64 1018.01 442.61
  Q 1027.07 439.89 1033.17 446.56
  A 0.29 0.29 0.0 0 0 1033.67 446.37
  L 1033.67 430.46
  A 0.39 0.39 0.0 0 1 1034.06 430.07
  L 1037.87 430.07
  A 0.40 0.40 0.0 0 1 1038.27 430.47
  L 1038.27 472.49
  A 0.52 0.51 0.0 0 1 1037.75 473.00
  L 1034.22 473.00
  A 0.53 0.53 0.0 0 1 1033.69 472.47
  L 1033.69 469.11
  A 0.32 0.31 -22.5 0 0 1033.15 468.89
  Z
  M 1023.2916 445.9002
  A 11.76 10.81 -89.7 0 0 1012.4201 457.6034
  A 11.76 10.81 -89.7 0 0 1023.1684 469.4198
  A 11.76 10.81 -89.7 0 0 1034.0399 457.7166
  A 11.76 10.81 -89.7 0 0 1023.2916 445.9002
  Z"
/>
<rect fill="#142131" x="1162.98" y="430.05" width="4.60" height="42.94" rx="0.44"/>
<path fill="#161f30" d="
  M 1180.09 446.46
  A 0.21 0.21 0.0 0 0 1180.44 446.62
  C 1181.48 445.71 1182.96 443.91 1184.25 443.31
  C 1193.43 439.09 1202.35 444.67 1202.51 454.82
  Q 1202.63 462.70 1202.54 472.47
  A 0.56 0.56 0.0 0 1 1201.98 473.02
  L 1198.52 473.02
  A 0.58 0.57 0.5 0 1 1197.94 472.44
  Q 1197.96 465.82 1197.94 456.03
  Q 1197.93 452.33 1196.75 450.24
  C 1194.43 446.15 1189.43 445.04 1185.40 446.90
  C 1180.76 449.03 1180.05 452.71 1180.06 458.00
  Q 1180.10 471.78 1180.09 472.51
  A 0.52 0.51 -89.4 0 1 1179.58 473.02
  L 1176.00 473.02
  A 0.53 0.52 -90.0 0 1 1175.48 472.49
  L 1175.48 430.53
  A 0.47 0.47 0.0 0 1 1175.96 430.06
  L 1179.57 430.06
  A 0.52 0.52 0.0 0 1 1180.09 430.58
  L 1180.09 446.46
  Z"
/>
<rect fill="#142131" x="-2.49" y="-3.02" transform="translate(645.54,434.17) rotate(-0.2)" width="4.98" height="6.04" rx="0.44"/>
<rect fill="#161f30" x="741.05" y="431.19" width="4.96" height="6.00" rx="0.41"/>
<rect fill="#142131" x="-2.49" y="-3.01" transform="translate(929.54,434.18) rotate(-0.3)" width="4.98" height="6.02" rx="0.54"/>
<path fill="#161f30" d="
  M 401.62 452.69
  Q 401.62 453.70 401.66 454.43
  A 0.46 0.46 0.0 0 1 401.20 454.91
  L 379.44 454.91
  A 0.39 0.39 0.0 0 0 379.05 455.30
  L 379.05 467.97
  A 0.61 0.61 0.0 0 0 379.66 468.58
  L 404.00 468.58
  A 0.34 0.34 0.0 0 1 404.34 468.92
  L 404.34 472.62
  A 0.36 0.36 0.0 0 1 403.98 472.98
  L 375.19 472.97
  A 0.70 0.69 -3.9 0 1 374.50 472.38
  Q 374.47 472.19 374.47 452.68
  Q 374.48 433.17 374.51 432.98
  A 0.70 0.69 4.0 0 1 375.20 432.39
  L 403.99 432.40
  A 0.36 0.36 0.0 0 1 404.35 432.76
  L 404.35 436.46
  A 0.34 0.34 0.0 0 1 404.01 436.80
  L 379.67 436.78
  A 0.61 0.61 0.0 0 0 379.06 437.39
  L 379.05 450.06
  A 0.39 0.39 0.0 0 0 379.44 450.45
  L 401.20 450.46
  A 0.46 0.46 0.0 0 1 401.66 450.95
  Q 401.62 451.67 401.62 452.69
  Z"
/>
<path fill="#161f30" d="
  M 711.47 450.91
  L 732.69 450.91
  A 0.41 0.41 0.0 0 1 733.10 451.32
  L 733.10 454.98
  A 0.41 0.41 0.0 0 1 732.69 455.39
  L 711.47 455.39
  A 0.41 0.41 0.0 0 0 711.06 455.80
  L 711.06 472.58
  A 0.41 0.41 0.0 0 1 710.65 472.99
  L 706.89 472.99
  A 0.41 0.41 0.0 0 1 706.48 472.58
  L 706.48 432.81
  A 0.41 0.41 0.0 0 1 706.89 432.40
  L 735.39 432.40
  A 0.41 0.41 0.0 0 1 735.80 432.81
  L 735.80 436.38
  A 0.41 0.41 0.0 0 1 735.39 436.79
  L 711.47 436.79
  A 0.41 0.41 0.0 0 0 711.06 437.20
  L 711.06 450.50
  A 0.41 0.41 0.0 0 0 711.47 450.91
  Z"
/>
<path fill="#161f30" d="
  M 1099.69 436.78
  A 0.65 0.64 -90.0 0 0 1099.05 437.43
  L 1099.06 450.25
  A 0.67 0.67 0.0 0 0 1099.73 450.92
  L 1120.60 450.91
  A 0.51 0.51 0.0 0 1 1121.11 451.42
  L 1121.09 454.90
  A 0.49 0.49 0.0 0 1 1120.60 455.39
  L 1099.41 455.39
  A 0.35 0.34 -89.2 0 0 1099.06 455.74
  L 1099.05 472.59
  A 0.41 0.40 -89.3 0 1 1098.64 473.00
  L 1094.88 472.96
  A 0.40 0.40 0.0 0 1 1094.48 472.56
  L 1094.48 432.65
  A 0.25 0.24 -90.0 0 1 1094.72 432.40
  L 1123.39 432.40
  A 0.40 0.40 0.0 0 1 1123.79 432.79
  L 1123.80 436.40
  A 0.39 0.39 0.0 0 1 1123.41 436.80
  L 1099.69 436.78
  Z"
/>
<path fill="#161f30" d="
  M 415.81 446.57
  C 416.56 445.54 418.92 443.46 420.14 442.97
  C 429.08 439.39 437.52 444.91 437.73 454.54
  Q 437.87 460.61 437.77 472.49
  A 0.52 0.52 0.0 0 1 437.25 473.00
  L 433.74 473.00
  A 0.54 0.54 0.0 0 1 433.20 472.46
  Q 433.19 459.34 433.20 458.71
  Q 433.31 453.38 432.54 451.41
  C 429.56 443.89 419.36 444.55 416.11 451.41
  Q 415.31 453.11 415.33 456.67
  Q 415.35 462.54 415.34 472.50
  A 0.50 0.49 -0.0 0 1 414.84 472.99
  L 411.27 472.99
  A 0.54 0.54 0.0 0 1 410.73 472.45
  L 410.73 442.86
  A 0.53 0.53 0.0 0 1 411.26 442.33
  L 414.77 442.33
  A 0.57 0.56 -0.0 0 1 415.34 442.89
  L 415.34 446.42
  A 0.26 0.26 0.0 0 0 415.81 446.57
  Z"
/>
<path fill="#161f30" d="
  M 468.93 468.25
  Q 468.77 468.35 467.25 469.86
  C 462.93 474.13 455.22 473.59 450.62 470.87
  C 442.61 466.14 441.53 454.33 446.94 447.21
  C 451.79 440.83 462.70 439.81 468.25 445.85
  Q 468.68 446.32 468.86 446.51
  A 0.35 0.35 0.0 0 0 469.46 446.27
  L 469.46 442.83
  A 0.53 0.52 90.0 0 1 469.98 442.30
  L 473.40 442.30
  A 0.63 0.62 89.5 0 1 474.02 442.92
  Q 474.02 445.71 474.02 467.84
  Q 474.02 473.61 473.75 475.12
  C 472.67 481.09 468.80 484.52 462.67 485.37
  C 455.57 486.36 448.74 484.45 445.54 477.54
  A 0.62 0.62 0.0 0 1 446.10 476.66
  L 449.36 476.66
  A 1.46 1.45 73.7 0 1 450.59 477.34
  C 453.40 481.75 459.78 482.33 464.14 480.69
  C 469.29 478.76 469.43 474.07 469.51 468.56
  A 0.37 0.37 0.0 0 0 468.93 468.25
  Z
  M 459.0305 445.9003
  A 11.53 10.84 -89.6 0 0 448.1103 457.3543
  A 11.53 10.84 -89.6 0 0 458.8695 468.9597
  A 11.53 10.84 -89.6 0 0 469.7897 457.5057
  A 11.53 10.84 -89.6 0 0 459.0305 445.9003
  Z"
/>
<path fill="#142131" d="
  M 485.35 459.48
  A 0.53 0.52 -7.2 0 0 484.84 460.13
  Q 487.25 469.50 496.39 469.27
  Q 501.32 469.15 504.42 464.41
  A 0.51 0.50 -73.1 0 1 504.84 464.18
  L 509.36 464.18
  A 0.13 0.13 0.0 0 1 509.48 464.37
  C 504.12 476.41 488.61 476.35 482.16 465.88
  C 479.33 461.26 479.44 453.62 482.43 448.85
  C 490.88 435.34 512.38 442.39 510.38 459.24
  A 0.27 0.26 -86.3 0 1 510.12 459.48
  L 485.35 459.48
  Z
  M 485.29 455.23
  L 505.35 455.19
  A 0.10 0.10 0.0 0 0 505.45 455.09
  L 505.45 454.99
  A 10.05 8.92 -0.1 0 0 495.38 446.09
  L 495.22 446.09
  A 10.05 8.92 -0.1 0 0 485.19 455.03
  L 485.19 455.13
  A 0.10 0.10 0.0 0 0 485.29 455.23
  Z"
/>
<path fill="#161f30" d="
  M 520.85 446.41
  A 0.26 0.26 0.0 0 0 521.32 446.56
  C 522.07 445.53 524.43 443.45 525.65 442.96
  C 534.60 439.39 543.03 444.91 543.24 454.55
  Q 543.38 460.62 543.27 472.50
  A 0.52 0.52 0.0 0 1 542.75 473.01
  L 539.24 473.01
  A 0.54 0.54 0.0 0 1 538.70 472.46
  Q 538.70 459.34 538.71 458.71
  Q 538.82 453.38 538.05 451.41
  C 535.07 443.89 524.87 444.54 521.62 451.40
  Q 520.82 453.10 520.83 456.66
  Q 520.85 462.53 520.84 472.49
  A 0.50 0.49 0.0 0 1 520.34 472.98
  L 516.76 472.98
  A 0.54 0.54 0.0 0 1 516.23 472.44
  L 516.24 442.85
  A 0.53 0.53 0.0 0 1 516.77 442.32
  L 520.28 442.32
  A 0.57 0.56 0.0 0 1 520.85 442.88
  L 520.85 446.41
  Z"
/>
<path fill="#161f30" d="
  M 583.60 457.66
  C 583.59 449.69 588.41 442.93 596.64 441.95
  Q 604.04 441.07 608.80 446.45
  A 0.36 0.36 0.0 0 0 609.43 446.21
  L 609.42 442.83
  A 0.56 0.56 0.0 0 1 609.98 442.27
  L 613.31 442.27
  A 0.71 0.71 0.0 0 1 614.03 442.99
  Q 614.01 450.13 614.03 457.64
  Q 614.02 465.15 614.04 472.29
  A 0.71 0.71 0.0 0 1 613.33 473.01
  L 610.00 473.01
  A 0.56 0.56 0.0 0 1 609.44 472.45
  L 609.44 469.07
  A 0.36 0.36 0.0 0 0 608.81 468.83
  Q 604.06 474.22 596.66 473.35
  C 588.43 472.39 583.60 465.63 583.60 457.66
  Z
  M 598.9805 445.9000
  A 11.77 10.83 -89.9 0 0 588.1300 457.6511
  A 11.77 10.83 -89.9 0 0 598.9395 469.4400
  A 11.77 10.83 -89.9 0 0 609.7900 457.6889
  A 11.77 10.83 -89.9 0 0 598.9805 445.9000
  Z"
/>
<path fill="#142131" d="
  M 627.02 448.74
  Q 630.56 442.03 637.54 441.87
  A 0.67 0.66 89.2 0 1 638.22 442.54
  L 638.22 445.82
  A 0.68 0.68 0.0 0 1 637.53 446.50
  C 631.08 446.37 627.13 452.22 626.69 458.27
  Q 626.49 461.09 626.63 472.43
  A 0.58 0.58 0.0 0 1 626.05 473.02
  L 622.55 473.02
  A 0.58 0.58 0.0 0 1 621.97 472.44
  L 621.97 442.89
  A 0.58 0.58 0.0 0 1 622.55 442.31
  L 626.03 442.31
  A 0.54 0.54 0.0 0 1 626.57 442.85
  L 626.57 448.63
  A 0.24 0.24 0.0 0 0 627.02 448.74
  Z"
/>
<path fill="#161f30" d="
  M 653.85 457.67
  C 653.85 449.70 658.67 442.94 666.90 441.97
  Q 674.29 441.09 679.05 446.47
  A 0.36 0.36 0.0 0 0 679.68 446.23
  L 679.68 442.85
  A 0.56 0.56 0.0 0 1 680.24 442.29
  L 683.57 442.28
  A 0.71 0.71 0.0 0 1 684.28 443.00
  Q 684.26 450.15 684.28 457.65
  Q 684.27 465.16 684.30 472.31
  A 0.71 0.71 0.0 0 1 683.58 473.03
  L 680.25 473.03
  A 0.56 0.56 0.0 0 1 679.69 472.47
  L 679.69 469.09
  A 0.36 0.36 0.0 0 0 679.07 468.85
  Q 674.32 474.24 666.92 473.37
  C 658.68 472.40 653.86 465.65 653.85 457.67
  Z
  M 669.1589 445.9101
  A 11.77 10.82 -90.2 0 0 658.3801 457.7178
  A 11.77 10.82 -90.2 0 0 669.2411 469.4499
  A 11.77 10.82 -90.2 0 0 680.0199 457.6422
  A 11.77 10.82 -90.2 0 0 669.1589 445.9101
  Z"
/>
<path fill="#142131" d="
  M 758.34 446.43
  A 0.26 0.26 0.0 0 0 758.81 446.58
  C 759.56 445.55 761.92 443.47 763.14 442.98
  C 772.08 439.39 780.52 444.91 780.73 454.54
  Q 780.87 460.61 780.77 472.49
  A 0.52 0.52 0.0 0 1 780.25 473.00
  L 776.74 473.00
  A 0.54 0.54 0.0 0 1 776.20 472.46
  Q 776.19 459.34 776.20 458.71
  Q 776.31 453.38 775.54 451.41
  C 772.56 443.89 762.36 444.56 759.11 451.42
  Q 758.31 453.12 758.33 456.67
  Q 758.35 462.54 758.35 472.50
  A 0.50 0.49 -0.0 0 1 757.85 472.99
  L 754.28 472.99
  A 0.54 0.54 0.0 0 1 753.74 472.45
  L 753.73 442.87
  A 0.53 0.53 0.0 0 1 754.26 442.34
  L 757.77 442.34
  A 0.57 0.56 -0.0 0 1 758.34 442.90
  L 758.34 446.43
  Z"
/>
<path fill="#161f30" d="
  M 786.60 457.66
  C 786.59 449.69 791.41 442.93 799.64 441.96
  Q 807.04 441.08 811.79 446.46
  A 0.36 0.36 0.0 0 0 812.42 446.22
  L 812.42 442.84
  A 0.56 0.56 0.0 0 1 812.98 442.28
  L 816.30 442.28
  A 0.71 0.71 0.0 0 1 817.02 442.99
  Q 817.00 450.14 817.02 457.64
  Q 817.01 465.15 817.04 472.29
  A 0.71 0.71 0.0 0 1 816.33 473.01
  L 813.00 473.01
  A 0.56 0.56 0.0 0 1 812.44 472.45
  L 812.44 469.07
  A 0.36 0.36 0.0 0 0 811.81 468.83
  Q 807.06 474.22 799.66 473.35
  C 791.43 472.39 786.60 465.64 786.60 457.66
  Z
  M 802.0217 445.8902
  A 11.78 10.83 -89.7 0 0 791.1301 457.6133
  A 11.78 10.83 -89.7 0 0 801.8983 469.4498
  A 11.78 10.83 -89.7 0 0 812.7899 457.7267
  A 11.78 10.83 -89.7 0 0 802.0217 445.8902
  Z"
/>
<path fill="#161f30" d="
  M 829.59 446.42
  A 0.26 0.26 0.0 0 0 830.06 446.57
  C 830.81 445.54 833.18 443.46 834.40 442.97
  C 843.35 439.39 851.79 444.92 851.99 454.55
  Q 852.13 460.63 852.03 472.51
  A 0.52 0.52 0.0 0 1 851.50 473.02
  L 847.99 473.02
  A 0.54 0.54 0.0 0 1 847.45 472.48
  Q 847.45 459.35 847.46 458.72
  Q 847.57 453.39 846.80 451.42
  C 843.82 443.89 833.62 444.55 830.36 451.41
  Q 829.56 453.11 829.58 456.67
  Q 829.60 462.55 829.58 472.51
  A 0.50 0.49 0.0 0 1 829.08 473.00
  L 825.51 473.00
  A 0.54 0.54 0.0 0 1 824.97 472.46
  L 824.98 442.85
  A 0.53 0.53 0.0 0 1 825.51 442.32
  L 829.03 442.32
  A 0.57 0.56 0.0 0 1 829.60 442.88
  L 829.59 446.42
  Z"
/>
<path fill="#161f30" d="
  M 862.47 457.66
  C 862.46 463.88 866.46 468.90 872.86 469.27
  Q 879.07 469.63 882.02 464.20
  A 1.62 1.61 -75.7 0 1 883.44 463.35
  L 886.51 463.35
  A 0.70 0.70 0.0 0 1 887.14 464.34
  C 880.11 479.47 857.84 475.07 857.85 457.66
  C 857.85 440.26 880.12 435.87 887.15 451.00
  A 0.70 0.70 0.0 0 1 886.51 451.99
  L 883.44 451.99
  A 1.62 1.61 75.7 0 1 882.02 451.14
  Q 879.08 445.71 872.86 446.07
  C 866.47 446.44 862.47 451.45 862.47 457.66
  Z"
/>
<path fill="#161f30" d="
  M 896.35 459.48
  A 0.53 0.52 -7.2 0 0 895.84 460.13
  Q 898.25 469.50 907.39 469.27
  Q 912.32 469.15 915.42 464.41
  A 0.51 0.50 -73.1 0 1 915.84 464.18
  L 920.36 464.18
  A 0.13 0.13 0.0 0 1 920.48 464.37
  C 915.12 476.41 899.61 476.35 893.16 465.88
  C 890.33 461.26 890.44 453.62 893.43 448.85
  C 901.88 435.34 923.38 442.39 921.38 459.24
  A 0.27 0.26 -86.3 0 1 921.12 459.48
  L 896.35 459.48
  Z
  M 896.31 455.21
  L 916.31 455.21
  A 0.13 0.13 0.0 0 0 916.44 455.08
  L 916.44 455.00
  A 10.06 8.91 0.0 0 0 906.38 446.09
  L 906.24 446.09
  A 10.06 8.91 -0.0 0 0 896.18 455.00
  L 896.18 455.08
  A 0.13 0.13 0.0 0 0 896.31 455.21
  Z"
/>
<path fill="#142131" d="
  M 944.58 448.63
  A 0.24 0.24 0.0 0 0 945.03 448.74
  Q 948.56 442.04 955.53 441.89
  A 0.67 0.66 89.2 0 1 956.21 442.56
  L 956.21 445.83
  A 0.68 0.68 0.0 0 1 955.52 446.51
  C 949.08 446.38 945.13 452.22 944.69 458.26
  Q 944.49 461.07 944.63 472.40
  A 0.58 0.58 0.0 0 1 944.05 472.98
  L 940.55 472.98
  A 0.58 0.58 0.0 0 1 939.97 472.40
  L 939.99 442.90
  A 0.58 0.58 0.0 0 1 940.57 442.32
  L 944.04 442.32
  A 0.54 0.54 0.0 0 1 944.58 442.86
  L 944.58 448.63
  Z"
/>
<path fill="#142131" d="
  M 958.34 457.67
  C 958.34 449.70 963.16 442.93 971.40 441.96
  Q 978.80 441.08 983.56 446.47
  A 0.36 0.36 0.0 0 0 984.19 446.23
  L 984.18 442.85
  A 0.56 0.56 0.0 0 1 984.74 442.29
  L 988.07 442.28
  A 0.71 0.71 0.0 0 1 988.79 443.00
  Q 988.77 450.15 988.79 457.66
  Q 988.78 465.17 988.80 472.32
  A 0.71 0.71 0.0 0 1 988.09 473.04
  L 984.76 473.04
  A 0.56 0.56 0.0 0 1 984.20 472.48
  L 984.20 469.10
  A 0.36 0.36 0.0 0 0 983.57 468.85
  Q 978.81 474.25 971.41 473.38
  C 963.18 472.41 958.35 465.65 958.34 457.67
  Z
  M 973.6389 445.9101
  A 11.76 10.81 -90.2 0 0 962.8701 457.7077
  A 11.76 10.81 -90.2 0 0 973.7211 469.4299
  A 11.76 10.81 -90.2 0 0 984.4899 457.6323
  A 11.76 10.81 -90.2 0 0 973.6389 445.9101
  Z"
/>
<path fill="#142131" d="
  M 1049.60 459.48
  A 0.53 0.52 -7.2 0 0 1049.09 460.13
  Q 1051.50 469.49 1060.64 469.27
  Q 1065.57 469.15 1068.67 464.41
  A 0.51 0.50 -73.1 0 1 1069.09 464.18
  L 1073.61 464.18
  A 0.13 0.13 0.0 0 1 1073.73 464.37
  C 1068.37 476.41 1052.86 476.34 1046.41 465.87
  C 1043.58 461.26 1043.69 453.62 1046.68 448.85
  C 1055.13 435.34 1076.63 442.39 1074.63 459.24
  A 0.27 0.26 -86.2 0 1 1074.37 459.48
  L 1049.60 459.48
  Z
  M 1049.51 455.21
  L 1069.59 455.21
  A 0.10 0.10 0.0 0 0 1069.69 455.11
  L 1069.69 455.01
  A 10.06 8.90 -0.0 0 0 1059.63 446.11
  L 1059.47 446.11
  A 10.06 8.90 0.0 0 0 1049.41 455.01
  L 1049.41 455.11
  A 0.10 0.10 0.0 0 0 1049.51 455.21
  Z"
/>
<path fill="#161f30" d="
  M 1141.8458 441.6801
  A 15.98 15.34 -89.8 0 1 1157.1299 457.7135
  A 15.98 15.34 -89.8 0 1 1141.7342 473.6399
  A 15.98 15.34 -89.8 0 1 1126.4501 457.6065
  A 15.98 15.34 -89.8 0 1 1141.8458 441.6801
  Z
  M 1141.8206 445.8800
  A 11.79 10.72 -89.9 0 0 1131.0800 457.6513
  A 11.79 10.72 -89.9 0 0 1141.7794 469.4600
  A 11.79 10.72 -89.9 0 0 1152.5200 457.6887
  A 11.79 10.72 -89.9 0 0 1141.8206 445.8800
  Z"
/>
<path fill="#161f30" d="
  M 1238.78 457.65
  Q 1238.77 465.16 1238.79 472.30
  A 0.71 0.71 0.0 0 1 1238.08 473.02
  L 1234.75 473.02
  A 0.56 0.56 0.0 0 1 1234.19 472.46
  L 1234.19 469.08
  A 0.36 0.36 0.0 0 0 1233.56 468.84
  Q 1228.81 474.23 1221.41 473.36
  C 1213.18 472.40 1208.35 465.64 1208.35 457.67
  C 1208.34 449.69 1213.16 442.93 1221.39 441.96
  Q 1228.79 441.08 1233.55 446.46
  A 0.36 0.36 0.0 0 0 1234.18 446.22
  L 1234.17 442.84
  A 0.56 0.56 0.0 0 1 1234.73 442.28
  L 1238.06 442.28
  A 0.71 0.71 0.0 0 1 1238.78 442.99
  Q 1238.76 450.14 1238.78 457.65
  Z
  M 1223.6795 445.9100
  A 11.76 10.83 -90.1 0 0 1212.8700 457.6889
  A 11.76 10.83 -90.1 0 0 1223.7205 469.4300
  A 11.76 10.83 -90.1 0 0 1234.5300 457.6511
  A 11.76 10.83 -90.1 0 0 1223.6795 445.9100
  Z"
/>
<rect fill="#142131" x="643.25" y="442.32" width="4.58" height="30.68" rx="0.42"/>
<rect fill="#142131" x="741.26" y="442.31" width="4.56" height="30.68" rx="0.45"/>
<rect fill="#142131" x="927.27" y="442.32" width="4.56" height="30.66" rx="0.42"/>
<ellipse fill="#ffffff" cx="0.00" cy="0.00" transform="translate(458.95,457.43) rotate(-89.6)" rx="11.53" ry="10.84"/>
<path fill="#ffffff" d="
  M 485.29 455.23
  A 0.10 0.10 0.0 0 1 485.19 455.13
  L 485.19 455.03
  A 10.05 8.92 -0.1 0 1 495.22 446.09
  L 495.38 446.09
  A 10.05 8.92 -0.1 0 1 505.45 454.99
  L 505.45 455.09
  A 0.10 0.10 0.0 0 1 505.35 455.19
  L 485.29 455.23
  Z"
/>
<ellipse fill="#ffffff" cx="0.00" cy="0.00" transform="translate(598.96,457.67) rotate(-89.9)" rx="11.77" ry="10.83"/>
<ellipse fill="#ffffff" cx="0.00" cy="0.00" transform="translate(669.20,457.68) rotate(-90.2)" rx="11.77" ry="10.82"/>
<ellipse fill="#ffffff" cx="0.00" cy="0.00" transform="translate(801.96,457.67) rotate(-89.7)" rx="11.78" ry="10.83"/>
<path fill="#ffffff" d="
  M 896.31 455.21
  A 0.13 0.13 0.0 0 1 896.18 455.08
  L 896.18 455.00
  A 10.06 8.91 0.0 0 1 906.24 446.09
  L 906.38 446.09
  A 10.06 8.91 0.0 0 1 916.44 455.00
  L 916.44 455.08
  A 0.13 0.13 0.0 0 1 916.31 455.21
  L 896.31 455.21
  Z"
/>
<ellipse fill="#ffffff" cx="0.00" cy="0.00" transform="translate(973.68,457.67) rotate(-90.2)" rx="11.76" ry="10.81"/>
<ellipse fill="#ffffff" cx="0.00" cy="0.00" transform="translate(1023.23,457.66) rotate(-89.7)" rx="11.76" ry="10.81"/>
<path fill="#ffffff" d="
  M 1049.51 455.21
  A 0.10 0.10 0.0 0 1 1049.41 455.11
  L 1049.41 455.01
  A 10.06 8.90 0.0 0 1 1059.47 446.11
  L 1059.63 446.11
  A 10.06 8.90 0.0 0 1 1069.69 455.01
  L 1069.69 455.11
  A 0.10 0.10 0.0 0 1 1069.59 455.21
  L 1049.51 455.21
  Z"
/>
<ellipse fill="#ffffff" cx="0.00" cy="0.00" transform="translate(1141.80,457.67) rotate(-89.9)" rx="11.79" ry="10.72"/>
<ellipse fill="#ffffff" cx="0.00" cy="0.00" transform="translate(1223.70,457.67) rotate(-90.1)" rx="11.76" ry="10.83"/>
</svg>
