<?xml version="1.0" standalone="no"?>
<!DOCTYPE svg PUBLIC "-//W3C//DTD SVG 20010904//EN"
 "http://www.w3.org/TR/2001/REC-SVG-20010904/DTD/svg10.dtd">
<svg version="1.0" xmlns="http://www.w3.org/2000/svg"
 width="2430.000000pt" height="2430.000000pt" viewBox="0 0 2430.000000 2430.000000"
 preserveAspectRatio="xMidYMid meet">

<g transform="translate(0.000000,2430.000000) scale(0.100000,-0.100000)"
fill="#000000" stroke="none">
<path d="M14218 14933 c7 -3 16 -2 19 1 4 3 -2 6 -13 5 -11 0 -14 -3 -6 -6z"/>
<path d="M15205 14910 c3 -5 21 -10 38 -10 24 0 28 3 17 10 -20 13 -63 13 -55
0z"/>
<path d="M15295 14890 c-6 -10 38 -27 93 -35 26 -4 42 -12 42 -21 0 -8 -5 -14
-11 -14 -6 0 -17 -7 -25 -15 -13 -12 -10 -15 22 -21 27 -5 39 -3 45 8 5 10 18
13 39 10 30 -4 43 -22 16 -22 -19 0 -27 -37 -9 -44 28 -11 71 -6 77 9 3 8 17
20 31 25 32 12 32 30 0 30 -14 0 -25 5 -25 10 0 6 -8 10 -17 10 -10 0 -27 7
-37 15 -11 8 -30 15 -43 15 -13 0 -42 9 -66 19 -46 21 -124 34 -132 21z"/>
<path d="M14410 14886 c0 -2 7 -6 15 -10 8 -3 15 -1 15 4 0 6 -7 10 -15 10 -8
0 -15 -2 -15 -4z"/>
<path d="M14843 14863 c9 -2 23 -2 30 0 6 3 -1 5 -18 5 -16 0 -22 -2 -12 -5z"/>
<path d="M14938 14863 c7 -3 16 -2 19 1 4 3 -2 6 -13 5 -11 0 -14 -3 -6 -6z"/>
<path d="M14551 14851 c-9 -6 0 -10 29 -13 23 -2 44 0 46 4 3 4 -4 8 -15 8
-10 0 -25 2 -33 5 -7 3 -19 1 -27 -4z"/>
<path d="M14697 14843 c-47 -5 -45 -27 4 -31 19 -1 50 -7 69 -12 44 -12 229
-20 235 -10 3 4 -17 11 -43 15 -26 4 -56 12 -66 17 -10 6 -44 11 -75 12 -31 1
-63 4 -71 7 -8 3 -32 4 -53 2z"/>
<path d="M2875 14810 c-506 -3 -921 -6 -922 -8 -2 -1 -3 -1118 -3 -2481 0
-1973 3 -2481 13 -2488 6 -4 189 -9 405 -10 371 -1 393 0 402 17 6 12 10 293
10 758 l0 740 23 6 c12 3 327 6 700 6 l678 0 26 -27 c14 -16 34 -44 44 -63 11
-19 24 -43 29 -52 6 -10 14 -26 19 -35 20 -38 167 -273 202 -325 11 -15 19
-33 19 -39 0 -7 11 -27 25 -45 14 -18 25 -35 25 -38 0 -5 23 -43 97 -162 78
-124 102 -164 107 -182 4 -12 11 -22 14 -22 4 0 16 -17 27 -37 11 -21 34 -59
52 -85 18 -26 33 -50 33 -53 0 -11 123 -220 132 -223 4 -2 8 -7 8 -12 0 -20
64 -110 83 -116 12 -4 219 -7 461 -8 382 0 441 1 444 14 2 15 -22 53 -213 334
-55 81 -105 156 -111 166 -6 11 -18 28 -27 38 -10 10 -17 23 -17 29 0 6 -6 16
-14 22 -8 7 -22 26 -31 44 -9 18 -29 50 -46 72 -16 22 -65 92 -108 155 -85
126 -93 137 -237 353 -54 81 -113 169 -131 195 -137 205 -141 213 -142 244 -1
24 5 29 47 41 71 22 164 70 229 118 32 24 90 66 130 92 97 66 237 206 306 307
60 89 85 129 91 147 4 12 13 27 21 33 8 7 15 19 15 27 0 8 13 40 28 71 15 31
34 77 41 102 7 25 17 54 22 65 5 11 16 53 24 94 8 40 18 78 22 84 3 6 10 44
14 86 31 320 32 333 20 465 -7 72 -14 165 -17 206 -5 69 -16 117 -61 270 -17
57 -22 68 -66 160 -15 30 -32 66 -37 80 -6 14 -16 34 -23 45 -123 202 -256
349 -390 431 -34 20 -87 56 -117 79 -52 39 -169 100 -270 140 -25 10 -63 27
-86 36 -46 20 -172 50 -344 81 -162 29 -239 37 -365 37 -60 1 -138 6 -172 11
-92 15 -133 15 -1138 10z m1260 -720 c180 -10 360 -50 482 -106 17 -7 37 -14
45 -14 7 0 25 -8 38 -17 25 -18 39 -26 117 -70 75 -41 253 -237 253 -277 0 -4
9 -19 20 -34 20 -28 38 -83 67 -207 23 -103 24 -446 1 -535 -9 -36 -25 -97
-35 -136 -10 -40 -25 -80 -33 -90 -9 -11 -30 -48 -48 -84 -32 -64 -145 -193
-206 -235 -93 -64 -160 -101 -226 -124 -36 -13 -69 -27 -75 -31 -5 -4 -44 -15
-85 -25 -41 -9 -93 -21 -115 -26 -104 -23 -277 -29 -895 -29 l-660 0 0 1018
c0 560 3 1022 7 1025 9 10 1176 7 1348 -3z"/>
<path d="M13443 14813 c9 -2 17 -10 17 -18 0 -15 27 -28 41 -19 16 9 10 24
-10 24 -11 0 -23 5 -26 10 -3 6 -14 9 -23 9 -15 -1 -15 -2 1 -6z"/>
<path d="M15715 14730 c-3 -5 -1 -10 4 -10 6 0 11 5 11 10 0 6 -2 10 -4 10 -3
0 -8 -4 -11 -10z"/>
<path d="M15588 14703 c-16 -2 -28 -9 -28 -14 0 -11 50 -1 65 12 6 6 6 8 0 8
-6 -1 -22 -4 -37 -6z"/>
<path d="M14775 14650 c-17 -7 -15 -9 13 -9 17 -1 32 4 32 9 0 12 -17 12 -45
0z"/>
<path d="M15697 14654 c-4 -4 -4 -10 -1 -15 6 -10 34 0 34 12 0 10 -24 12 -33
3z"/>
<path d="M15860 14631 c0 -5 7 -11 15 -15 24 -9 18 -35 -11 -48 -23 -11 -24
-13 -9 -24 15 -11 15 -13 -4 -24 -12 -6 -26 -8 -32 -4 -18 10 -69 -17 -69 -37
0 -11 7 -19 15 -19 8 0 15 -4 15 -9 0 -5 9 -13 20 -16 11 -3 20 -11 20 -16 0
-5 -9 -9 -20 -9 -11 0 -20 7 -20 15 0 11 -12 15 -42 16 -24 1 -35 3 -25 6 9 2
17 8 17 12 0 11 -23 31 -36 31 -16 0 -27 -89 -13 -106 14 -17 3 -48 -14 -41
-8 3 -18 2 -24 -1 -17 -12 -42 -72 -32 -78 5 -3 9 1 9 8 0 9 12 14 35 14 39 0
42 -9 21 -52 -8 -15 -12 -32 -9 -38 14 -21 2 -280 -13 -303 -8 -12 -14 -32
-14 -43 0 -38 -70 -157 -87 -147 -5 3 -9 -7 -8 -21 0 -20 -5 -27 -17 -26 -10
1 -15 -2 -12 -7 6 -11 -14 -49 -26 -49 -6 0 -10 9 -10 20 0 14 -6 19 -22 17
-15 -1 -23 5 -27 21 -6 22 -7 22 -43 -14 -21 -20 -38 -40 -38 -44 0 -4 -10
-19 -22 -33 -13 -15 -41 -62 -63 -104 -22 -43 -43 -79 -47 -81 -5 -2 -8 -13
-8 -24 0 -28 23 -17 25 12 1 13 14 33 28 45 15 11 27 29 27 38 0 10 11 22 24
28 14 7 27 21 30 33 3 12 14 31 26 43 11 12 20 29 20 38 0 21 30 31 41 14 14
-22 11 -29 -20 -46 -25 -15 -27 -20 -18 -40 6 -13 14 -23 19 -23 15 0 7 -45
-15 -82 -12 -20 -35 -58 -51 -85 -16 -26 -42 -64 -58 -84 -15 -20 -28 -43 -28
-50 0 -8 -7 -23 -16 -34 -14 -19 -15 -19 -20 3 -4 12 -10 22 -14 22 -16 0 -40
-31 -40 -51 0 -11 -4 -18 -9 -15 -13 8 -8 66 6 74 7 4 14 24 16 45 2 20 7 40
10 44 9 9 9 43 0 43 -9 0 -63 -112 -63 -129 0 -6 -4 -11 -9 -11 -16 0 -66
-140 -95 -265 -9 -38 -21 -88 -26 -110 -13 -55 -20 -99 -29 -180 -5 -38 -14
-115 -21 -170 -13 -107 -8 -404 9 -492 5 -26 15 -81 21 -121 7 -40 14 -71 17
-69 2 3 9 51 14 108 13 141 45 338 70 434 45 177 37 149 90 290 66 176 189
400 301 548 69 92 258 287 346 358 31 26 73 61 92 79 19 17 45 38 58 47 12 8
22 24 22 34 0 11 7 22 15 25 8 3 26 27 41 52 14 26 37 67 51 90 14 24 30 71
37 105 18 83 13 253 -8 292 -9 17 -16 41 -16 54 0 27 -39 121 -51 121 -18 0
-18 -35 1 -55 27 -29 27 -75 0 -75 -12 0 -25 10 -32 25 -9 19 -19 25 -45 25
-18 0 -42 -5 -52 -11 -14 -9 -25 -9 -50 2 -35 16 -42 39 -11 39 23 0 79 57 80
81 0 22 26 32 50 19 25 -13 30 -13 30 3 0 8 -9 22 -20 32 -11 10 -20 22 -20
27 0 11 -64 78 -74 78 -4 0 -14 7 -22 15 -17 17 -34 20 -34 6z m94 -143 c-3
-5 -9 -6 -14 -3 -4 3 -10 -5 -14 -17 -4 -16 -8 -20 -16 -12 -8 8 -5 18 12 37
15 17 25 22 30 14 4 -6 4 -15 2 -19z m-164 -92 c0 -3 -4 -8 -10 -11 -5 -3 -10
-1 -10 4 0 6 5 11 10 11 6 0 10 -2 10 -4z m0 -76 c0 -22 15 -27 26 -9 4 8 9 7
15 -2 16 -25 9 -39 -18 -39 -20 0 -31 7 -40 26 -13 27 -10 44 8 44 5 0 9 -9 9
-20z"/>
<path d="M14373 14623 c15 -2 37 -2 50 0 12 2 0 4 -28 4 -27 0 -38 -2 -22 -4z"/>
<path d="M14483 14623 c9 -2 23 -2 30 0 6 3 -1 5 -18 5 -16 0 -22 -2 -12 -5z"/>
<path d="M14025 14440 c3 -5 15 -10 26 -10 11 0 17 5 14 10 -3 6 -15 10 -26
10 -11 0 -17 -4 -14 -10z"/>
<path d="M15595 14440 c-3 -5 -2 -10 4 -10 5 0 13 5 16 10 3 6 2 10 -4 10 -5
0 -13 -4 -16 -10z"/>
<path d="M14120 14405 c0 -8 9 -15 20 -15 11 0 20 2 20 5 0 2 -9 9 -20 15 -16
9 -20 8 -20 -5z"/>
<path d="M15960 14409 c0 -5 5 -7 10 -4 6 3 10 8 10 11 0 2 -4 4 -10 4 -5 0
-10 -5 -10 -11z"/>
<path d="M15930 14390 c0 -5 5 -10 10 -10 6 0 10 5 10 10 0 6 -4 10 -10 10 -5
0 -10 -4 -10 -10z"/>
<path d="M15335 14329 c-15 -6 -11 -8 19 -8 22 -1 36 2 32 6 -10 10 -29 11
-51 2z"/>
<path d="M14625 14300 c-74 -5 -80 -7 -33 -8 31 -1 60 -6 63 -12 4 -6 66 -10
158 -9 150 1 152 8 7 23 -25 3 -58 7 -75 9 -16 2 -70 1 -120 -3z"/>
<path d="M15115 14110 c-19 -8 -19 -9 3 -9 12 -1 22 4 22 9 0 6 -1 10 -2 9 -2
0 -12 -4 -23 -9z"/>
<path d="M14950 14069 c-38 -16 -40 -18 -15 -16 33 4 85 23 85 32 0 9 -23 4
-70 -16z"/>
<path d="M14361 14049 c7 -8 28 -20 44 -28 17 -7 37 -17 45 -22 30 -17 83 -39
95 -39 8 0 11 8 8 19 -7 26 14 31 167 46 l125 12 -205 6 c-113 3 -225 9 -249
13 -38 5 -43 4 -30 -7z m142 -36 c-7 -2 -19 -2 -25 0 -7 3 -2 5 12 5 14 0 19
-2 13 -5z"/>
<path d="M14580 13946 c0 -9 40 -13 46 -5 3 5 -6 9 -20 9 -14 0 -26 -2 -26 -4z"/>
<path d="M14700 13900 c0 -5 9 -10 21 -10 11 0 17 5 14 10 -3 6 -13 10 -21 10
-8 0 -14 -4 -14 -10z"/>
<path d="M14795 13880 c-4 -6 8 -10 32 -10 22 0 45 -6 51 -12 10 -10 69 -13
227 -13 192 0 239 4 223 20 -3 3 -115 8 -249 10 -134 3 -251 8 -261 11 -9 2
-19 0 -23 -6z"/>
<path d="M15457 13720 c-9 -11 -13 -20 -8 -20 11 0 35 29 29 35 -2 2 -12 -4
-21 -15z"/>
<path d="M8499 13626 c-2 -3 -63 -10 -134 -15 -72 -6 -155 -18 -185 -25 -30
-8 -82 -20 -115 -27 -33 -7 -79 -21 -103 -31 -24 -10 -53 -18 -63 -18 -28 0
-345 -157 -383 -190 -17 -14 -49 -37 -71 -50 -90 -53 -277 -230 -358 -338 -23
-31 -44 -59 -47 -62 -6 -5 -35 -51 -67 -105 -37 -61 -125 -244 -135 -279 -7
-23 -17 -50 -24 -61 -7 -11 -16 -38 -20 -60 -3 -22 -13 -51 -20 -65 -7 -14
-20 -65 -28 -115 -8 -49 -20 -115 -26 -145 -11 -60 -15 -578 -4 -638 4 -20 10
-41 14 -47 4 -5 13 -52 19 -104 7 -51 18 -106 26 -122 8 -15 15 -36 15 -46 0
-19 40 -132 70 -198 10 -22 32 -70 48 -108 17 -37 48 -92 69 -123 21 -30 43
-65 50 -77 31 -56 222 -265 313 -342 119 -101 232 -177 360 -240 63 -31 122
-60 130 -64 33 -16 271 -85 345 -100 231 -46 563 -43 855 8 227 40 285 53 360
81 47 18 110 41 140 52 30 11 59 24 64 29 6 5 17 9 25 9 8 0 22 6 30 14 9 7
36 24 61 37 42 22 231 150 256 174 7 5 25 19 40 30 52 36 164 154 164 172 0
18 -366 380 -400 397 -19 8 -47 -10 -133 -87 -79 -71 -149 -119 -238 -165 -53
-27 -105 -52 -115 -55 -11 -3 -39 -13 -64 -23 -152 -57 -426 -97 -605 -89
-117 6 -148 10 -270 42 -99 25 -226 69 -235 81 -9 12 -86 62 -95 62 -13 0
-121 96 -190 168 -126 133 -209 271 -262 436 -14 45 -29 89 -34 98 -12 23 -11
95 0 103 6 3 642 6 1414 6 1124 0 1408 3 1422 13 16 11 18 36 18 257 0 139 -5
276 -11 319 -7 41 -19 127 -28 190 -23 173 -83 386 -159 565 -23 54 -115 215
-137 239 -10 11 -18 23 -18 27 0 8 -30 42 -139 161 -54 59 -249 208 -273 208
-9 0 -19 4 -22 9 -10 15 -118 75 -171 94 -186 67 -300 94 -465 108 -58 5 -141
14 -186 19 -80 10 -267 14 -275 6z m261 -622 c69 -3 130 -10 135 -14 6 -4 39
-17 75 -29 100 -34 213 -84 237 -105 7 -6 36 -27 65 -46 60 -39 161 -140 219
-215 54 -71 129 -223 129 -260 0 -17 5 -36 12 -43 14 -14 37 -166 38 -244 0
-45 -4 -59 -17 -66 -21 -11 -2125 -8 -2142 2 -15 10 -14 97 3 137 8 19 17 54
21 78 6 39 26 87 93 230 30 64 123 196 180 254 133 137 291 238 423 272 35 9
85 23 110 32 52 16 205 33 259 27 19 -2 91 -6 160 -10z"/>
<path d="M13270 13626 c-3 -3 -60 -10 -125 -16 -111 -11 -220 -37 -313 -76
-18 -8 -38 -14 -44 -14 -6 0 -40 -13 -75 -30 -34 -16 -65 -30 -68 -30 -6 0
-154 -89 -195 -118 -19 -14 -89 -80 -156 -147 -84 -85 -129 -139 -148 -179
-27 -56 -65 -81 -87 -59 -5 5 -10 150 -11 323 l-3 315 -395 0 -395 0 -3 -1874
c-1 -1399 1 -1877 9 -1888 10 -11 79 -13 388 -13 248 1 380 5 388 12 10 8 13
212 14 1007 0 549 4 1018 9 1046 5 28 12 70 15 95 8 57 32 148 49 180 7 14 16
40 19 58 4 18 14 40 22 48 8 9 15 24 15 34 0 11 20 51 45 89 25 38 45 73 45
76 0 23 204 232 275 282 71 50 146 93 163 93 9 1 28 7 42 15 14 8 35 14 48 15
12 0 33 6 45 14 34 22 105 28 316 28 174 0 203 -3 266 -23 38 -12 77 -26 85
-30 8 -5 22 -12 30 -15 97 -37 205 -110 277 -188 74 -82 140 -185 159 -249 9
-28 22 -68 29 -87 53 -143 55 -203 55 -1394 0 -857 3 -1086 13 -1093 15 -10
760 -14 776 -4 9 6 11 296 11 1237 -1 1282 -3 1376 -44 1527 -9 32 -16 67 -16
78 0 52 -107 307 -148 352 -9 10 -25 33 -37 52 -36 60 -123 160 -183 213 -68
60 -260 192 -280 192 -7 0 -28 10 -45 23 -44 32 -253 94 -362 108 -99 12 -467
24 -475 15z"/>
<path d="M22553 13600 c-204 -3 -373 -7 -375 -10 -2 -3 -18 -48 -35 -100 -17
-52 -47 -140 -66 -195 -19 -55 -47 -138 -61 -185 -15 -47 -35 -103 -46 -125
-10 -22 -32 -83 -48 -135 -41 -124 -206 -608 -220 -640 -5 -14 -16 -45 -22
-70 -7 -25 -23 -73 -36 -107 -13 -34 -24 -67 -24 -74 0 -7 -11 -36 -25 -64
-13 -29 -29 -72 -34 -96 -6 -24 -20 -69 -32 -99 -11 -30 -24 -70 -29 -88 -4
-18 -12 -38 -18 -45 -5 -7 -17 -39 -27 -72 -9 -33 -30 -96 -46 -140 -15 -44
-44 -132 -64 -195 -20 -63 -49 -149 -65 -190 -25 -65 -47 -130 -92 -270 -21
-66 -72 -114 -82 -77 -2 6 -14 46 -26 87 -12 41 -28 89 -35 105 -28 64 -34 83
-60 165 -14 47 -30 93 -36 102 -5 10 -9 26 -9 35 0 10 -7 27 -15 37 -8 11 -15
28 -15 38 0 10 -6 29 -14 41 -8 12 -17 39 -21 61 -3 21 -11 46 -16 55 -9 15
-91 244 -109 306 -5 17 -25 75 -45 130 -20 55 -41 118 -48 140 -6 22 -19 55
-29 73 -10 18 -18 43 -18 55 0 12 -15 58 -33 102 -19 44 -39 103 -47 130 -7
28 -19 64 -26 80 -19 42 -94 254 -104 290 -6 26 -81 247 -111 330 -6 17 -15
46 -21 65 -5 19 -15 40 -20 47 -6 7 -14 27 -18 45 -5 18 -32 98 -61 178 -28
80 -62 174 -75 210 l-23 65 -403 3 c-222 1 -408 0 -415 -2 -13 -5 18 -114 44
-151 7 -11 13 -27 13 -37 0 -16 23 -74 56 -141 8 -16 14 -35 14 -43 0 -8 13
-40 29 -72 16 -31 32 -73 36 -92 4 -19 14 -44 21 -55 7 -11 25 -56 39 -99 14
-43 32 -88 40 -99 8 -11 22 -45 31 -76 19 -66 33 -102 84 -216 10 -22 26 -67
36 -100 9 -33 21 -64 26 -70 4 -5 8 -15 8 -23 0 -14 5 -25 49 -124 11 -26 21
-52 21 -58 0 -6 11 -33 24 -60 14 -28 28 -65 32 -83 3 -17 10 -38 15 -47 20
-38 59 -130 59 -139 0 -6 18 -57 41 -113 22 -57 47 -121 56 -143 8 -22 19 -49
24 -60 5 -11 29 -74 54 -140 25 -66 50 -128 56 -138 5 -9 16 -39 25 -65 34
-102 201 -529 215 -547 3 -5 10 -26 14 -45 4 -19 11 -39 15 -45 4 -5 20 -46
35 -90 15 -44 31 -84 35 -90 4 -5 15 -37 25 -70 10 -33 24 -67 32 -76 7 -8 21
-40 32 -70 37 -107 44 -125 61 -164 9 -22 20 -54 24 -71 5 -20 16 -36 34 -43
18 -9 141 -14 416 -17 352 -3 391 -2 408 13 10 9 18 24 18 34 0 10 4 20 9 24
5 3 17 29 26 58 23 70 89 244 150 392 7 17 19 48 26 70 7 22 17 45 21 51 5 6
18 40 29 75 11 35 27 78 34 94 12 29 44 112 70 185 7 19 24 65 39 103 14 37
26 74 26 81 0 7 6 19 14 25 8 7 18 27 22 44 3 17 10 38 14 47 13 26 108 274
116 300 6 22 23 64 55 135 5 11 23 61 40 110 52 146 60 168 73 195 15 28 51
121 61 160 4 14 11 30 15 35 3 6 14 33 24 60 10 28 21 59 26 70 5 11 16 43 26
70 10 28 21 55 24 60 4 6 15 35 25 65 10 30 24 64 31 75 6 11 15 35 19 53 4
17 11 32 15 32 5 0 12 17 16 38 4 20 15 54 25 74 11 21 19 45 19 56 0 10 4 22
8 27 5 6 21 44 37 85 15 41 34 89 41 107 8 17 14 36 14 42 0 6 9 30 19 53 11
24 36 86 56 138 20 52 43 107 51 122 8 14 14 32 14 40 0 18 43 123 58 141 7 8
17 40 23 72 8 46 8 60 -3 66 -7 5 -17 8 -23 7 -5 -2 -177 -5 -382 -8z"/>
<path d="M16388 13563 c7 -3 16 -2 19 1 4 3 -2 6 -13 5 -11 0 -14 -3 -6 -6z"/>
<path d="M16315 13520 c-3 -5 -1 -10 4 -10 6 0 11 5 11 10 0 6 -2 10 -4 10 -3
0 -8 -4 -11 -10z"/>
<path d="M16003 13313 c-7 -2 -13 -11 -13 -18 0 -8 -9 -16 -19 -20 -24 -7
-181 -174 -181 -192 0 -16 1 -16 36 1 15 8 31 13 36 10 14 -9 48 16 48 36 0
13 7 20 20 20 26 0 27 -31 1 -47 -18 -11 -35 -63 -21 -63 4 0 15 16 26 35 10
19 22 35 25 35 4 0 9 10 13 23 3 12 21 40 41 62 43 48 60 75 46 75 -5 0 -13
-5 -16 -11 -4 -6 -12 -8 -19 -6 -7 3 -18 -8 -24 -23 -14 -32 -42 -48 -42 -24
0 8 16 30 35 50 44 44 48 74 8 57z m-127 -210 c-10 -10 -19 5 -10 18 6 11 8
11 12 0 2 -7 1 -15 -2 -18z"/>
<path d="M15230 13234 c0 -9 5 -14 12 -12 18 6 21 28 4 28 -9 0 -16 -7 -16
-16z"/>
<path d="M15721 13008 c-37 -42 -61 -78 -152 -218 -40 -62 -129 -240 -129
-258 0 -7 -4 -20 -9 -30 -15 -27 -53 -133 -61 -172 -4 -19 -17 -66 -28 -105
-32 -110 -41 -177 -54 -367 -12 -180 -2 -407 22 -511 74 -322 142 -514 235
-662 14 -22 28 -47 32 -55 7 -16 97 -151 123 -184 121 -156 305 -343 396 -404
10 -7 64 -44 119 -83 100 -70 306 -178 420 -219 257 -92 362 -115 650 -140
169 -15 406 7 613 56 103 25 313 97 372 129 14 8 52 26 84 41 220 103 483 309
662 520 23 27 51 59 62 72 11 12 30 38 43 57 13 19 27 35 32 35 4 0 7 5 7 11
0 6 11 25 25 43 14 18 25 36 25 39 0 4 16 31 35 61 19 30 35 57 35 60 0 3 16
38 35 77 19 40 35 81 35 91 0 10 4 18 9 18 12 0 20 59 9 66 -4 3 -8 1 -8 -5 0
-18 -58 -74 -69 -67 -6 4 -11 17 -12 29 0 15 -2 17 -6 7 -3 -8 -18 -29 -33
-46 -15 -17 -36 -51 -48 -76 -12 -24 -41 -67 -64 -96 -61 -73 -150 -189 -168
-217 -59 -93 -59 -93 -44 -106 18 -15 18 -29 -1 -29 -8 0 -14 5 -12 12 4 23
-28 18 -59 -9 -17 -16 -47 -37 -65 -48 -18 -11 -43 -27 -55 -35 -76 -54 -145
-96 -184 -113 -25 -11 -58 -30 -75 -42 -16 -12 -45 -25 -62 -28 -29 -6 -34 -3
-39 18 -3 14 -13 25 -20 25 -20 0 -30 30 -13 41 8 5 21 6 31 3 25 -7 31 12 13
40 -16 24 -15 25 9 41 14 10 26 21 26 26 0 18 -39 8 -104 -26 -37 -19 -74 -35
-81 -35 -7 0 -26 -6 -42 -14 -15 -8 -48 -20 -73 -26 -25 -7 -70 -20 -100 -30
-109 -35 -352 -70 -488 -70 -296 0 -654 90 -892 225 -34 19 -64 35 -66 35 -4
0 -52 31 -175 115 -93 62 -307 274 -386 382 -132 179 -236 393 -323 668 -5 17
-20 84 -32 150 -20 103 -23 151 -22 345 0 237 5 283 49 445 14 55 29 114 32
130 3 17 9 35 13 40 14 18 61 167 56 179 -2 6 -5 1 -5 -10 -1 -12 -8 -24 -16
-28 -8 -3 -15 -11 -15 -18 -1 -21 -47 -71 -59 -64 -15 10 -14 26 5 47 9 10 14
26 10 35 -6 16 -8 16 -25 0 -17 -16 -19 -16 -25 0 -4 10 -1 21 5 25 6 4 9 11
6 16 -9 14 20 90 43 113 11 11 20 28 20 37 0 9 9 27 21 39 12 12 20 27 18 32
-2 6 -19 -8 -38 -30z m-131 -747 c-1 -61 -19 -97 -45 -87 -11 4 -15 17 -13 43
1 21 -2 53 -6 70 -7 32 -7 32 28 31 l36 -1 0 -56z m-93 7 c-3 -7 -5 -2 -5 12
0 14 2 19 5 13 2 -7 2 -19 0 -25z m2843 -2032 c0 -2 -9 -6 -20 -9 -11 -3 -20
-1 -20 4 0 5 9 9 20 9 11 0 20 -2 20 -4z"/>
<path d="M15550 12241 c0 -17 18 -21 24 -6 3 9 0 15 -9 15 -8 0 -15 -4 -15 -9z"/>
<path d="M15790 12845 c0 -8 2 -15 4 -15 2 0 6 7 10 15 3 8 1 15 -4 15 -6 0
-10 -7 -10 -15z"/>
<path d="M19492 11635 c-7 -66 -15 -147 -19 -180 -3 -33 -10 -71 -15 -85 -9
-23 -24 -106 -33 -185 -2 -16 1 -37 6 -45 6 -12 9 -9 9 10 0 14 7 36 15 50 8
14 14 45 15 71 0 25 4 49 9 55 5 5 11 29 14 54 3 25 10 68 16 95 12 58 13 183
3 240 -7 34 -10 22 -20 -80z"/>
<path d="M19406 11098 c-5 -16 -5 -36 0 -45 7 -16 8 -15 11 5 3 12 3 32 0 45
-3 21 -4 20 -11 -5z"/>
<path d="M19335 11046 c-5 -7 -18 -27 -28 -46 -14 -26 -15 -35 -5 -41 16 -10
28 1 32 32 2 13 7 32 11 42 9 22 4 29 -10 13z"/>
<path d="M18428 10323 c7 -3 16 -2 19 1 4 3 -2 6 -13 5 -11 0 -14 -3 -6 -6z"/>
<path d="M18415 10260 c-8 -13 15 -24 27 -12 6 6 4 11 -6 15 -8 3 -18 2 -21
-3z"/>
<path d="M18378 10163 c7 -3 16 -2 19 1 4 3 -2 6 -13 5 -11 0 -14 -3 -6 -6z"/>
</g>
</svg>
