<?xml version="1.0" encoding="UTF-8"?>
<svg id="Camada_1" xmlns="http://www.w3.org/2000/svg" version="1.1" viewBox="0 0 1500 500">
  <!-- Generator: Adobe Illustrator 29.8.5, SVG Export Plug-In . SVG Version: 2.1.1 Build 2)  -->
  <defs>
    <style>
      .st0 {
        stroke: #4e7a2b;
      }

      .st0, .st1, .st2, .st3, .st4, .st5, .st6, .st7, .st8, .st9, .st10, .st11, .st12, .st13, .st14, .st15, .st16, .st17, .st18, .st19, .st20, .st21, .st22, .st23, .st24, .st25, .st26, .st27, .st28, .st29, .st30, .st31, .st32, .st33, .st34, .st35, .st36, .st37, .st38, .st39, .st40, .st41, .st42, .st43, .st44, .st45, .st46, .st47, .st48, .st49, .st50, .st51, .st52, .st53, .st54, .st55, .st56, .st57, .st58, .st59, .st60, .st61, .st62, .st63, .st64, .st65, .st66 {
        fill: none;
        stroke-width: 2px;
      }

      .st1 {
        stroke: #a0dc45;
      }

      .st67 {
        fill: #a5e52c;
      }

      .st2 {
        stroke: #104646;
      }

      .st68 {
        fill: #a1d555;
      }

      .st3 {
        stroke: #3abc54;
      }

      .st4 {
        stroke: #27ab66;
      }

      .st5 {
        stroke: #111e30;
      }

      .st6 {
        stroke: #29b26f;
      }

      .st69 {
        fill: #0fa873;
      }

      .st7 {
        stroke: #56c157;
      }

      .st8 {
        stroke: #74d241;
      }

      .st9 {
        stroke: #0f9769;
      }

      .st10 {
        stroke: #3a7238;
      }

      .st70 {
        fill: #73c157;
      }

      .st11 {
        stroke: #0f8568;
      }

      .st12 {
        stroke: #0ea464;
      }

      .st13 {
        stroke: #858a93;
      }

      .st71 {
        fill: #add95c;
      }

      .st14 {
        stroke: #115647;
      }

      .st72 {
        fill: #21956d;
      }

      .st15 {
        stroke: #205e47;
      }

      .st16 {
        stroke: #16946f;
      }

      .st73 {
        fill: #fff;
      }

      .st17 {
        stroke: #9ae12e;
      }

      .st18 {
        stroke: #848a93;
      }

      .st19 {
        stroke: #139f6d;
      }

      .st74 {
        fill: #7fd539;
      }

      .st75 {
        fill: #05836d;
      }

      .st76 {
        fill: #36a766;
      }

      .st20 {
        stroke: #38956f;
      }

      .st77 {
        fill: #1b9570;
      }

      .st78 {
        fill: #fefffe;
      }

      .st79 {
        fill: #039962;
      }

      .st80 {
        fill: #3db459;
      }

      .st21 {
        stroke: #0e8d6a;
      }

      .st22 {
        stroke: #96d74b;
      }

      .st23 {
        stroke: #56753e;
      }

      .st24 {
        stroke: #98d943;
      }

      .st25 {
        stroke: #87d935;
      }

      .st26 {
        stroke: #6ec850;
      }

      .st27 {
        stroke: #8b939c;
      }

      .st28 {
        stroke: #53c151;
      }

      .st29 {
        stroke: #2d9564;
      }

      .st30 {
        stroke: #19866a;
      }

      .st31 {
        stroke: #13554c;
      }

      .st32 {
        stroke: #249f6c;
      }

      .st33 {
        stroke: #09836d;
      }

      .st81 {
        fill: #8fdd30;
      }

      .st34 {
        stroke: #246540;
      }

      .st82 {
        fill: #0b9271;
      }

      .st83 {
        fill: #a2e621;
      }

      .st35 {
        stroke: #9ae228;
      }

      .st84 {
        fill: #0baa5f;
      }

      .st36 {
        stroke: #24af5c;
      }

      .st85 {
        fill: #69ce49;
      }

      .st86 {
        fill: #43bb6b;
      }

      .st37 {
        stroke: #116246;
      }

      .st87 {
        fill: #0a1527;
      }

      .st38 {
        stroke: #21a963;
      }

      .st39 {
        stroke: #3a664a;
      }

      .st88 {
        fill: #179667;
      }

      .st40 {
        stroke: #084c4a;
      }

      .st41 {
        stroke: #40a76a;
      }

      .st89 {
        fill: #69b76c;
      }

      .st42 {
        stroke: #90d547;
      }

      .st43 {
        stroke: #07a261;
      }

      .st44 {
        stroke: #0d8863;
      }

      .st45 {
        stroke: #276849;
      }

      .st46 {
        stroke: #084448;
      }

      .st90 {
        fill: #167764;
      }

      .st47 {
        stroke: #89da34;
      }

      .st48 {
        stroke: #14846b;
      }

      .st49 {
        stroke: #23a663;
      }

      .st50 {
        stroke: #58bb58;
      }

      .st51 {
        stroke: #a3dd41;
      }

      .st52 {
        stroke: #457530;
      }

      .st53 {
        stroke: #5c7742;
      }

      .st54 {
        stroke: #2d554c;
      }

      .st55 {
        stroke: #276446;
      }

      .st56 {
        stroke: #2da969;
      }

      .st57 {
        stroke: #1aa26b;
      }

      .st58 {
        stroke: #56b96c;
      }

      .st59 {
        stroke: #a8e03f;
      }

      .st60 {
        stroke: #36b456;
      }

      .st61 {
        stroke: #067b6b;
      }

      .st91 {
        fill: #92de2e;
      }

      .st92 {
        fill: #4f9571;
      }

      .st93 {
        fill: #18ae65;
      }

      .st62 {
        stroke: #12ac62;
      }

      .st63 {
        stroke: #0a9670;
      }

      .st94 {
        fill: #067368;
      }

      .st64 {
        stroke: #3f6b3f;
      }

      .st65 {
        stroke: #0b6043;
      }

      .st95 {
        fill: #43b364;
      }

      .st66 {
        stroke: #16554a;
      }
    </style>
  </defs>
  <g>
    <path class="st52" d="M855.48,95.87l13.31,9.81" vector-effect="non-scaling-stroke"/>
    <path class="st10" d="M868.79,105.68l-8.85-.69" vector-effect="non-scaling-stroke"/>
    <path class="st64" d="M859.94,104.99c-34.07-6.63-66.91-20-94.07-41.87-4.16-3.35-8.52-6.96-13.07-10.85-.17-.14-.41-.11-.55.06-.08.1-.11.23-.07.35,3.19,9.78,9.59,19.25,16.62,27.53,8.37,9.85,17.27,18.24,26.72,25.17" vector-effect="non-scaling-stroke"/>
    <path class="st34" d="M795.52,105.38c7.17,6.07,15.51,9.91,24.76,15.03,4.69,2.59,8.78,4.63,12.25,6.12,12.32,5.27,22.94,7.83,38.03,11.21" vector-effect="non-scaling-stroke"/>
    <path class="st65" d="M870.56,137.74c3.93.84,7.93,1.56,11.98,2.15,1.68.25,4.71,1.12,9.09,2.63" vector-effect="non-scaling-stroke"/>
    <path class="st15" d="M891.63,142.52c-5.53.97-11.1,2.06-16.5,2.45-22.13,1.6-43.43-.85-64.03-9.54-1.17-.49-2.57-.7-4.21-.63-.23.01-.4.21-.38.43,0,.07.03.14.06.2,1.15,1.81,2.19,3.11,3.12,3.9,12.17,10.35,24.39,17.79,36.67,22.32,7.93,2.92,17.34,4.85,28.23,5.79" vector-effect="non-scaling-stroke"/>
    <path class="st37" d="M874.59,167.44c12.66,1.66,23.51-.46,35.23-.31.17,0,.3.12.31.29,0,.11-.05.22-.15.27-4.1,2.64-7.82,4.73-12.62,6.13-9.98,2.93-19.85,4.06-30.08,3.15-3.07-.27-6.4-.44-10-.5-.27,0-.5.2-.51.47,0,.13.04.26.14.36,1.49,1.59,3.23,2.93,5.21,4.04,16.14,9.03,33.55,11.85,52.22,8.48,2.42-.44,4.14-.26,5.16.55" vector-effect="non-scaling-stroke"/>
    <path class="st31" d="M919.5,190.37c-1.16,1.59-3.74,4.8-7.73,9.64-4.43,5.35-8.77,12.72-13.02,22.09-2.18,4.8-3.16,8.88-5,14.1-1.09,3.11-1.96,6.74-2.6,10.89-.91,5.93-1.47,11.88-1.68,17.85" vector-effect="non-scaling-stroke"/>
    <path class="st2" d="M889.47,264.94c-.55,11.02.31,22.27,2.58,33.75.23,1.15.58,1.87,1.05,2.16.21.14.5.07.64-.14.02-.04.04-.08.05-.12.89-2.89,1.38-4.84,1.47-5.85.89-9.63,2.3-18.67,4.21-27.12,1.65-7.3,4.71-15.2,7.53-21.37,4.87-10.65,11.38-20.22,19.53-28.72,5.11-5.33,11.45-10.9,19.01-16.71" vector-effect="non-scaling-stroke"/>
    <path class="st55" d="M945.54,200.82l20.56-11.84" vector-effect="non-scaling-stroke"/>
    <path class="st10" d="M966.1,188.98c8.55-4.09,17.15-8.14,25.8-12.15,5.4-2.51,9.68-5.12,12.84-7.84,5.95-5.13,11.86-10.27,17.75-15.44" vector-effect="non-scaling-stroke"/>
    <path class="st52" d="M1022.49,153.55c3.38-2.51,7.07-4.62,11.07-6.32" vector-effect="non-scaling-stroke"/>
    <path class="st0" d="M1033.56,147.23l3.24-1.02" vector-effect="non-scaling-stroke"/>
    <path class="st53" d="M1036.8,146.21c10.97-3.14,20.57-1.19,31.05,2.4,3.67,1.26,5.1-.71,4.83-4.27-.47-6.39-5.8-9.93-11-13.8-.32-.24-.6-.53-.83-.85l-4.3-6.1c-.04-.05-.08-.1-.12-.15-1.99-1.92-4.52-3.36-7.59-4.32-5.36-1.67-11.73-3.18-19.12-4.55-7.23-1.34-12.54-5.46-15.93-12.36-1.23-2.53-2.31-4.63-3.23-6.3-.12-.23-.41-.32-.64-.2-.07.03-.12.08-.16.15-4.61,6.4-5.35,13.2-2.22,20.41.28.64,0,1.38-.64,1.67-.94.41-2.06.74-3.36.98-4.78.87-9.49,1.86-14.12,2.96-1.95.46-4.25,1.48-6.89,3.06" vector-effect="non-scaling-stroke"/>
    <path class="st52" d="M982.53,124.94c-.61,1.26-.85,2.72-.71,4.37.22,2.6.31,4.07.26,4.41-.66,4.62-2.58,8.64-5.75,12.06-.14.16-.39.17-.55.03-.08-.08-.13-.19-.13-.3.04-2.87-.13-6.37-.5-10.5-.14-1.52-.39-3.04-.75-4.55" vector-effect="non-scaling-stroke"/>
    <path class="st23" d="M974.4,130.46c-2.77-7.85-7.76-13.97-14.98-18.36-4.45-2.71-8.8-4.95-13.05-6.72-2.35-.97-11.19-4.39-26.52-10.26-9.28-3.55-17.96-7.7-26.29-10.95-8.82-3.43-18.38-8.15-26.04-12.69-3.42-2.03-9.72-6.34-18.9-12.94-13.51-9.7-25.54-21.33-36.09-34.9-5.06-6.51-8.44-11.09-10.13-13.76-.46-.73-1.56-2.07-3.3-4.02-.09-.11-.26-.13-.37-.03-.06.05-.09.13-.09.2-.04,3.59.38,7.2,1.25,10.85,2,8.34,4.69,18.09,8.73,26.1,6.96,13.81,15.45,25.62,25.48,35.42,5.86,5.73,12.99,11.55,21.38,17.47" vector-effect="non-scaling-stroke"/>
    <path class="st42" d="M974.4,130.46c-1.74-.82-2.93-1.57-3.56-2.25-6.25-6.7-12.2-13.27-20.58-17.4" vector-effect="non-scaling-stroke"/>
    <path class="st24" d="M950.26,110.81c-14.77-5.87-24.38-9.53-28.84-10.98-5.77-1.88-10.85-3.84-15.22-5.89-7.51-3.53-11.27-5.29-11.28-5.29-14.86-6.16-23.11-8.7-32.62-15.45-6.98-4.97-13.75-9.25-20.52-14.15" vector-effect="non-scaling-stroke"/>
    <path class="st51" d="M841.78,59.05c-1.83-2.1-3.89-4.07-6.18-5.92-3.05-2.45-4.76-3.88-5.13-4.28-6.65-7.1-12.29-12.25-18.04-20.44-1.01-1.44-2.02-2.26-3.02-2.45-1.35-.25-2.44.3-3.29,1.66-.19.31-.25.68-.16,1.02.76,3.06,1.76,5.86,3,8.4,4.51,9.26,7.96,17.64,15.34,24.96" vector-effect="non-scaling-stroke"/>
    <path class="st24" d="M824.3,62c2.47,4.12,5.62,7.97,9.43,11.56" vector-effect="non-scaling-stroke"/>
    <path class="st42" d="M833.73,73.56c5.61,6.19,11.78,11.72,18.5,16.59,2.02,1.47,3.1,3.37,3.25,5.72" vector-effect="non-scaling-stroke"/>
    <path class="st22" d="M982.53,124.94c1.12,2.63,3.36,1.45,5.19.59" vector-effect="non-scaling-stroke"/>
    <path class="st47" d="M987.72,125.53c-1.71,1.87-2.68,3.57-2.91,5.12-.67,4.32-1.68,8.3-3.05,11.93-.03.08,0,.18.09.22h.01c.07.03.15,0,.19-.06,0,0,0,0,0,0,1.58-3.41,3.71-5.64,7.9-4.11,4.11,1.51,7.17,2.95,9.18,4.33,5.29,3.63,10.73,7.19,16.93,7.25,1.37.01,3.98-.45,7.83-1.4,3.16-.78,6.38-1.3,9.67-1.57" vector-effect="non-scaling-stroke"/>
    <path class="st8" d="M1022.49,153.55c-3.87,1.17-6.32,2.19-7.36,3.08-4.26,3.6-8.74,6.78-13.44,9.54-.27.16-.61.18-.9.04-13.56-6.57-22.03-10.8-25.4-12.67-9.64-5.37-19.58-10.8-29.81-16.29-11.33-6.07-21.63-10.71-30.9-13.91-23.7-8.17-38.14-13.23-43.31-15.17-1.37-.52-2.23-1.35-2.58-2.49" vector-effect="non-scaling-stroke"/>
    <path class="st25" d="M950.26,110.81c3.65,2.95,7.15,5.99,10.49,9.11,1.13,1.05,1.82,2.06,2.06,3.02.11.44-.16.88-.6.99-.18.04-.37.03-.54-.05-.26-.12-6.14-2.74-17.65-7.85-3.21-1.43-9.91-3.99-14.92-5.58-15.03-4.77-27.86-9.03-38.48-12.8-9.59-3.4-23.54-7.15-33.01-10.94-7.45-2.99-15.41-7.37-23.88-13.15" vector-effect="non-scaling-stroke"/>
    <path class="st17" d="M841.78,59.05c-6.33,4.07-12.15,5.05-17.48,2.95" vector-effect="non-scaling-stroke"/>
    <path class="st7" d="M966.1,188.98c-4.17-1.93-7.98-4.36-11.41-7.29" vector-effect="non-scaling-stroke"/>
    <path class="st60" d="M954.69,181.69l.64-7.94" vector-effect="non-scaling-stroke"/>
    <path class="st3" d="M955.33,173.75c-.23-13.78-7.75-23.91-18.91-31.18-7.31-4.76-15.2-8.19-23.67-10.3-12.13-3.01-18.21-4.51-18.24-4.52-10.36-1.85-20.74-4-31.14-6.45" vector-effect="non-scaling-stroke"/>
    <path class="st28" d="M863.37,121.3c-2.41-.94-6.5-2.09-12.25-3.44-3.67-.87-12.77-3.82-27.3-8.85-2.77-.96-4.38-2.06-6.73-2.88-1.13-.4-2.75-1.24-4.88-2.53-9.5-5.74-20.15-10.44-30.24-15.56" vector-effect="non-scaling-stroke"/>
    <path class="st1" d="M1036.8,146.21c2.85-2.79,6.34-4.58,10.45-5.37" vector-effect="non-scaling-stroke"/>
    <path class="st59" d="M1047.25,140.84c7.53-.18,13.05,1.68,19.56,3.01.33.07.67-.09.82-.4.69-1.45.36-2.85-1-4.17-1.54-1.49-3.5-2.93-5.87-4.31-3.27-1.9-4.44-3.97-6.4-7.09-2.96-4.73-8.3-5.83-13.78-7.25-1.25-.32-6.08-1.47-14.51-3.46-1.48-.35-3.51-1.26-6.08-2.71-3.94-2.22-6.63-6.76-10.01-9.17-.29-.21-.7-.13-.9.16-.07.1-.11.21-.12.33-.24,3.84.48,6.53,1.7,13.09.1.55-.17,1.1-.68,1.35-4.03,1.97-8.36,3.35-13,4.12" vector-effect="non-scaling-stroke"/>
    <path class="st1" d="M996.98,124.34l-9.26,1.19" vector-effect="non-scaling-stroke"/>
    <path class="st35" d="M1047.25,140.84c-13.44-.65-24.5-2.19-36.25-8.7-4.67-2.59-9.35-5.19-14.02-7.8" vector-effect="non-scaling-stroke"/>
    <path class="st43" d="M955.33,173.75c-9.09-.91-17.95.32-26.58,3.69" vector-effect="non-scaling-stroke"/>
    <path class="st62" d="M928.75,177.44c-1.24-8.56-5.28-14.24-10.77-22.17-5.19-7.5-10.95-12.59-20.23-13.93" vector-effect="non-scaling-stroke"/>
    <path class="st38" d="M897.75,141.34c-2.45-.57-4.49-.18-6.12,1.18" vector-effect="non-scaling-stroke"/>
    <path class="st26" d="M859.94,104.99c-8.74-.21-18.2,1.02-26.37-1.83-.89-.31-3.16-1.36-6.81-3.16-7.01-3.46-17.02-6.54-21.46-8.51-3.61-1.61-11.56-5.48-23.83-11.63-1.7-.85-4.05-1.67-7.06-2.47-.33-.09-.66.11-.74.44-.04.16-.02.32.06.46,2.09,3.57,4.84,6.82,8.24,9.75" vector-effect="non-scaling-stroke"/>
    <path class="st50" d="M781.97,88.04c3.53,4.5,7.17,8.89,10.92,13.16.72.81,1.6,2.21,2.63,4.18" vector-effect="non-scaling-stroke"/>
    <path class="st49" d="M954.69,181.69c-1.11,5.07-2.83,7.79-6.07,13.3-.05.09-.11.17-.18.25l-3.57,4.07" vector-effect="non-scaling-stroke"/>
    <path class="st44" d="M944.87,199.31c-8.67,4.88-15.32,10.09-19.93,15.63-3.45,4.13-6.74,8.17-9.89,12.11-.75.93-2.28,2.03-4.31,3.11l-7.19,3.81" vector-effect="non-scaling-stroke"/>
    <path class="st9" d="M903.55,233.97l2.34-5.66" vector-effect="non-scaling-stroke"/>
    <path class="st36" d="M863.37,121.3c3.49,5.05,5.89,10.53,7.19,16.44" vector-effect="non-scaling-stroke"/>
    <path class="st29" d="M945.54,200.82l-.67-1.51" vector-effect="non-scaling-stroke"/>
    <path class="st12" d="M928.75,177.44c.39,5.85-.72,11.35-3.32,16.49-4.64,9.15-10.06,18.65-16.26,28.5-1.19,1.89-2.29,3.85-3.28,5.88" vector-effect="non-scaling-stroke"/>
    <path class="st57" d="M905.89,228.31l-3.63,5.24c-.4.57-1.18.71-1.75.32-.38-.26-.58-.7-.54-1.16.34-3.56,1.4-7.1,3.17-10.61,4.42-8.73,9.51-16.65,15.26-23.76.79-.97,1.57-2.64,2.36-5.03.49-1.46.07-2.44-1.26-2.94" vector-effect="non-scaling-stroke"/>
    <path class="st4" d="M897.75,141.34c.29.11.46.23.49.34.1.4-.17.81-.61.92-.03,0-.07.01-.1.02-1.43.19-2.51.32-3.25.41-.33.04-.64.11-.95.22-4.47,1.63-8.25,2.63-11.34,3.02-3.97.49-7.54,1.11-10.7,1.84-6.91,1.61-11.19,1.83-18.24,2.03-4.28.11-7.69,1.79-10.23,5.04-.18.23-.14.55.09.73.02.02.05.04.08.05,8.08,4.25,14.46,5.47,26.86,8.52.2.05.39.14.56.25l4.18,2.71" vector-effect="non-scaling-stroke"/>
    <path class="st30" d="M903.55,233.97c-4.3,9.51-6.24,19.81-8.82,30.14-.68,2.68-2.15,8.13-4.29,8.97-.19.08-.42-.02-.49-.21-.01-.04-.02-.08-.03-.12l-.45-7.81" vector-effect="non-scaling-stroke"/>
    <path class="st13" d="M363.65,306.23c21.83-8.45,37.31-22.88,46.42-43.31,5.97-13.37,8.03-29.05,7.74-44.62-.21-11.7-2.3-22.62-6.25-32.75-7.47-19.13-23.17-34.37-41.77-42.48-18.07-7.89-38.1-10.59-58.29-10.59-43.9,0-78.88,0-104.94.01-.18,0-.33.15-.33.33h0v261.1c0,.33.26.59.58.59h43.1c.24,0,.44-.2.44-.44h0v-78.86c0-.27.21-.48.48-.48h73.12c.2,0,.4.11.51.29l47.53,79.02c.17.29.49.47.83.47h49.03c.17,0,.3-.13.3-.3,0-.06-.02-.12-.05-.17l-58.58-87.38c-.09-.13-.06-.31.07-.4.02-.01.04-.02.06-.03" vector-effect="non-scaling-stroke"/>
    <path class="st66" d="M949.65,213.31c-7.42,5.17-12.75,11.42-18.58,18.77-19.48,24.52-27.14,56.64-22.34,87.51" vector-effect="non-scaling-stroke"/>
    <path class="st46" d="M908.73,319.59c2.14,12.72,5.9,25.73,12.54,36.91,9.12,15.36,21.5,29.72,36.24,39.74,21.06,14.33,44.58,20.85,70.55,19.56,8.78-.44,17.28-1.98,25.51-4.62,8.51-2.74,16.46-6.17,23.85-10.3,8.44-4.72,16.22-10.68,23.35-17.88" vector-effect="non-scaling-stroke"/>
    <path class="st14" d="M1100.77,383c7.52-7.25,13.24-13.94,17.16-20.08,9.27-14.51,14.92-31.12,16.96-49.85.53-4.87.32-12.04-.63-21.51" vector-effect="non-scaling-stroke"/>
    <path class="st39" d="M1134.26,291.56c-.7-9.29-2.36-17.33-4.97-24.12-3.99-10.35-7.04-16.98-10.86-23.2-.12-.21-.38-.27-.59-.15-.15.09-.24.27-.21.45.03.21.23.69.62,1.44,5.52,10.85,7.62,23.84,8.06,36.45.6,17.49-3.1,34.09-11.1,49.78" vector-effect="non-scaling-stroke"/>
    <path class="st45" d="M1115.21,332.21c-8.8,16.15-20.61,29.16-35.43,39.04" vector-effect="non-scaling-stroke"/>
    <path class="st40" d="M1079.78,371.25c-26.67,16.04-58.69,19.57-87.99,9.15" vector-effect="non-scaling-stroke"/>
    <path class="st46" d="M991.79,380.4c-30.61-11.85-50.59-33.58-59.96-65.21" vector-effect="non-scaling-stroke"/>
    <path class="st66" d="M931.83,315.19c-2.27-8.31-3.69-16.79-4.26-25.45-.89-13.48,2.37-27.07,7.07-39.59,4.4-11.72,11.94-22.61,19.64-31.79" vector-effect="non-scaling-stroke"/>
    <path class="st54" d="M954.28,218.36c3.82-4.07,6.66-6.85,8.52-8.32,7.34-5.79,14.93-10.74,22.78-14.84.28-.15.4-.48.27-.77v-.02c-.13-.29-.46-.44-.76-.34-12.97,4.23-24.79,10.64-35.44,19.24" vector-effect="non-scaling-stroke"/>
    <path class="st20" d="M954.28,218.36l-4.63-5.05" vector-effect="non-scaling-stroke"/>
    <path class="st48" d="M931.83,315.19c-.81.02-1.61.2-2.4.53" vector-effect="non-scaling-stroke"/>
    <path class="st16" d="M929.43,315.72c-2.72-7.95-4.16-16.17-4.33-24.67-.2-10.33.03-17.23.69-20.72,1.77-9.43,2.66-14.3,2.68-14.62.27-3.45-.03-6.22-.9-8.29-.33-.78-1.23-1.14-2.01-.81-.38.16-.67.46-.82.84-.44,1.11-2.55,5.62-6.33,13.53-1.02,2.13-2.74,7.26-5.17,15.41" vector-effect="non-scaling-stroke"/>
    <path class="st48" d="M913.24,276.39c-.81,7.93-1.82,15.88-3.03,23.85-1.02,6.78-1.29,12.77-1.48,19.35" vector-effect="non-scaling-stroke"/>
    <path class="st61" d="M991.79,380.4c-2.32.93-3.95,1.87-4.9,2.83-3.22,3.26-.25,7.62,2.52,10.03,4.4,3.84,9.88,6.64,16.45,8.4,10.31,2.77,21.23,4.79,32.77,6.04,8.18.89,15.87-.08,23.07-2.9,10.95-4.29,21.46-10.47,31.52-18.54" vector-effect="non-scaling-stroke"/>
    <path class="st11" d="M1093.22,386.26l7.55-3.26" vector-effect="non-scaling-stroke"/>
    <path class="st33" d="M929.43,315.72c.51,2.16.65,4.34.42,6.53-.15,1.48-1.27,2.18-2.55,1.35-1.58-1.01-2.99-2.39-4.22-4.12-5.95-8.35-9.26-17.57-9.91-27.68-.27-4.17-.24-9.3.07-15.41" vector-effect="non-scaling-stroke"/>
    <path class="st21" d="M1093.22,386.26c-4.34.45-8.73.2-13.18-.75" vector-effect="non-scaling-stroke"/>
    <path class="st19" d="M1080.04,385.51c7.61-4.82,13.64-9.27,18.11-13.35,3.28-2.99,6.77-7.2,10.48-12.62" vector-effect="non-scaling-stroke"/>
    <path class="st56" d="M1108.63,359.54c4.13-5.38,7.8-11.01,10.99-16.9,1.91-3.53,3.85-7.99,5.8-13.4,3-8.33,6.46-15.62,6.07-25.23" vector-effect="non-scaling-stroke"/>
    <path class="st6" d="M1108.63,359.54c-3.29-1.02-5.89-.77-7.81.74-5.5,4.33-11.19,8.31-17.06,11.94" vector-effect="non-scaling-stroke"/>
    <path class="st32" d="M1083.76,372.22l-3.98-.97" vector-effect="non-scaling-stroke"/>
    <path class="st63" d="M1080.04,385.51c-7.13,4.46-14.71,8.02-22.74,10.69-5.25,1.74-10.45,2.18-15.58,1.32-3.23-.54-5.6-2.14-7.11-4.8-.44-.78-.25-1.77.46-2.32.74-.59,1.72-.97,2.95-1.16,9.92-1.54,19.74-3.39,28.87-7.78,5.95-2.86,10.93-4.8,16.87-9.24" vector-effect="non-scaling-stroke"/>
    <path class="st41" d="M1134.26,291.56c-.07,4.29-1,8.44-2.77,12.45" vector-effect="non-scaling-stroke"/>
    <path class="st58" d="M1131.49,304.01c-.51,4.3-1.58,7.95-4.38,11.44-1.84,2.29-2.96,4-3.35,5.14-2.18,6.31-3.48,11.75-6.75,15.24-.48.51-1.28.53-1.8.05-.3-.29-.45-.7-.38-1.11l.38-2.56" vector-effect="non-scaling-stroke"/>
    <path class="st13" d="M499.34,311.25h149.11c.34,0,.62-.26.65-.6,3.44-40.68-5.36-86.52-44.61-106.5-10.39-5.29-22.73-8.42-37.01-9.41-13.38-.93-26.11,0-38.2,2.8-16.61,3.83-31.16,11.48-43.64,22.93-15.08,13.82-24.97,32.85-28.48,53.22-4.82,28-.78,58.09,15.86,81.73,16.3,23.15,41.88,37.25,70.26,39.81,7.64.69,15.97.71,24.98.04,26.88-1.98,52.38-12.94,70.76-32.67.2-.22.2-.55-.01-.76l-21.97-21.97c-.23-.23-.61-.23-.85,0-15.44,15.61-34.23,23.3-56.38,23.07-22.13-.23-39.22-9.19-51.25-26.88-4.69-6.89-7.93-14.95-9.72-24.2-.06-.28.12-.54.4-.6.03,0,.07,0,.1,0" vector-effect="non-scaling-stroke"/>
    <path class="st5" d="M745.42,260.67c3.54-1.55,7.24-4.35,11.1-8.4,3.41-3.57,8.81-6.84,16.19-9.8,4.77-1.91,6.29-2.19,10.72-4.7,6.55-3.71,15.7-.65,24.81-3.57" vector-effect="non-scaling-stroke"/>
    <path class="st13" d="M808.24,234.2c13.23,2.87,23.55,12.4,28.9,24.66,2.69,6.18,4.09,13.62,4.18,22.33.13,11.68.15,46.7.06,105.06,0,1.99.07,4.52.24,7.59.03.46.4.81.86.81h41.44c.48,0,.87-.39.87-.87-.15-66.91-.24-107.09-.25-120.53,0-4.56-.29-9.64-.86-15.23-2.23-22-12.99-42.77-32.45-53.71-9.39-5.27-19.17-8.41-29.35-9.42-18.62-1.84-40.68.66-57.54,9.97-11.59,6.39-20.49,15.59-26.71,27.58-.07.13-.23.18-.36.11-.04-.02-.08-.05-.1-.09-.13-.23-.2-.55-.2-.98.07-11.79.07-23.49.01-35.1,0-.35-.29-.63-.64-.63h-41.92c-.22,0-.4.17-.4.39v198.07c0,.17.14.3.31.3h42.17c.27,0,.48-.22.48-.49h0c.09-50.22.08-82.06-.03-95.53-.06-8.05.44-14.5,1.5-19.36,1.41-6.47,3.74-12.63,6.97-18.46" vector-effect="non-scaling-stroke"/>
    <path class="st27" d="M808.24,234.2c-1.81-.65-3.4-1.07-4.76-1.24-24.55-3.12-46,5.45-58.06,27.71" vector-effect="non-scaling-stroke"/>
    <path class="st13" d="M1216.39,354.02c-.15-.01-.29-.12-.34-.27l-54.79-157.43c-.12-.34-.43-.56-.78-.56h-43.8c-.23,0-.42.19-.42.42,0,.05,0,.1.03.15l76.73,197.69c.12.3.4.49.71.49h43.43c.31,0,.58-.19.69-.48l76.05-197.95c.05-.12,0-.26-.13-.31-.03-.01-.06-.02-.09-.02h-42.29c-.23,0-.43.15-.5.36-1.53,4.46-19.43,56.56-53.7,156.31-.14.42-.21.68-.21.79,0,.58-.2.85-.59.81" vector-effect="non-scaling-stroke"/>
    <path class="st18" d="M555.65,446.18v-15.63c0-.28-.22-.5-.49-.5h-3.7c-.28,0-.51.23-.51.51h0v41.9c0,.29.24.53.53.53h3.64c.29,0,.52-.23.52-.51.03-4.34.03-9.92,0-16.73-.04-12.31,17.73-13.45,17.75-.13,0,3.55,0,9.15-.02,16.8,0,.33.26.59.59.59h3.52c.33,0,.6-.26.6-.59h0c.04-8.54.03-14.51-.04-17.9-.24-11.83-13.75-17.36-21.84-8.13-.11.13-.31.14-.44.03-.07-.06-.11-.15-.11-.24" vector-effect="non-scaling-stroke"/>
    <path class="st18" d="M1033.6,469.08v3.48c0,.25.2.46.45.46h3.78c.28,0,.51-.23.51-.51v-42.13c0-.18-.15-.32-.33-.32h-4.09c-.17,0-.31.14-.31.31h0v15.71c0,.23-.18.41-.4.42-.13,0-.26-.06-.34-.17-5.28-6.92-17.79-5.51-22.13,1.56-3.65,5.95-3.99,11.88-1.02,17.8,4.42,8.81,16.86,10.77,23.37,3.2.1-.12.29-.14.41-.03.06.06.1.14.1.22" vector-effect="non-scaling-stroke"/>
    <path class="st18" d="M1167.65,430.49c0-.25-.2-.45-.45-.45h-3.8c-.25,0-.45.2-.45.45h0v42.04c0,.25.2.45.45.45h3.8c.25,0,.45-.2.45-.45h0v-42.04" vector-effect="non-scaling-stroke"/>
    <path class="st18" d="M1180.13,446.18l-.02-15.64c0-.28-.22-.5-.49-.5h-3.7c-.28,0-.51.24-.51.52h0s.04,41.92.04,41.92c0,.29.24.53.53.53h3.65c.29-.01.52-.24.52-.52.02-4.34.01-9.92-.02-16.74-.06-12.31,17.72-13.47,17.76-.15,0,3.56,0,9.16-.01,16.81,0,.33.26.59.59.59,0,0,0,0,.01,0h3.52c.33,0,.6-.26.6-.59.03-8.55,0-14.52-.06-17.91-.26-11.84-13.78-17.36-21.86-8.11-.11.13-.31.14-.44.03-.07-.06-.11-.15-.11-.24" vector-effect="non-scaling-stroke"/>
    <path class="st18" d="M648.01,431.57c0-.25-.21-.46-.46-.46h-4.06c-.25.02-.46.22-.46.48h0s.02,5.2.02,5.2c0,.25.21.46.46.46h4.06c.25-.02.46-.22.46-.48h0s-.02-5.2-.02-5.2" vector-effect="non-scaling-stroke"/>
    <path class="st18" d="M746.03,431.61c0-.25-.21-.46-.46-.46h-4.08c-.25,0-.46.21-.46.46v5.18c0,.25.21.46.46.46h4.08c.25,0,.46-.21.46-.46h0v-5.18" vector-effect="non-scaling-stroke"/>
    <path class="st18" d="M932.04,431.61c0-.26-.21-.47-.47-.47h-4.06c-.26,0-.47.22-.47.48h0s0,5.16,0,5.16c0,.26.21.47.47.47h4.06c.26,0,.47-.22.47-.48h0s0-5.16,0-5.16" vector-effect="non-scaling-stroke"/>
    <path class="st18" d="M374.41,452.66v19.95c0,.2.17.37.38.37h29.22c.22,0,.4-.17.4-.39h0v-3.66c0-.24-.2-.44-.44-.44h-24.44c-.24,0-.44-.19-.44-.43v-12.69c0-.24.2-.43.44-.43h21.66c.27,0,.48-.22.49-.49,0-.56.01-1.16.01-1.79,0-.63,0-1.23-.01-1.79,0-.28-.22-.5-.49-.5h-21.66c-.24,0-.44-.19-.44-.43v-12.69c0-.24.2-.43.44-.43h24.44c.24,0,.44-.19.44-.43v-3.66c0-.22-.18-.39-.4-.39h-29.22c-.21,0-.38.16-.38.36v19.96" vector-effect="non-scaling-stroke"/>
    <path class="st18" d="M706.41,472.52c0,.26.21.47.47.47h3.75c.26,0,.47-.21.47-.47v-16.6c0-.26.21-.47.47-.47h21.09c.26,0,.47-.21.47-.47h0v-3.63c0-.26-.21-.47-.47-.47h-21.1c-.26,0-.47-.21-.47-.47v-13.1c0-.26.21-.47.47-.47h23.8c.26,0,.47-.21.47-.47h0v-3.56c0-.26-.21-.47-.47-.47h-28.48c-.26,0-.47.21-.47.47h0v39.71" vector-effect="non-scaling-stroke"/>
    <path class="st18" d="M1099.12,472.48l-.04-16.56c0-.25.21-.46.46-.46h20.96c.34,0,.62-.28.63-.62l.03-3.33c0-.35-.28-.64-.63-.64h0l-20.99.03c-.25,0-.45-.2-.45-.45h0s-.01-13.2-.01-13.2c0-.23.19-.41.42-.41h23.96c.2,0,.36-.17.36-.37v-3.77c0-.19-.16-.35-.35-.35h-28.43c-.35-.01-.63.27-.63.62h0v39.51c0,.28.23.5.51.51l3.66.03c.3,0,.54-.24.54-.54h0" vector-effect="non-scaling-stroke"/>
    <path class="st18" d="M415.37,446.06v-3.25c0-.29-.24-.53-.53-.53h-3.58c-.33,0-.59.26-.59.59l.03,29.62c0,.28.23.51.52.51h3.67c.29,0,.52-.23.52-.52.01-9.47,0-14.97-.03-16.48-.21-10.21,13.37-14.09,17.12-4.54.52,1.33.74,4.25.65,8.75v12.24c0,.29.24.53.53.53h3.63c.3,0,.54-.24.54-.54h0c0-3.97,0-9.45-.01-16.44-.01-5.99-2.01-10.94-7.41-13.18-3.79-1.57-7.6-1.32-11.43.73-.91.49-2.37,2.1-3.03,2.76-.14.14-.36.14-.49,0-.07-.07-.11-.16-.11-.26" vector-effect="non-scaling-stroke"/>
    <path class="st18" d="M468.76,446.24c-3.91-4.04-8.72-5.33-14.44-3.86-13.56,3.47-14.5,24.48-2.02,29.38,6.5,2.56,12.08,1.39,16.75-3.5.07-.08.19-.08.27-.01.04.04.06.09.06.14.03,6.46-.18,12.01-8.33,12.92-5.05.57-8.63-.91-10.73-4.42-.1-.16-.28-.26-.47-.26h-4.51c-.09,0-.16.07-.16.16,0,.02,0,.04.01.06,1.73,4.17,4.55,6.82,8.45,7.95,7.28,2.11,17.41.57,19.68-7.75.48-1.76.72-3.94.72-6.55,0-5.21,0-14.42-.01-27.63,0-.33-.26-.6-.59-.6h-3.64c-.24,0-.43.19-.43.43h0v3.29c0,.2-.16.36-.36.36-.1,0-.19-.04-.25-.11" vector-effect="non-scaling-stroke"/>
    <path class="st18" d="M508.8,464.13h-3.41c-.45,0-.88.21-1.16.56-3.87,4.94-8.59,5.95-14.14,3.03-2.65-1.39-4.34-3.9-5.06-7.51-.06-.29.13-.58.42-.64.04,0,.07-.01.11-.01h24.55c.17,0,.31-.12.33-.29.91-8.86-4.76-17.03-14.01-17.37-12.19-.45-19.11,10.18-15.48,21.19,4.25,12.9,22.68,14.44,28.34,1.8.12-.27,0-.59-.27-.71-.07-.03-.14-.05-.22-.05" vector-effect="non-scaling-stroke"/>
    <path class="st18" d="M520.87,446.05v-3.26c.01-.29-.23-.53-.52-.53h-3.58c-.33-.01-.59.25-.59.58,0,0,0,0,0,.01l-.04,29.66c0,.28.23.51.52.51h3.68c.29,0,.52-.22.52-.51.03-9.49.03-14.99,0-16.51-.19-10.22,13.42-14.09,17.15-4.51.52,1.34.73,4.26.64,8.76,0,.01-.01,4.1-.03,12.27,0,.29.24.53.53.53h3.64c.3,0,.54-.24.54-.54h0c.01-3.97.02-9.46.02-16.46.01-6-1.99-10.96-7.39-13.21-3.79-1.58-7.6-1.35-11.45.7-.91.49-2.37,2.1-3.04,2.76-.14.14-.36.14-.49,0-.07-.07-.11-.16-.11-.26" vector-effect="non-scaling-stroke"/>
    <path class="st18" d="M583.55,457.67c0,7.68,4.49,14.4,12.39,15.63,5.27.83,9.58-.65,12.95-4.43.09-.11.26-.13.37-.03.06.05.09.13.09.2v3.44c0,.3.25.55.55.55h3.55c.33,0,.59-.26.59-.59.01-4.83.01-9.75,0-14.77.01-5.03.01-9.95,0-14.77,0-.33-.26-.59-.59-.59h-3.55c-.3,0-.55.25-.55.55h0v3.44c0,.14-.11.26-.26.26-.08,0-.15-.03-.2-.09-3.37-3.79-7.68-5.27-12.95-4.44-7.9,1.24-12.39,7.96-12.39,15.64" vector-effect="non-scaling-stroke"/>
    <path class="st18" d="M626.64,448.3v-5.43c0-.34-.27-.61-.61-.61h-3.47c-.34,0-.61.27-.61.61v29.63c0,.29.23.52.51.52h3.71c.28,0,.51-.23.51-.52-.03-5.23-.04-9.55-.01-12.98.04-6.46,3.87-13.04,10.93-12.94.38,0,.69-.3.69-.68v-3.47c0-.33-.27-.6-.6-.6,0,0-.01,0-.02,0-4.71.12-8.22,2.32-10.53,6.6-.08.13-.24.17-.37.09-.08-.05-.13-.13-.13-.22" vector-effect="non-scaling-stroke"/>
    <path class="st18" d="M653.81,457.67c0,7.68,4.5,14.4,12.4,15.64,5.27.83,9.59-.65,12.96-4.44.09-.11.26-.13.37-.03.06.05.1.13.09.2v3.44c0,.3.25.55.55.55h3.55c.33,0,.59-.26.59-.59h0c.01-4.83.01-9.75,0-14.77.01-5.03.01-9.95,0-14.78,0-.33-.26-.59-.59-.59h-3.55c-.3,0-.55.25-.55.55h0v3.44c0,.14-.11.26-.26.26-.08,0-.15-.03-.2-.09-3.37-3.79-7.69-5.27-12.96-4.44-7.9,1.24-12.4,7.96-12.4,15.65" vector-effect="non-scaling-stroke"/>
    <path class="st18" d="M758.37,446.06v-3.25c-.01-.29-.25-.53-.54-.53h-3.57c-.33,0-.59.26-.59.59h0s.02,29.64.02,29.64c0,.28.23.51.52.51,0,0,0,0,.01,0h3.67c.29-.01.52-.24.52-.53.01-9.47,0-14.97-.03-16.49-.21-10.21,13.37-14.1,17.12-4.54.53,1.33.74,4.25.65,8.75,0,.01,0,4.1,0,12.26,0,.29.24.53.53.53h3.64c.3-.01.54-.25.54-.55,0-3.97,0-9.45-.02-16.45,0-5.98-2.01-10.94-7.41-13.18-3.79-1.57-7.6-1.33-11.43.72-.91.5-2.37,2.11-3.03,2.77-.14.14-.36.14-.49,0-.07-.07-.11-.16-.11-.26" vector-effect="non-scaling-stroke"/>
    <path class="st18" d="M786.55,457.66c0,7.68,4.49,14.4,12.39,15.63,5.27.83,9.59-.65,12.95-4.43.09-.11.26-.13.37-.03.06.05.09.13.09.2v3.43c0,.3.25.54.55.55h3.55c.33,0,.59-.26.59-.59.01-4.82.01-9.74,0-14.76.01-5.03.01-9.95,0-14.77,0-.33-.26-.59-.59-.59h-3.55c-.3,0-.55.25-.55.55h0v3.44c0,.14-.11.26-.26.26-.08,0-.15-.03-.2-.09-3.37-3.79-7.69-5.26-12.96-4.43-7.9,1.24-12.38,7.96-12.38,15.63" vector-effect="non-scaling-stroke"/>
    <path class="st18" d="M829.64,446.05v-3.25c0-.29-.24-.53-.53-.53h-3.57c-.33,0-.59.26-.59.59v29.6c0,.28.23.51.52.51h3.67c.29,0,.52-.23.52-.52.02-9.47.01-14.96-.02-16.47-.2-10.2,13.37-14.07,17.11-4.52.52,1.33.73,4.25.64,8.74,0,.01,0,4.09-.01,12.24,0,.29.24.53.53.53h3.63c.3,0,.54-.24.54-.54h0c0-3.97,0-9.44,0-16.43,0-5.98-2-10.93-7.39-13.17-3.78-1.57-7.59-1.34-11.42.71-.91.49-2.37,2.1-3.03,2.76-.14.14-.36.14-.49,0-.07-.07-.11-.16-.11-.26" vector-effect="non-scaling-stroke"/>
    <path class="st18" d="M857.81,457.7c.04,17.56,22.29,21.7,29.36,6.65.17-.38,0-.82-.37-.99-.1-.04-.2-.07-.31-.07h-2.98c-.64,0-1.23.35-1.54.92-1.79,3.29-4.53,4.97-8.24,5.03-6.75.1-11.17-5-11.18-11.55-.02-6.55,4.38-11.67,11.13-11.6,3.71.05,6.46,1.71,8.26,4.99.31.57.9.92,1.54.92l2.98-.02c.41,0,.75-.34.75-.75,0-.11-.02-.21-.07-.31-7.14-15.01-29.37-10.78-29.33,6.78" vector-effect="non-scaling-stroke"/>
    <path class="st18" d="M919.81,464.13h-3.41c-.45,0-.88.21-1.16.56-3.87,4.94-8.59,5.95-14.15,3.03-2.65-1.39-4.34-3.9-5.06-7.51-.06-.29.13-.58.42-.64.04,0,.07-.01.11-.01h24.56c.17,0,.31-.12.33-.29.91-8.87-4.76-17.04-14.02-17.38-12.19-.45-19.11,10.18-15.48,21.2,4.25,12.9,22.69,14.45,28.35,1.8.12-.27,0-.59-.27-.71-.07-.03-.14-.05-.22-.05" vector-effect="non-scaling-stroke"/>
    <path class="st18" d="M944.64,448.3v-5.42c0-.34-.27-.61-.61-.61h-3.46c-.34,0-.61.27-.61.61h0v29.59c0,.29.23.52.51.52h3.7c.28,0,.51-.23.51-.52-.03-5.22-.04-9.54-.01-12.96.04-6.46,3.87-13.03,10.92-12.93.38,0,.69-.3.69-.68v-3.46c0-.33-.27-.6-.6-.6,0,0-.01,0-.02,0-4.7.12-8.21,2.32-10.52,6.59-.08.13-.24.17-.37.09-.08-.05-.13-.13-.13-.22" vector-effect="non-scaling-stroke"/>
    <path class="st18" d="M958.31,457.66c0,7.68,4.5,14.4,12.4,15.63,5.27.83,9.59-.65,12.95-4.44.09-.11.26-.13.37-.03.06.05.1.13.09.2v3.44c0,.3.25.55.55.55h3.55c.33,0,.59-.26.59-.59h0c.01-4.82.01-9.74,0-14.77,0-5.02,0-9.94-.01-14.77,0-.33-.26-.59-.59-.59h-3.55c-.3,0-.55.26-.55.56h0v3.43c0,.14-.11.26-.26.26-.08,0-.15-.03-.2-.09-3.37-3.78-7.68-5.25-12.95-4.42-7.9,1.23-12.39,7.96-12.39,15.63" vector-effect="non-scaling-stroke"/>
    <path class="st18" d="M1073.04,464.13h-3.4c-.45,0-.88.21-1.16.56-3.87,4.94-8.59,5.95-14.14,3.04-2.65-1.39-4.34-3.9-5.07-7.51-.06-.29.13-.58.42-.64.04,0,.07-.01.11-.01h24.55c.17,0,.31-.13.33-.3.91-8.86-4.76-17.03-14.02-17.36-12.18-.45-19.09,10.18-15.46,21.19,4.25,12.89,22.68,14.43,28.33,1.79.12-.27,0-.59-.27-.71-.07-.03-.14-.05-.22-.05" vector-effect="non-scaling-stroke"/>
    <path class="st18" d="M1141.87,441.65c-8.49-.04-15.42,7.09-15.46,15.94h0c-.05,8.85,6.8,16.06,15.3,16.1,8.49.04,15.42-7.09,15.46-15.94h0c.05-8.85-6.8-16.06-15.3-16.1" vector-effect="non-scaling-stroke"/>
    <path class="st18" d="M1208.31,457.67c0,7.68,4.5,14.4,12.4,15.63,5.27.83,9.59-.65,12.95-4.44.09-.11.26-.13.37-.03.06.05.1.13.09.2v3.44c0,.3.25.55.55.55h3.55c.33,0,.59-.27.59-.6h0c.01-4.82.01-9.74,0-14.77,0-5.02,0-9.94-.01-14.77,0-.33-.27-.59-.6-.58h-3.55c-.3,0-.54.25-.54.55v3.44c0,.14-.11.26-.26.26-.08,0-.15-.03-.2-.09-3.37-3.79-7.69-5.26-12.96-4.43-7.9,1.24-12.39,7.97-12.38,15.64" vector-effect="non-scaling-stroke"/>
    <path class="st18" d="M647.87,442.79c0-.29-.23-.52-.52-.52h-3.64c-.29,0-.52.23-.52.52h0v29.68c0,.29.23.52.52.52h3.64c.29,0,.52-.23.52-.52h0v-29.68" vector-effect="non-scaling-stroke"/>
    <path class="st18" d="M745.87,442.73c0-.25-.21-.46-.46-.46h-3.76c-.25,0-.46.21-.46.46h0v29.78c0,.25.21.46.46.46h3.76c.25,0,.46-.21.46-.46h0v-29.78" vector-effect="non-scaling-stroke"/>
    <path class="st18" d="M931.87,442.68c0-.24-.19-.43-.43-.43h-3.82c-.24,0-.43.19-.43.43v29.84c0,.24.19.43.43.43h3.82c.24,0,.43-.19.43-.43h0v-29.84" vector-effect="non-scaling-stroke"/>
    <path class="st13" d="M250.35,223.6c.02,31.73.04,49.38.06,52.93,0,.23.18.41.41.41h0c20.71.07,42.18.03,64.42-.1,28.53-.16,56.71-11.48,60.12-43.84.41-3.94.62-7.1.62-9.47s-.21-5.53-.63-9.47c-3.45-32.35-31.64-43.64-60.17-43.77-22.24-.11-43.71-.11-64.42-.02-.22,0-.4.18-.41.4-.02,3.56-.02,21.2,0,52.93" vector-effect="non-scaling-stroke"/>
    <path class="st13" d="M498.34,280.75h112.9c.2,0,.36-.16.36-.36,0,0,0,0,0-.01-.87-24.96-14.26-45.19-39.36-51.11-27-6.37-53.82,2.56-67.09,27.89-3.73,7.11-6.17,14.77-7.34,22.99-.04.28.15.55.44.59.03,0,.06,0,.09,0" vector-effect="non-scaling-stroke"/>
    <path class="st18" d="M1023.18,445.94c-5.95.01-10.77,5.27-10.76,11.75h0c.01,6.48,4.85,11.72,10.8,11.71h0c5.95-.01,10.77-5.27,10.76-11.75-.01-6.48-4.85-11.72-10.8-11.71h0" vector-effect="non-scaling-stroke"/>
    <path class="st18" d="M458.95,445.94c-5.95,0-10.78,5.14-10.78,11.48h0c0,6.34,4.83,11.48,10.78,11.48s10.78-5.14,10.78-11.48-4.83-11.48-10.78-11.48h0" vector-effect="non-scaling-stroke"/>
    <path class="st18" d="M485.39,455.16h19.84c.08,0,.14-.06.14-.14v-.06c0-4.86-4.48-8.8-10-8.8h-.12c-5.52,0-10,3.94-10,8.8v.06c0,.08.06.14.14.14h0" vector-effect="non-scaling-stroke"/>
    <path class="st18" d="M598.89,445.94c-5.95.03-10.74,5.31-10.71,11.79h0c.03,6.48,4.88,11.7,10.83,11.67,5.95-.03,10.74-5.31,10.71-11.79h0c-.03-6.48-4.88-11.7-10.83-11.67" vector-effect="non-scaling-stroke"/>
    <path class="st18" d="M669.15,445.96c-5.95.03-10.74,5.3-10.71,11.78.03,6.47,4.88,11.69,10.83,11.66h0c5.95-.03,10.74-5.3,10.71-11.78s-4.88-11.69-10.83-11.66h0" vector-effect="non-scaling-stroke"/>
    <path class="st18" d="M801.98,445.95c-5.95-.01-10.78,5.23-10.79,11.7h0c-.01,6.47,4.8,11.73,10.75,11.74h0c5.95.01,10.78-5.23,10.79-11.7h0c.01-6.47-4.8-11.73-10.75-11.74" vector-effect="non-scaling-stroke"/>
    <path class="st18" d="M896.33,455.15l19.94.04c.06,0,.1-.04.1-.1v-.09c.01-4.88-4.46-8.84-9.99-8.85h-.12c-5.53-.01-10.02,3.93-10.03,8.81h0v.09c0,.06.04.1.1.1h0" vector-effect="non-scaling-stroke"/>
    <path class="st18" d="M973.72,445.96c-5.95-.01-10.79,5.22-10.8,11.69h0c-.01,6.47,4.81,11.72,10.76,11.73h0c5.95.01,10.79-5.22,10.8-11.69s-4.81-11.72-10.76-11.73h0" vector-effect="non-scaling-stroke"/>
    <path class="st18" d="M1049.59,455.18h19.94c.06,0,.11-.05.11-.11v-.09c0-4.89-4.49-8.86-10.02-8.86h-.12c-5.53,0-10.02,3.97-10.02,8.86h0v.09c0,.06.05.11.11.11" vector-effect="non-scaling-stroke"/>
    <path class="st18" d="M1141.81,445.93c-5.89,0-10.66,5.26-10.66,11.74h0c0,6.48,4.77,11.74,10.66,11.74h0c5.89,0,10.66-5.26,10.66-11.74s-4.77-11.74-10.66-11.74" vector-effect="non-scaling-stroke"/>
    <path class="st18" d="M1223.77,445.95c-5.95-.03-10.81,5.19-10.84,11.66h0c-.03,6.47,4.76,11.75,10.72,11.78,5.95.03,10.81-5.19,10.84-11.66h0c.03-6.47-4.77-11.75-10.72-11.78" vector-effect="non-scaling-stroke"/>
  </g>
  <path class="st87" d="M1500,0v500H0V0h1500ZM855.48,95.87l13.31,9.81-8.85-.69c-34.07-6.63-66.91-20-94.07-41.87-4.16-3.35-8.52-6.96-13.07-10.85-.17-.14-.41-.11-.55.06-.08.1-.11.23-.07.35,3.19,9.78,9.59,19.25,16.62,27.53,8.37,9.85,17.27,18.24,26.72,25.17,7.17,6.07,15.51,9.91,24.76,15.03,4.69,2.59,8.78,4.63,12.25,6.12,12.32,5.27,22.94,7.83,38.03,11.21,3.93.84,7.93,1.56,11.98,2.15,1.68.25,4.71,1.12,9.09,2.63-5.53.97-11.1,2.06-16.5,2.45-22.13,1.6-43.43-.85-64.03-9.54-1.17-.49-2.57-.7-4.21-.63-.23.01-.4.21-.38.43,0,.07.03.14.06.2,1.15,1.81,2.19,3.11,3.12,3.9,12.17,10.35,24.39,17.79,36.67,22.32,7.93,2.92,17.34,4.85,28.23,5.79,12.66,1.66,23.51-.46,35.23-.31.17,0,.3.12.31.29,0,.11-.05.22-.15.27-4.1,2.64-7.82,4.73-12.62,6.13-9.98,2.93-19.85,4.06-30.08,3.15-3.07-.27-6.4-.44-10-.5-.27,0-.5.2-.51.47,0,.13.04.26.14.36,1.49,1.59,3.23,2.93,5.21,4.04,16.14,9.03,33.55,11.85,52.22,8.48,2.42-.44,4.14-.26,5.16.55-1.16,1.59-3.74,4.8-7.73,9.64-4.43,5.35-8.77,12.72-13.02,22.09-2.18,4.8-3.16,8.88-5,14.1-1.09,3.11-1.96,6.74-2.6,10.89-.91,5.93-1.47,11.88-1.68,17.85-.55,11.02.31,22.27,2.58,33.75.23,1.15.58,1.87,1.05,2.16.21.14.5.07.64-.14.02-.04.04-.08.05-.12.89-2.89,1.38-4.84,1.47-5.85.89-9.63,2.3-18.67,4.21-27.12,1.65-7.3,4.71-15.2,7.53-21.37,4.87-10.65,11.38-20.22,19.53-28.72,5.11-5.33,11.45-10.9,19.01-16.71l20.56-11.84c8.55-4.09,17.15-8.14,25.8-12.15,5.4-2.51,9.68-5.12,12.84-7.84,5.95-5.13,11.86-10.27,17.75-15.44,3.38-2.51,7.07-4.62,11.07-6.32l3.24-1.02c10.97-3.14,20.57-1.19,31.05,2.4,3.67,1.26,5.1-.71,4.83-4.27-.47-6.39-5.8-9.93-11-13.8-.32-.24-.6-.53-.83-.85l-4.3-6.1c-.04-.05-.08-.1-.12-.15-1.99-1.92-4.52-3.36-7.59-4.32-5.36-1.67-11.73-3.18-19.12-4.55-7.23-1.34-12.54-5.46-15.93-12.36-1.23-2.53-2.31-4.63-3.23-6.3-.12-.23-.41-.32-.64-.2-.07.03-.12.08-.16.15-4.61,6.4-5.35,13.2-2.22,20.41.28.64,0,1.38-.64,1.67-.94.41-2.06.74-3.36.98-4.78.87-9.49,1.86-14.12,2.96-1.95.46-4.25,1.48-6.89,3.06-.61,1.26-.85,2.72-.71,4.37.22,2.6.31,4.07.26,4.41-.66,4.62-2.58,8.64-5.75,12.06-.14.16-.39.17-.55.03-.08-.08-.13-.19-.13-.3.04-2.87-.13-6.37-.5-10.5-.14-1.52-.39-3.04-.75-4.55-2.77-7.85-7.76-13.97-14.98-18.36-4.45-2.71-8.8-4.95-13.05-6.72-2.35-.97-11.19-4.39-26.52-10.26-9.28-3.55-17.96-7.7-26.29-10.95-8.82-3.43-18.38-8.15-26.04-12.69-3.42-2.03-9.72-6.34-18.9-12.94-13.51-9.7-25.54-21.33-36.09-34.9-5.06-6.51-8.44-11.09-10.13-13.76-.46-.73-1.56-2.07-3.3-4.02-.09-.11-.26-.13-.37-.03-.06.05-.09.13-.09.2-.04,3.59.38,7.2,1.25,10.85,2,8.34,4.69,18.09,8.73,26.1,6.96,13.81,15.45,25.62,25.48,35.42,5.86,5.73,12.99,11.55,21.38,17.47ZM363.65,306.23c21.83-8.45,37.31-22.88,46.42-43.31,5.97-13.37,8.03-29.05,7.74-44.62-.21-11.7-2.3-22.62-6.25-32.75-7.47-19.13-23.17-34.37-41.77-42.48-18.07-7.89-38.1-10.59-58.29-10.59-43.9,0-78.88,0-104.94.01-.18,0-.33.15-.33.33h0v261.1c0,.33.26.59.58.59h43.1c.24,0,.44-.2.44-.44h0v-78.86c0-.27.21-.48.48-.48h73.12c.2,0,.4.11.51.29l47.53,79.02c.17.29.49.47.83.47h49.03c.17,0,.3-.13.3-.3,0-.06-.02-.12-.05-.17l-58.58-87.38c-.09-.13-.06-.31.07-.4.02-.01.04-.02.06-.03ZM949.65,213.31c-7.42,5.17-12.75,11.42-18.58,18.77-19.48,24.52-27.14,56.64-22.34,87.51,2.14,12.72,5.9,25.73,12.54,36.91,9.12,15.36,21.5,29.72,36.24,39.74,21.06,14.33,44.58,20.85,70.55,19.56,8.78-.44,17.28-1.98,25.51-4.62,8.51-2.74,16.46-6.17,23.85-10.3,8.44-4.72,16.22-10.68,23.35-17.88,7.52-7.25,13.24-13.94,17.16-20.08,9.27-14.51,14.92-31.12,16.96-49.85.53-4.87.32-12.04-.63-21.51-.7-9.29-2.36-17.33-4.97-24.12-3.99-10.35-7.04-16.98-10.86-23.2-.12-.21-.38-.27-.59-.15-.15.09-.24.27-.21.45.03.21.23.69.62,1.44,5.52,10.85,7.62,23.84,8.06,36.45.6,17.49-3.1,34.09-11.1,49.78-8.8,16.15-20.61,29.16-35.43,39.04-26.67,16.04-58.69,19.57-87.99,9.15-30.61-11.85-50.59-33.58-59.96-65.21-2.27-8.31-3.69-16.79-4.26-25.45-.89-13.48,2.37-27.07,7.07-39.59,4.4-11.72,11.94-22.61,19.64-31.79,3.82-4.07,6.66-6.85,8.52-8.32,7.34-5.79,14.93-10.74,22.78-14.84.28-.15.4-.48.27-.77v-.02c-.13-.29-.46-.44-.76-.34-12.97,4.23-24.79,10.64-35.44,19.24ZM499.34,311.25h149.11c.34,0,.62-.26.65-.6,3.44-40.68-5.36-86.52-44.61-106.5-10.39-5.29-22.73-8.42-37.01-9.41-13.38-.93-26.11,0-38.2,2.8-16.61,3.83-31.16,11.48-43.64,22.93-15.08,13.82-24.97,32.85-28.48,53.22-4.82,28-.78,58.09,15.86,81.73,16.3,23.15,41.88,37.25,70.26,39.81,7.64.69,15.97.71,24.98.04,26.88-1.98,52.38-12.94,70.76-32.67.2-.22.2-.55-.01-.76l-21.97-21.97c-.23-.23-.61-.23-.85,0-15.44,15.61-34.23,23.3-56.38,23.07-22.13-.23-39.22-9.19-51.25-26.88-4.69-6.89-7.93-14.95-9.72-24.2-.06-.28.12-.54.4-.6.03,0,.07,0,.1,0ZM745.42,260.67c3.54-1.55,7.24-4.35,11.1-8.4,3.41-3.57,8.81-6.84,16.19-9.8,4.77-1.91,6.29-2.19,10.72-4.7,6.55-3.71,15.7-.65,24.81-3.57,13.23,2.87,23.55,12.4,28.9,24.66,2.69,6.18,4.09,13.62,4.18,22.33.13,11.68.15,46.7.06,105.06,0,1.99.07,4.52.24,7.59.03.46.4.81.86.81h41.44c.48,0,.87-.39.87-.87-.15-66.91-.24-107.09-.25-120.53,0-4.56-.29-9.64-.86-15.23-2.23-22-12.99-42.77-32.45-53.71-9.39-5.27-19.17-8.41-29.35-9.42-18.62-1.84-40.68.66-57.54,9.97-11.59,6.39-20.49,15.59-26.71,27.58-.07.13-.23.18-.36.11-.04-.02-.08-.05-.1-.09-.13-.23-.2-.55-.2-.98.07-11.79.07-23.49.01-35.1,0-.35-.29-.63-.64-.63h-41.92c-.22,0-.4.17-.4.39v198.07c0,.17.14.3.31.3h42.17c.27,0,.48-.22.48-.49h0c.09-50.22.08-82.06-.03-95.53-.06-8.05.44-14.5,1.5-19.36,1.41-6.47,3.74-12.63,6.97-18.46ZM1216.39,354.02c-.15-.01-.29-.12-.34-.27l-54.79-157.43c-.12-.34-.43-.56-.78-.56h-43.8c-.23,0-.42.19-.42.42,0,.05,0,.1.03.15l76.73,197.69c.12.3.4.49.71.49h43.43c.31,0,.58-.19.69-.48l76.05-197.95c.05-.12,0-.26-.13-.31-.03-.01-.06-.02-.09-.02h-42.29c-.23,0-.43.15-.5.36-1.53,4.46-19.43,56.56-53.7,156.31-.14.42-.21.68-.21.79,0,.58-.2.85-.59.81ZM555.65,446.18v-15.63c0-.28-.22-.5-.49-.5h-3.7c-.28,0-.51.23-.51.51h0v41.9c0,.29.24.53.53.53h3.64c.29,0,.52-.23.52-.51.03-4.34.03-9.92,0-16.73-.04-12.31,17.73-13.45,17.75-.13,0,3.55,0,9.15-.02,16.8,0,.33.26.59.59.59h3.52c.33,0,.6-.26.6-.59h0c.04-8.54.03-14.51-.04-17.9-.24-11.83-13.75-17.36-21.84-8.13-.11.13-.31.14-.44.03-.07-.06-.11-.15-.11-.24ZM1033.6,469.08v3.48c0,.25.2.46.45.46h3.78c.28,0,.51-.23.51-.51v-42.13c0-.18-.15-.32-.33-.32h-4.09c-.17,0-.31.14-.31.31h0v15.71c0,.23-.18.41-.4.42-.13,0-.26-.06-.34-.17-5.28-6.92-17.79-5.51-22.13,1.56-3.65,5.95-3.99,11.88-1.02,17.8,4.42,8.81,16.86,10.77,23.37,3.2.1-.12.29-.14.41-.03.06.06.1.14.1.22ZM1167.65,430.49c0-.25-.2-.45-.45-.45h-3.8c-.25,0-.45.2-.45.45h0v42.04c0,.25.2.45.45.45h3.8c.25,0,.45-.2.45-.45h0v-42.04ZM1180.13,446.18l-.02-15.64c0-.28-.22-.5-.49-.5h-3.7c-.28,0-.51.24-.51.52h0s.04,41.92.04,41.92c0,.29.24.53.53.53h3.65c.29-.01.52-.24.52-.52.02-4.34.01-9.92-.02-16.74-.06-12.31,17.72-13.47,17.76-.15,0,3.56,0,9.16-.01,16.81,0,.33.26.59.59.59,0,0,0,0,.01,0h3.52c.33,0,.6-.26.6-.59.03-8.55,0-14.52-.06-17.91-.26-11.84-13.78-17.36-21.86-8.11-.11.13-.31.14-.44.03-.07-.06-.11-.15-.11-.24ZM648.01,431.57c0-.25-.21-.46-.46-.46h-4.06c-.25.02-.46.22-.46.48h0s.02,5.2.02,5.2c0,.25.21.46.46.46h4.06c.25-.02.46-.22.46-.48h0s-.02-5.2-.02-5.2ZM746.03,431.61c0-.25-.21-.46-.46-.46h-4.08c-.25,0-.46.21-.46.46v5.18c0,.25.21.46.46.46h4.08c.25,0,.46-.21.46-.46h0v-5.18ZM932.04,431.61c0-.26-.21-.47-.47-.47h-4.06c-.26,0-.47.22-.47.48h0s0,5.16,0,5.16c0,.26.21.47.47.47h4.06c.26,0,.47-.22.47-.48h0s0-5.16,0-5.16ZM374.41,452.66v19.95c0,.2.17.37.38.37h29.22c.22,0,.4-.17.4-.39h0v-3.66c0-.24-.2-.44-.44-.44h-24.44c-.24,0-.44-.19-.44-.43v-12.69c0-.24.2-.43.44-.43h21.66c.27,0,.48-.22.49-.49,0-.56.01-1.16.01-1.79,0-.63,0-1.23-.01-1.79,0-.28-.22-.5-.49-.5h-21.66c-.24,0-.44-.19-.44-.43v-12.69c0-.24.2-.43.44-.43h24.44c.24,0,.44-.19.44-.43v-3.66c0-.22-.18-.39-.4-.39h-29.22c-.21,0-.38.16-.38.36v19.96ZM706.41,472.52c0,.26.21.47.47.47h3.75c.26,0,.47-.21.47-.47v-16.6c0-.26.21-.47.47-.47h21.09c.26,0,.47-.21.47-.47h0v-3.63c0-.26-.21-.47-.47-.47h-21.1c-.26,0-.47-.21-.47-.47v-13.1c0-.26.21-.47.47-.47h23.8c.26,0,.47-.21.47-.47h0v-3.56c0-.26-.21-.47-.47-.47h-28.48c-.26,0-.47.21-.47.47h0v39.71ZM1099.12,472.48l-.04-16.56c0-.25.21-.46.46-.46h20.96c.34,0,.62-.28.63-.62l.03-3.33c0-.35-.28-.64-.63-.64h0l-20.99.03c-.25,0-.45-.2-.45-.45h0s-.01-13.2-.01-13.2c0-.23.19-.41.42-.41h23.96c.2,0,.36-.17.36-.37v-3.77c0-.19-.16-.35-.35-.35h-28.43c-.35-.01-.63.27-.63.62h0v39.51c0,.28.23.5.51.51l3.66.03c.3,0,.54-.24.54-.54h0ZM415.37,446.06v-3.25c0-.29-.24-.53-.53-.53h-3.58c-.33,0-.59.26-.59.59l.03,29.62c0,.28.23.51.52.51h3.67c.29,0,.52-.23.52-.52.01-9.47,0-14.97-.03-16.48-.21-10.21,13.37-14.09,17.12-4.54.52,1.33.74,4.25.65,8.75v12.24c0,.29.24.53.53.53h3.63c.3,0,.54-.24.54-.54h0c0-3.97,0-9.45-.01-16.44-.01-5.99-2.01-10.94-7.41-13.18-3.79-1.57-7.6-1.32-11.43.73-.91.49-2.37,2.1-3.03,2.76-.14.14-.36.14-.49,0-.07-.07-.11-.16-.11-.26ZM468.76,446.24c-3.91-4.04-8.72-5.33-14.44-3.86-13.56,3.47-14.5,24.48-2.02,29.38,6.5,2.56,12.08,1.39,16.75-3.5.07-.08.19-.08.27-.01.04.04.06.09.06.14.03,6.46-.18,12.01-8.33,12.92-5.05.57-8.63-.91-10.73-4.42-.1-.16-.28-.26-.47-.26h-4.51c-.09,0-.16.07-.16.16,0,.02,0,.04.01.06,1.73,4.17,4.55,6.82,8.45,7.95,7.28,2.11,17.41.57,19.68-7.75.48-1.76.72-3.94.72-6.55,0-5.21,0-14.42-.01-27.63,0-.33-.26-.6-.59-.6h-3.64c-.24,0-.43.19-.43.43h0v3.29c0,.2-.16.36-.36.36-.1,0-.19-.04-.25-.11ZM508.8,464.13h-3.41c-.45,0-.88.21-1.16.56-3.87,4.94-8.59,5.95-14.14,3.03-2.65-1.39-4.34-3.9-5.06-7.51-.06-.29.13-.58.42-.64.04,0,.07-.01.11-.01h24.55c.17,0,.31-.12.33-.29.91-8.86-4.76-17.03-14.01-17.37-12.19-.45-19.11,10.18-15.48,21.19,4.25,12.9,22.68,14.44,28.34,1.8.12-.27,0-.59-.27-.71-.07-.03-.14-.05-.22-.05ZM520.87,446.05v-3.26c.01-.29-.23-.53-.52-.53h-3.58c-.33-.01-.59.25-.59.58,0,0,0,0,0,.01l-.04,29.66c0,.28.23.51.52.51h3.68c.29,0,.52-.22.52-.51.03-9.49.03-14.99,0-16.51-.19-10.22,13.42-14.09,17.15-4.51.52,1.34.73,4.26.64,8.76,0,.01-.01,4.1-.03,12.27,0,.29.24.53.53.53h3.64c.3,0,.54-.24.54-.54h0c.01-3.97.02-9.46.02-16.46.01-6-1.99-10.96-7.39-13.21-3.79-1.58-7.6-1.35-11.45.7-.91.49-2.37,2.1-3.04,2.76-.14.14-.36.14-.49,0-.07-.07-.11-.16-.11-.26ZM583.55,457.67c0,7.68,4.49,14.4,12.39,15.63,5.27.83,9.58-.65,12.95-4.43.09-.11.26-.13.37-.03.06.05.09.13.09.2v3.44c0,.3.25.55.55.55h3.55c.33,0,.59-.26.59-.59.01-4.83.01-9.75,0-14.77.01-5.03.01-9.95,0-14.77,0-.33-.26-.59-.59-.59h-3.55c-.3,0-.55.25-.55.55h0v3.44c0,.14-.11.26-.26.26-.08,0-.15-.03-.2-.09-3.37-3.79-7.68-5.27-12.95-4.44-7.9,1.24-12.39,7.96-12.39,15.64ZM626.64,448.3v-5.43c0-.34-.27-.61-.61-.61h-3.47c-.34,0-.61.27-.61.61v29.63c0,.29.23.52.51.52h3.71c.28,0,.51-.23.51-.52-.03-5.23-.04-9.55-.01-12.98.04-6.46,3.87-13.04,10.93-12.94.38,0,.69-.3.69-.68v-3.47c0-.33-.27-.6-.6-.6,0,0-.01,0-.02,0-4.71.12-8.22,2.32-10.53,6.6-.08.13-.24.17-.37.09-.08-.05-.13-.13-.13-.22ZM653.81,457.67c0,7.68,4.5,14.4,12.4,15.64,5.27.83,9.59-.65,12.96-4.44.09-.11.26-.13.37-.03.06.05.1.13.09.2v3.44c0,.3.25.55.55.55h3.55c.33,0,.59-.26.59-.59h0c.01-4.83.01-9.75,0-14.77.01-5.03.01-9.95,0-14.78,0-.33-.26-.59-.59-.59h-3.55c-.3,0-.55.25-.55.55h0v3.44c0,.14-.11.26-.26.26-.08,0-.15-.03-.2-.09-3.37-3.79-7.69-5.27-12.96-4.44-7.9,1.24-12.4,7.96-12.4,15.65ZM758.37,446.06v-3.25c-.01-.29-.25-.53-.54-.53h-3.57c-.33,0-.59.26-.59.59h0s.02,29.64.02,29.64c0,.28.23.51.52.51,0,0,0,0,.01,0h3.67c.29-.01.52-.24.52-.53.01-9.47,0-14.97-.03-16.49-.21-10.21,13.37-14.1,17.12-4.54.53,1.33.74,4.25.65,8.75,0,.01,0,4.1,0,12.26,0,.29.24.53.53.53h3.64c.3-.01.54-.25.54-.55,0-3.97,0-9.45-.02-16.45,0-5.98-2.01-10.94-7.41-13.18-3.79-1.57-7.6-1.33-11.43.72-.91.5-2.37,2.11-3.03,2.77-.14.14-.36.14-.49,0-.07-.07-.11-.16-.11-.26ZM786.55,457.66c0,7.68,4.49,14.4,12.39,15.63,5.27.83,9.59-.65,12.95-4.43.09-.11.26-.13.37-.03.06.05.09.13.09.2v3.43c0,.3.25.54.55.55h3.55c.33,0,.59-.26.59-.59.01-4.82.01-9.74,0-14.76.01-5.03.01-9.95,0-14.77,0-.33-.26-.59-.59-.59h-3.55c-.3,0-.55.25-.55.55h0v3.44c0,.14-.11.26-.26.26-.08,0-.15-.03-.2-.09-3.37-3.79-7.69-5.26-12.96-4.43-7.9,1.24-12.38,7.96-12.38,15.63ZM829.64,446.05v-3.25c0-.29-.24-.53-.53-.53h-3.57c-.33,0-.59.26-.59.59v29.6c0,.28.23.51.52.51h3.67c.29,0,.52-.23.52-.52.02-9.47.01-14.96-.02-16.47-.2-10.2,13.37-14.07,17.11-4.52.52,1.33.73,4.25.64,8.74,0,.01,0,4.09-.01,12.24,0,.29.24.53.53.53h3.63c.3,0,.54-.24.54-.54h0c0-3.97,0-9.44,0-16.43,0-5.98-2-10.93-7.39-13.17-3.78-1.57-7.59-1.34-11.42.71-.91.49-2.37,2.1-3.03,2.76-.14.14-.36.14-.49,0-.07-.07-.11-.16-.11-.26ZM857.81,457.7c.04,17.56,22.29,21.7,29.36,6.65.17-.38,0-.82-.37-.99-.1-.04-.2-.07-.31-.07h-2.98c-.64,0-1.23.35-1.54.92-1.79,3.29-4.53,4.97-8.24,5.03-6.75.1-11.17-5-11.18-11.55-.02-6.55,4.38-11.67,11.13-11.6,3.71.05,6.46,1.71,8.26,4.99.31.57.9.92,1.54.92l2.98-.02c.41,0,.75-.34.75-.75,0-.11-.02-.21-.07-.31-7.14-15.01-29.37-10.78-29.33,6.78ZM919.81,464.13h-3.41c-.45,0-.88.21-1.16.56-3.87,4.94-8.59,5.95-14.15,3.03-2.65-1.39-4.34-3.9-5.06-7.51-.06-.29.13-.58.42-.64.04,0,.07-.01.11-.01h24.56c.17,0,.31-.12.33-.29.91-8.87-4.76-17.04-14.02-17.38-12.19-.45-19.11,10.18-15.48,21.2,4.25,12.9,22.69,14.45,28.35,1.8.12-.27,0-.59-.27-.71-.07-.03-.14-.05-.22-.05ZM944.64,448.3v-5.42c0-.34-.27-.61-.61-.61h-3.46c-.34,0-.61.27-.61.61h0v29.59c0,.29.23.52.51.52h3.7c.28,0,.51-.23.51-.52-.03-5.22-.04-9.54-.01-12.96.04-6.46,3.87-13.03,10.92-12.93.38,0,.69-.3.69-.68v-3.46c0-.33-.27-.6-.6-.6,0,0-.01,0-.02,0-4.7.12-8.21,2.32-10.52,6.59-.08.13-.24.17-.37.09-.08-.05-.13-.13-.13-.22ZM958.31,457.66c0,7.68,4.5,14.4,12.4,15.63,5.27.83,9.59-.65,12.95-4.44.09-.11.26-.13.37-.03.06.05.1.13.09.2v3.44c0,.3.25.55.55.55h3.55c.33,0,.59-.26.59-.59h0c.01-4.82.01-9.74,0-14.77,0-5.02,0-9.94-.01-14.77,0-.33-.26-.59-.59-.59h-3.55c-.3,0-.55.26-.55.56h0v3.43c0,.14-.11.26-.26.26-.08,0-.15-.03-.2-.09-3.37-3.78-7.68-5.25-12.95-4.42-7.9,1.23-12.39,7.96-12.39,15.63ZM1073.04,464.13h-3.4c-.45,0-.88.21-1.16.56-3.87,4.94-8.59,5.95-14.14,3.04-2.65-1.39-4.34-3.9-5.07-7.51-.06-.29.13-.58.42-.64.04,0,.07-.01.11-.01h24.55c.17,0,.31-.13.33-.3.91-8.86-4.76-17.03-14.02-17.36-12.18-.45-19.09,10.18-15.46,21.19,4.25,12.89,22.68,14.43,28.33,1.79.12-.27,0-.59-.27-.71-.07-.03-.14-.05-.22-.05ZM1141.87,441.65c-8.49-.04-15.42,7.09-15.46,15.94h0c-.05,8.85,6.8,16.06,15.3,16.1,8.49.04,15.42-7.09,15.46-15.94h0c.05-8.85-6.8-16.06-15.3-16.1ZM1208.31,457.67c0,7.68,4.5,14.4,12.4,15.63,5.27.83,9.59-.65,12.95-4.44.09-.11.26-.13.37-.03.06.05.1.13.09.2v3.44c0,.3.25.55.55.55h3.55c.33,0,.59-.27.59-.6h0c.01-4.82.01-9.74,0-14.77,0-5.02,0-9.94-.01-14.77,0-.33-.27-.59-.6-.58h-3.55c-.3,0-.54.25-.54.55v3.44c0,.14-.11.26-.26.26-.08,0-.15-.03-.2-.09-3.37-3.79-7.69-5.26-12.96-4.43-7.9,1.24-12.39,7.97-12.38,15.64ZM647.87,442.79c0-.29-.23-.52-.52-.52h-3.64c-.29,0-.52.23-.52.52h0v29.68c0,.29.23.52.52.52h3.64c.29,0,.52-.23.52-.52h0v-29.68ZM745.87,442.73c0-.25-.21-.46-.46-.46h-3.76c-.25,0-.46.21-.46.46h0v29.78c0,.25.21.46.46.46h3.76c.25,0,.46-.21.46-.46h0v-29.78ZM931.87,442.68c0-.24-.19-.43-.43-.43h-3.82c-.24,0-.43.19-.43.43v29.84c0,.24.19.43.43.43h3.82c.24,0,.43-.19.43-.43h0v-29.84Z"/>
  <path class="st68" d="M974.4,130.46c-1.74-.82-2.93-1.57-3.56-2.25-6.25-6.7-12.2-13.27-20.58-17.4-14.77-5.87-24.38-9.53-28.84-10.98-5.77-1.88-10.85-3.84-15.22-5.89-7.51-3.53-11.27-5.29-11.28-5.29-14.86-6.16-23.11-8.7-32.62-15.45-6.98-4.97-13.75-9.25-20.52-14.15-1.83-2.1-3.89-4.07-6.18-5.92-3.05-2.45-4.76-3.88-5.13-4.28-6.65-7.1-12.29-12.25-18.04-20.44-1.01-1.44-2.02-2.26-3.02-2.45-1.35-.25-2.44.3-3.29,1.66-.19.31-.25.68-.16,1.02.76,3.06,1.76,5.86,3,8.4,4.51,9.26,7.96,17.64,15.34,24.96,2.47,4.12,5.62,7.97,9.43,11.56,5.61,6.19,11.78,11.72,18.5,16.59,2.02,1.47,3.1,3.37,3.25,5.72-8.39-5.92-15.52-11.74-21.38-17.47-10.03-9.8-18.52-21.61-25.48-35.42-4.04-8.01-6.73-17.76-8.73-26.1-.87-3.65-1.29-7.26-1.25-10.85,0-.14.11-.26.26-.26.08,0,.15.03.2.09,1.74,1.95,2.84,3.29,3.3,4.02,1.69,2.67,5.07,7.25,10.13,13.76,10.55,13.57,22.58,25.2,36.09,34.9,9.18,6.6,15.48,10.91,18.9,12.94,7.66,4.54,17.22,9.26,26.04,12.69,8.33,3.25,17.01,7.4,26.29,10.95,15.33,5.87,24.17,9.29,26.52,10.26,4.25,1.77,8.6,4.01,13.05,6.72,7.22,4.39,12.21,10.51,14.98,18.36Z"/>
  <path class="st67" d="M841.78,59.05c-6.33,4.07-12.15,5.05-17.48,2.95-7.38-7.32-10.83-15.7-15.34-24.96-1.24-2.54-2.24-5.34-3-8.4-.09-.34-.03-.71.16-1.02.85-1.36,1.94-1.91,3.29-1.66,1,.19,2.01,1.01,3.02,2.45,5.75,8.19,11.39,13.34,18.04,20.44.37.4,2.08,1.83,5.13,4.28,2.29,1.85,4.35,3.82,6.18,5.92Z"/>
  <path class="st70" d="M859.94,104.99c-8.74-.21-18.2,1.02-26.37-1.83-.89-.31-3.16-1.36-6.81-3.16-7.01-3.46-17.02-6.54-21.46-8.51-3.61-1.61-11.56-5.48-23.83-11.63-1.7-.85-4.05-1.67-7.06-2.47-.33-.09-.66.11-.74.44-.04.16-.02.32.06.46,2.09,3.57,4.84,6.82,8.24,9.75,3.53,4.5,7.17,8.89,10.92,13.16.72.81,1.6,2.21,2.63,4.18-9.45-6.93-18.35-15.32-26.72-25.17-7.03-8.28-13.43-17.75-16.62-27.53-.06-.21.06-.42.27-.48.12-.03.25,0,.35.07,4.55,3.89,8.91,7.5,13.07,10.85,27.16,21.87,60,35.24,94.07,41.87Z"/>
  <path class="st81" d="M841.78,59.05c6.77,4.9,13.54,9.18,20.52,14.15,9.51,6.75,17.76,9.29,32.62,15.45,0,0,3.77,1.76,11.28,5.29,4.37,2.05,9.45,4.01,15.22,5.89,4.46,1.45,14.07,5.11,28.84,10.98,3.65,2.95,7.15,5.99,10.49,9.11,1.13,1.05,1.82,2.06,2.06,3.02.11.44-.16.88-.6.99-.18.04-.37.03-.54-.05-.26-.12-6.14-2.74-17.65-7.85-3.21-1.43-9.91-3.99-14.92-5.58-15.03-4.77-27.86-9.03-38.48-12.8-9.59-3.4-23.54-7.15-33.01-10.94-7.45-2.99-15.41-7.37-23.88-13.15-3.81-3.59-6.96-7.44-9.43-11.56,5.33,2.1,11.15,1.12,17.48-2.95Z"/>
  <path class="st74" d="M950.26,110.81c8.38,4.13,14.33,10.7,20.58,17.4.63.68,1.82,1.43,3.56,2.25.36,1.51.61,3.03.75,4.55.37,4.13.54,7.63.5,10.5,0,.22.17.39.38.4.11,0,.22-.04.3-.13,3.17-3.42,5.09-7.44,5.75-12.06.05-.34-.04-1.81-.26-4.41-.14-1.65.1-3.11.71-4.37,1.12,2.63,3.36,1.45,5.19.59-1.71,1.87-2.68,3.57-2.91,5.12-.67,4.32-1.68,8.3-3.05,11.93-.03.08,0,.18.09.22h.01c.07.03.15,0,.19-.06,0,0,0,0,0,0,1.58-3.41,3.71-5.64,7.9-4.11,4.11,1.51,7.17,2.95,9.18,4.33,5.29,3.63,10.73,7.19,16.93,7.25,1.37.01,3.98-.45,7.83-1.4,3.16-.78,6.38-1.3,9.67-1.57-4,1.7-7.69,3.81-11.07,6.32-3.87,1.17-6.32,2.19-7.36,3.08-4.26,3.6-8.74,6.78-13.44,9.54-.27.16-.61.18-.9.04-13.56-6.57-22.03-10.8-25.4-12.67-9.64-5.37-19.58-10.8-29.81-16.29-11.33-6.07-21.63-10.71-30.9-13.91-23.7-8.17-38.14-13.23-43.31-15.17-1.37-.52-2.23-1.35-2.58-2.49l-13.31-9.81c-.15-2.35-1.23-4.25-3.25-5.72-6.72-4.87-12.89-10.4-18.5-16.59,8.47,5.78,16.43,10.16,23.88,13.15,9.47,3.79,23.42,7.54,33.01,10.94,10.62,3.77,23.45,8.03,38.48,12.8,5.01,1.59,11.71,4.15,14.92,5.58,11.51,5.11,17.39,7.73,17.65,7.85.41.19.9.01,1.09-.4.08-.17.1-.36.05-.54-.24-.96-.93-1.97-2.06-3.02-3.34-3.12-6.84-6.16-10.49-9.11Z"/>
  <path class="st85" d="M859.94,104.99l8.85.69c.35,1.14,1.21,1.97,2.58,2.49,5.17,1.94,19.61,7,43.31,15.17,9.27,3.2,19.57,7.84,30.9,13.91,10.23,5.49,20.17,10.92,29.81,16.29,3.37,1.87,11.84,6.1,25.4,12.67.29.14.63.12.9-.04,4.7-2.76,9.18-5.94,13.44-9.54,1.04-.89,3.49-1.91,7.36-3.08-5.89,5.17-11.8,10.31-17.75,15.44-3.16,2.72-7.44,5.33-12.84,7.84-8.65,4.01-17.25,8.06-25.8,12.15-4.17-1.93-7.98-4.36-11.41-7.29l.64-7.94c-.23-13.78-7.75-23.91-18.91-31.18-7.31-4.76-15.2-8.19-23.67-10.3-12.13-3.01-18.21-4.51-18.24-4.52-10.36-1.85-20.74-4-31.14-6.45-2.41-.94-6.5-2.09-12.25-3.44-3.67-.87-12.77-3.82-27.3-8.85-2.77-.96-4.38-2.06-6.73-2.88-1.13-.4-2.75-1.24-4.88-2.53-9.5-5.74-20.15-10.44-30.24-15.56-3.4-2.93-6.15-6.18-8.24-9.75-.17-.29-.07-.66.22-.84.14-.08.31-.11.46-.06,3.01.8,5.36,1.62,7.06,2.47,12.27,6.15,20.22,10.02,23.83,11.63,4.44,1.97,14.45,5.05,21.46,8.51,3.65,1.8,5.92,2.85,6.81,3.16,8.17,2.85,17.63,1.62,26.37,1.83Z"/>
  <path class="st80" d="M863.37,121.3c3.49,5.05,5.89,10.53,7.19,16.44-15.09-3.38-25.71-5.94-38.03-11.21-3.47-1.49-7.56-3.53-12.25-6.12-9.25-5.12-17.59-8.96-24.76-15.03-1.03-1.97-1.91-3.37-2.63-4.18-3.75-4.27-7.39-8.66-10.92-13.16,10.09,5.12,20.74,9.82,30.24,15.56,2.13,1.29,3.75,2.13,4.88,2.53,2.35.82,3.96,1.92,6.73,2.88,14.53,5.03,23.63,7.98,27.3,8.85,5.75,1.35,9.84,2.5,12.25,3.44Z"/>
  <path class="st71" d="M1036.8,146.21c2.85-2.79,6.34-4.58,10.45-5.37,7.53-.18,13.05,1.68,19.56,3.01.33.07.67-.09.82-.4.69-1.45.36-2.85-1-4.17-1.54-1.49-3.5-2.93-5.87-4.31-3.27-1.9-4.44-3.97-6.4-7.09-2.96-4.73-8.3-5.83-13.78-7.25-1.25-.32-6.08-1.47-14.51-3.46-1.48-.35-3.51-1.26-6.08-2.71-3.94-2.22-6.63-6.76-10.01-9.17-.29-.21-.7-.13-.9.16-.07.1-.11.21-.12.33-.24,3.84.48,6.53,1.7,13.09.1.55-.17,1.1-.68,1.35-4.03,1.97-8.36,3.35-13,4.12l-9.26,1.19c-1.83.86-4.07,2.04-5.19-.59,2.64-1.58,4.94-2.6,6.89-3.06,4.63-1.1,9.34-2.09,14.12-2.96,1.3-.24,2.42-.57,3.36-.98.64-.29.92-1.03.64-1.67-3.13-7.21-2.39-14.01,2.22-20.41.15-.21.44-.26.65-.11.06.04.11.1.15.16.92,1.67,2,3.77,3.23,6.3,3.39,6.9,8.7,11.02,15.93,12.36,7.39,1.37,13.76,2.88,19.12,4.55,3.07.96,5.6,2.4,7.59,4.32.04.05.08.1.12.15l4.3,6.1c.23.32.51.61.83.85,5.2,3.87,10.53,7.41,11,13.8.27,3.56-1.16,5.53-4.83,4.27-10.48-3.59-20.08-5.54-31.05-2.4Z"/>
  <path class="st83" d="M1047.25,140.84c-13.44-.65-24.5-2.19-36.25-8.7-4.67-2.59-9.35-5.19-14.02-7.8,4.64-.77,8.97-2.15,13-4.12.51-.25.78-.8.68-1.35-1.22-6.56-1.94-9.25-1.7-13.09.02-.36.33-.63.69-.61.12,0,.23.05.33.12,3.38,2.41,6.07,6.95,10.01,9.17,2.57,1.45,4.6,2.36,6.08,2.71,8.43,1.99,13.26,3.14,14.51,3.46,5.48,1.42,10.82,2.52,13.78,7.25,1.96,3.12,3.13,5.19,6.4,7.09,2.37,1.38,4.33,2.82,5.87,4.31,1.36,1.32,1.69,2.72,1,4.17-.15.31-.49.47-.82.4-6.51-1.33-12.03-3.19-19.56-3.01Z"/>
  <path class="st84" d="M955.33,173.75c-9.09-.91-17.95.32-26.58,3.69-1.24-8.56-5.28-14.24-10.77-22.17-5.19-7.5-10.95-12.59-20.23-13.93-2.45-.57-4.49-.18-6.12,1.18-4.38-1.51-7.41-2.38-9.09-2.63-4.05-.59-8.05-1.31-11.98-2.15-1.3-5.91-3.7-11.39-7.19-16.44,10.4,2.45,20.78,4.6,31.14,6.45.03,0,6.11,1.51,18.24,4.52,8.47,2.11,16.36,5.54,23.67,10.3,11.16,7.27,18.68,17.4,18.91,31.18Z"/>
  <path class="st91" d="M1047.25,140.84c-4.11.79-7.6,2.58-10.45,5.37l-3.24,1.02c-3.29.27-6.51.79-9.67,1.57-3.85.95-6.46,1.41-7.83,1.4-6.2-.06-11.64-3.62-16.93-7.25-2.01-1.38-5.07-2.82-9.18-4.33-4.19-1.53-6.32.7-7.9,4.11-.03.07-.11.1-.18.07,0,0,0,0,0,0h-.01c-.08-.04-.12-.14-.09-.22,1.37-3.63,2.38-7.61,3.05-11.93.23-1.55,1.2-3.25,2.91-5.12l9.26-1.19c4.67,2.61,9.35,5.21,14.02,7.8,11.75,6.51,22.81,8.05,36.25,8.7Z"/>
  <path class="st73" d="M363.65,306.23c-.15.05-.22.22-.16.37,0,.02.02.04.03.06l58.58,87.38c.09.14.06.32-.08.42-.05.03-.11.05-.17.05h-49.03c-.34,0-.66-.18-.83-.47l-47.53-79.02c-.11-.18-.31-.29-.51-.29h-73.12c-.27,0-.48.21-.48.48v78.86c0,.24-.2.44-.44.44h-43.1c-.32,0-.58-.26-.58-.59V132.82c0-.18.15-.33.33-.33h0c26.06,0,61.04-.01,104.94-.01,20.19,0,40.22,2.7,58.29,10.59,18.6,8.11,34.3,23.35,41.77,42.48,3.95,10.13,6.04,21.05,6.25,32.75.29,15.57-1.77,31.25-7.74,44.62-9.11,20.43-24.59,34.86-46.42,43.31ZM250.35,223.6c.02,31.73.04,49.38.06,52.93,0,.23.18.41.41.41h0c20.71.07,42.18.03,64.42-.1,28.53-.16,56.71-11.48,60.12-43.84.41-3.94.62-7.1.62-9.47s-.21-5.53-.63-9.47c-3.45-32.35-31.64-43.64-60.17-43.77-22.24-.11-43.71-.11-64.42-.02-.22,0-.4.18-.41.4-.02,3.56-.02,21.2,0,52.93Z"/>
  <path class="st76" d="M891.63,142.52c1.63-1.36,3.67-1.75,6.12-1.18.29.11.46.23.49.34.1.4-.17.81-.61.92-.03,0-.07.01-.1.02-1.43.19-2.51.32-3.25.41-.33.04-.64.11-.95.22-4.47,1.63-8.25,2.63-11.34,3.02-3.97.49-7.54,1.11-10.7,1.84-6.91,1.61-11.19,1.83-18.24,2.03-4.28.11-7.69,1.79-10.23,5.04-.18.23-.14.55.09.73.02.02.05.04.08.05,8.08,4.25,14.46,5.47,26.86,8.52.2.05.39.14.56.25l4.18,2.71c-10.89-.94-20.3-2.87-28.23-5.79-12.28-4.53-24.5-11.97-36.67-22.32-.93-.79-1.97-2.09-3.12-3.9-.12-.19-.07-.44.12-.57.06-.04.13-.06.2-.06,1.64-.07,3.04.14,4.21.63,20.6,8.69,41.9,11.14,64.03,9.54,5.4-.39,10.97-1.48,16.5-2.45Z"/>
  <path class="st93" d="M928.75,177.44c.39,5.85-.72,11.35-3.32,16.49-4.64,9.15-10.06,18.65-16.26,28.5-1.19,1.89-2.29,3.85-3.28,5.88l-3.63,5.24c-.4.57-1.18.71-1.75.32-.38-.26-.58-.7-.54-1.16.34-3.56,1.4-7.1,3.17-10.61,4.42-8.73,9.51-16.65,15.26-23.76.79-.97,1.57-2.64,2.36-5.03.49-1.46.07-2.44-1.26-2.94-1.02-.81-2.74-.99-5.16-.55-18.67,3.37-36.08.55-52.22-8.48-1.98-1.11-3.72-2.45-5.21-4.04-.19-.19-.18-.5.01-.69.1-.09.22-.14.36-.14,3.6.06,6.93.23,10,.5,10.23.91,20.1-.22,30.08-3.15,4.8-1.4,8.52-3.49,12.62-6.13.14-.08.19-.27.11-.41-.06-.1-.16-.15-.27-.15-11.72-.15-22.57,1.97-35.23.31l-4.18-2.71c-.17-.11-.36-.2-.56-.25-12.4-3.05-18.78-4.27-26.86-8.52-.25-.13-.35-.45-.22-.7.01-.03.03-.05.05-.08,2.54-3.25,5.95-4.93,10.23-5.04,7.05-.2,11.33-.42,18.24-2.03,3.16-.73,6.73-1.35,10.7-1.84,3.09-.39,6.87-1.39,11.34-3.02.31-.11.62-.18.95-.22.74-.09,1.82-.22,3.25-.41.45-.06.77-.44.73-.85,0-.03,0-.06-.02-.09-.03-.11-.2-.23-.49-.34,9.28,1.34,15.04,6.43,20.23,13.93,5.49,7.93,9.53,13.61,10.77,22.17Z"/>
  <path class="st79" d="M955.33,173.75l-.64,7.94c-1.11,5.07-2.83,7.79-6.07,13.3-.05.09-.11.17-.18.25l-3.57,4.07c-8.67,4.88-15.32,10.09-19.93,15.63-3.45,4.13-6.74,8.17-9.89,12.11-.75.93-2.28,2.03-4.31,3.11l-7.19,3.81,2.34-5.66c.99-2.03,2.09-3.99,3.28-5.88,6.2-9.85,11.62-19.35,16.26-28.5,2.6-5.14,3.71-10.64,3.32-16.49,8.63-3.37,17.49-4.6,26.58-3.69Z"/>
  <path class="st87" d="M375.98,223.53c0,2.37-.21,5.53-.62,9.47-3.41,32.36-31.59,43.68-60.12,43.84-22.24.13-43.71.17-64.42.1-.23,0-.41-.18-.41-.41h0c-.02-3.55-.04-21.2-.06-52.93-.02-31.73-.02-49.37,0-52.93,0-.22.19-.4.41-.4,20.71-.09,42.18-.09,64.42.02,28.53.13,56.72,11.42,60.17,43.77.42,3.94.63,7.1.63,9.47Z"/>
  <path class="st95" d="M954.69,181.69c3.43,2.93,7.24,5.36,11.41,7.29l-20.56,11.84-.67-1.51,3.57-4.07c.07-.08.13-.16.18-.25,3.24-5.51,4.96-8.23,6.07-13.3Z"/>
  <path class="st77" d="M905.89,228.31l-2.34,5.66c-4.3,9.51-6.24,19.81-8.82,30.14-.68,2.68-2.15,8.13-4.29,8.97-.19.08-.42-.02-.49-.21-.01-.04-.02-.08-.03-.12l-.45-7.81c.21-5.97.77-11.92,1.68-17.85.64-4.15,1.51-7.78,2.6-10.89,1.84-5.22,2.82-9.3,5-14.1,4.25-9.37,8.59-16.74,13.02-22.09,3.99-4.84,6.57-8.05,7.73-9.64,1.33.5,1.75,1.48,1.26,2.94-.79,2.39-1.57,4.06-2.36,5.03-5.75,7.11-10.84,15.03-15.26,23.76-1.77,3.51-2.83,7.05-3.17,10.61-.07.69.44,1.31,1.13,1.38.46.04.9-.16,1.16-.54l3.63-5.24Z"/>
  <path class="st92" d="M954.28,218.36l-4.63-5.05c10.65-8.6,22.47-15.01,35.44-19.24.3-.1.63.05.75.34v.02c.14.29.02.62-.26.77-7.85,4.1-15.44,9.05-22.78,14.84-1.86,1.47-4.7,4.25-8.52,8.32Z"/>
  <path class="st73" d="M498.84,311.86c1.79,9.25,5.03,17.31,9.72,24.2,12.03,17.69,29.12,26.65,51.25,26.88,22.15.23,40.94-7.46,56.38-23.07.24-.23.62-.23.85,0l21.97,21.97c.21.21.21.54.01.76-18.38,19.73-43.88,30.69-70.76,32.67-9.01.67-17.34.65-24.98-.04-28.38-2.56-53.96-16.66-70.26-39.81-16.64-23.64-20.68-53.73-15.86-81.73,3.51-20.37,13.4-39.4,28.48-53.22,12.48-11.45,27.03-19.1,43.64-22.93,12.09-2.79,24.82-3.73,38.2-2.8,14.28.99,26.62,4.12,37.01,9.41,39.25,19.98,48.05,65.82,44.61,106.5-.03.34-.31.6-.65.6h-149.11c-.28,0-.51.23-.51.51,0,.03,0,.07,0,.1ZM498.34,280.75h112.9c.2,0,.36-.16.36-.36,0,0,0,0,0-.01-.87-24.96-14.26-45.19-39.36-51.11-27-6.37-53.82,2.56-67.09,27.89-3.73,7.11-6.17,14.77-7.34,22.99-.04.28.15.55.44.59.03,0,.06,0,.09,0Z"/>
  <path class="st73" d="M808.24,234.2c-1.81-.65-3.4-1.07-4.76-1.24-24.55-3.12-46,5.45-58.06,27.71-3.23,5.83-5.56,11.99-6.97,18.46-1.06,4.86-1.56,11.31-1.5,19.36.11,13.47.12,45.31.03,95.53,0,.27-.21.49-.48.49h-42.17c-.17,0-.31-.13-.31-.3h0v-198.07c0-.22.18-.4.4-.4h41.92c.35.01.64.29.64.64.06,11.61.06,23.31-.01,35.1,0,.43.07.75.2.98.07.12.23.16.36.08.04-.03.08-.06.1-.1,6.22-11.99,15.12-21.19,26.71-27.58,16.86-9.31,38.92-11.81,57.54-9.97,10.18,1.01,19.96,4.15,29.35,9.42,19.46,10.94,30.22,31.71,32.45,53.71.57,5.59.85,10.67.86,15.23.01,13.44.1,53.62.25,120.53,0,.48-.39.87-.87.87h-41.44c-.46,0-.83-.35-.86-.81-.17-3.07-.25-5.6-.24-7.59.09-58.36.07-93.38-.06-105.06-.09-8.71-1.49-16.15-4.18-22.33-5.35-12.26-15.67-21.79-28.9-24.66Z"/>
  <path class="st73" d="M1216.39,354.02c.39.04.58-.23.59-.81,0-.11.07-.37.21-.79,34.27-99.75,52.17-151.85,53.7-156.31.07-.21.27-.36.5-.36h42.29c.13,0,.24.11.24.24,0,.03,0,.06-.02.09l-76.05,197.95c-.11.29-.38.48-.69.48h-43.43c-.31,0-.59-.19-.71-.49l-76.73-197.69c-.08-.22.03-.46.24-.54.05-.02.1-.03.15-.03h43.8c.35,0,.66.22.78.56l54.79,157.43c.05.15.19.26.34.27Z"/>
  <path class="st90" d="M944.87,199.31l.67,1.51c-7.56,5.81-13.9,11.38-19.01,16.71-8.15,8.5-14.66,18.07-19.53,28.72-2.82,6.17-5.88,14.07-7.53,21.37-1.91,8.45-3.32,17.49-4.21,27.12-.09,1.01-.58,2.96-1.47,5.85-.07.24-.33.38-.57.31-.04-.01-.08-.03-.12-.05-.47-.29-.82-1.01-1.05-2.16-2.27-11.48-3.13-22.73-2.58-33.75l.45,7.81c.01.21.19.37.4.36.04,0,.08-.01.12-.03,2.14-.84,3.61-6.29,4.29-8.97,2.58-10.33,4.52-20.63,8.82-30.14l7.19-3.81c2.03-1.08,3.56-2.18,4.31-3.11,3.15-3.94,6.44-7.98,9.89-12.11,4.61-5.54,11.26-10.75,19.93-15.63Z"/>
  <path class="st72" d="M949.65,213.31l4.63,5.05c-7.7,9.18-15.24,20.07-19.64,31.79-4.7,12.52-7.96,26.11-7.07,39.59.57,8.66,1.99,17.14,4.26,25.45-.81.02-1.61.2-2.4.53-2.72-7.95-4.16-16.17-4.33-24.67-.2-10.33.03-17.23.69-20.72,1.77-9.43,2.66-14.3,2.68-14.62.27-3.45-.03-6.22-.9-8.29-.33-.78-1.23-1.14-2.01-.81-.38.16-.67.46-.82.84-.44,1.11-2.55,5.62-6.33,13.53-1.02,2.13-2.74,7.26-5.17,15.41-.81,7.93-1.82,15.88-3.03,23.85-1.02,6.78-1.29,12.77-1.48,19.35-4.8-30.87,2.86-62.99,22.34-87.51,5.83-7.35,11.16-13.6,18.58-18.77Z"/>
  <path class="st87" d="M498.34,280.75c-.29,0-.53-.23-.54-.52,0-.03,0-.06,0-.08,1.17-8.22,3.61-15.88,7.34-22.99,13.27-25.33,40.09-34.26,67.09-27.89,25.1,5.92,38.49,26.15,39.36,51.11,0,.2-.15.36-.35.37,0,0,0,0-.01,0h-112.9Z"/>
  <path class="st87" d="M808.24,234.2c-9.11,2.92-18.26-.14-24.81,3.57-4.43,2.51-5.95,2.79-10.72,4.7-7.38,2.96-12.78,6.23-16.19,9.8-3.86,4.05-7.56,6.85-11.1,8.4,12.06-22.26,33.51-30.83,58.06-27.71,1.36.17,2.95.59,4.76,1.24Z"/>
  <path class="st89" d="M1134.26,291.56c-.07,4.29-1,8.44-2.77,12.45-.51,4.3-1.58,7.95-4.38,11.44-1.84,2.29-2.96,4-3.35,5.14-2.18,6.31-3.48,11.75-6.75,15.24-.48.51-1.28.53-1.8.05-.3-.29-.45-.7-.38-1.11l.38-2.56c8-15.69,11.7-32.29,11.1-49.78-.44-12.61-2.54-25.6-8.06-36.45-.39-.75-.59-1.23-.62-1.44-.04-.24.13-.46.36-.51.17-.03.35.05.44.21,3.82,6.22,6.87,12.85,10.86,23.2,2.61,6.79,4.27,14.83,4.97,24.12Z"/>
  <path class="st82" d="M929.43,315.72c.51,2.16.65,4.34.42,6.53-.15,1.48-1.27,2.18-2.55,1.35-1.58-1.01-2.99-2.39-4.22-4.12-5.95-8.35-9.26-17.57-9.91-27.68-.27-4.17-.24-9.3.07-15.41,2.43-8.15,4.15-13.28,5.17-15.41,3.78-7.91,5.89-12.42,6.33-13.53.31-.78,1.2-1.17,1.99-.85.38.15.68.45.84.82.87,2.07,1.17,4.84.9,8.29-.02.32-.91,5.19-2.68,14.62-.66,3.49-.89,10.39-.69,20.72.17,8.5,1.61,16.72,4.33,24.67Z"/>
  <path class="st94" d="M913.24,276.39c-.31,6.11-.34,11.24-.07,15.41.65,10.11,3.96,19.33,9.91,27.68,1.23,1.73,2.64,3.11,4.22,4.12,1.28.83,2.4.13,2.55-1.35.23-2.19.09-4.37-.42-6.53.79-.33,1.59-.51,2.4-.53,9.37,31.63,29.35,53.36,59.96,65.21-2.32.93-3.95,1.87-4.9,2.83-3.22,3.26-.25,7.62,2.52,10.03,4.4,3.84,9.88,6.64,16.45,8.4,10.31,2.77,21.23,4.79,32.77,6.04,8.18.89,15.87-.08,23.07-2.9,10.95-4.29,21.46-10.47,31.52-18.54l7.55-3.26c-7.13,7.2-14.91,13.16-23.35,17.88-7.39,4.13-15.34,7.56-23.85,10.3-8.23,2.64-16.73,4.18-25.51,4.62-25.97,1.29-49.49-5.23-70.55-19.56-14.74-10.02-27.12-24.38-36.24-39.74-6.64-11.18-10.4-24.19-12.54-36.91.19-6.58.46-12.57,1.48-19.35,1.21-7.97,2.22-15.92,3.03-23.85Z"/>
  <path class="st88" d="M1100.77,383l-7.55,3.26c-4.34.45-8.73.2-13.18-.75,7.61-4.82,13.64-9.27,18.11-13.35,3.28-2.99,6.77-7.2,10.48-12.62,4.13-5.38,7.8-11.01,10.99-16.9,1.91-3.53,3.85-7.99,5.8-13.4,3-8.33,6.46-15.62,6.07-25.23,1.77-4.01,2.7-8.16,2.77-12.45.95,9.47,1.16,16.64.63,21.51-2.04,18.73-7.69,35.34-16.96,49.85-3.92,6.14-9.64,12.83-17.16,20.08Z"/>
  <path class="st86" d="M1131.49,304.01c.39,9.61-3.07,16.9-6.07,25.23-1.95,5.41-3.89,9.87-5.8,13.4-3.19,5.89-6.86,11.52-10.99,16.9-3.29-1.02-5.89-.77-7.81.74-5.5,4.33-11.19,8.31-17.06,11.94l-3.98-.97c14.82-9.88,26.63-22.89,35.43-39.04l-.38,2.56c-.1.69.37,1.34,1.07,1.44.41.06.83-.08,1.11-.38,3.27-3.49,4.57-8.93,6.75-15.24.39-1.14,1.51-2.85,3.35-5.14,2.8-3.49,3.87-7.14,4.38-11.44Z"/>
  <path class="st69" d="M1108.63,359.54c-3.71,5.42-7.2,9.63-10.48,12.62-4.47,4.08-10.5,8.53-18.11,13.35-7.13,4.46-14.71,8.02-22.74,10.69-5.25,1.74-10.45,2.18-15.58,1.32-3.23-.54-5.6-2.14-7.11-4.8-.44-.78-.25-1.77.46-2.32.74-.59,1.72-.97,2.95-1.16,9.92-1.54,19.74-3.39,28.87-7.78,5.95-2.86,10.93-4.8,16.87-9.24,5.87-3.63,11.56-7.61,17.06-11.94,1.92-1.51,4.52-1.76,7.81-.74Z"/>
  <path class="st75" d="M1079.78,371.25l3.98.97c-5.94,4.44-10.92,6.38-16.87,9.24-9.13,4.39-18.95,6.24-28.87,7.78-1.23.19-2.21.57-2.95,1.16-.71.55-.9,1.54-.46,2.32,1.51,2.66,3.88,4.26,7.11,4.8,5.13.86,10.33.42,15.58-1.32,8.03-2.67,15.61-6.23,22.74-10.69,4.45.95,8.84,1.2,13.18.75-10.06,8.07-20.57,14.25-31.52,18.54-7.2,2.82-14.89,3.79-23.07,2.9-11.54-1.25-22.46-3.27-32.77-6.04-6.57-1.76-12.05-4.56-16.45-8.4-2.77-2.41-5.74-6.77-2.52-10.03.95-.96,2.58-1.9,4.9-2.83,29.3,10.42,61.32,6.89,87.99-9.15Z"/>
  <path class="st78" d="M556.2,446.39c8.09-9.23,21.6-3.7,21.84,8.13.07,3.39.08,9.36.04,17.9,0,.33-.27.59-.6.59h-3.52c-.33,0-.59-.26-.59-.59h0c.02-7.65.03-13.25.02-16.8-.02-13.32-17.79-12.18-17.75.13.03,6.81.03,12.39,0,16.73,0,.28-.23.51-.52.51h-3.64c-.29,0-.53-.24-.53-.53v-41.9c0-.28.23-.51.51-.51h3.7c.27,0,.49.22.49.5h0v15.63c0,.18.15.32.32.32.09,0,.17-.04.23-.11Z"/>
  <path class="st78" d="M1033.6,469.08c0-.16-.13-.29-.29-.29-.08,0-.17.04-.22.1-6.51,7.57-18.95,5.61-23.37-3.2-2.97-5.92-2.63-11.85,1.02-17.8,4.34-7.07,16.85-8.48,22.13-1.56.13.18.39.22.57.09.11-.08.17-.2.17-.34v-15.71c0-.17.14-.31.31-.31h4.09c.18,0,.33.14.33.32v42.13c0,.28-.23.51-.51.51h-3.78c-.25,0-.45-.21-.45-.46h0v-3.48ZM1023.18,445.94c-5.95.01-10.77,5.27-10.76,11.75h0c.01,6.48,4.85,11.72,10.8,11.71h0c5.95-.01,10.77-5.27,10.76-11.75-.01-6.48-4.85-11.72-10.8-11.71h0Z"/>
  <rect class="st78" x="1162.95" y="430.04" width="4.7" height="42.94" rx=".45" ry=".45"/>
  <path class="st78" d="M1180.13,446.18c0,.18.15.32.32.32.09,0,.17-.04.23-.11,8.08-9.25,21.6-3.73,21.86,8.11.07,3.39.09,9.36.06,17.91,0,.33-.27.59-.6.59h-3.52c-.33,0-.59-.25-.6-.58,0,0,0,0,0-.01.01-7.65.02-13.25.01-16.81-.04-13.32-17.82-12.16-17.76.15.03,6.82.04,12.4.02,16.74,0,.28-.23.51-.52.51h-3.65c-.29.01-.53-.23-.53-.52h0s-.04-41.92-.04-41.92c0-.28.23-.51.51-.51h3.7c.27,0,.49.21.49.49l.02,15.64Z"/>
  <rect class="st78" x="643.04" y="431.12" width="4.98" height="6.12" rx=".46" ry=".46" transform="translate(-1.51 2.26) rotate(-.2)"/>
  <rect class="st78" x="741.03" y="431.15" width="5" height="6.1" rx=".46" ry=".46"/>
  <rect class="st78" x="927.04" y="431.14" width="5" height="6.1" rx=".47" ry=".47" transform="translate(-.76 1.62) rotate(-.1)"/>
  <path class="st78" d="M401.69,452.66c0,.63,0,1.23-.01,1.79,0,.27-.22.49-.49.49h-21.66c-.24,0-.44.19-.44.43v12.69c0,.24.2.43.44.43h24.44c.24,0,.44.2.44.44h0v3.66c0,.22-.18.39-.4.39h-29.22c-.21,0-.38-.17-.38-.37v-39.91c0-.2.17-.37.38-.37h29.22c.22.01.4.18.4.4h0v3.66c0,.24-.2.44-.44.44h-24.44c-.24,0-.44.18-.44.42v12.69c0,.24.2.43.44.43h21.66c.27,0,.49.22.49.5,0,.56.01,1.16.01,1.79Z"/>
  <path class="st78" d="M706.41,472.52v-39.71c0-.26.21-.47.47-.47h28.48c.26,0,.47.21.47.47h0v3.56c0,.26-.21.47-.47.47h-23.8c-.26,0-.47.21-.47.47v13.1c0,.26.21.47.47.47h21.1c.26,0,.47.21.47.47h0v3.63c0,.26-.21.47-.47.47h-21.09c-.26,0-.47.21-.47.47h0v16.6c0,.26-.21.47-.47.47h-3.75c-.26,0-.47-.21-.47-.47h0Z"/>
  <path class="st78" d="M1099.12,472.48c0,.3-.24.54-.54.54h0l-3.66-.03c-.28,0-.51-.23-.51-.51v-39.51c0-.35.28-.63.63-.63h28.43c.19.01.35.17.35.36v3.77c0,.2-.16.37-.36.37h-23.96c-.23,0-.42.18-.42.41h0s.01,13.2.01,13.2c0,.25.2.45.45.45h0l20.99-.03c.35,0,.63.29.63.64h0s-.03,3.33-.03,3.33c0,.34-.29.62-.63.62h-20.96c-.25,0-.46.21-.46.46h0s.04,16.56.04,16.56Z"/>
  <path class="st78" d="M415.37,446.06c0,.19.15.35.34.36.1,0,.19-.04.26-.11.66-.66,2.12-2.27,3.03-2.76,3.83-2.05,7.64-2.3,11.43-.73,5.4,2.24,7.4,7.19,7.41,13.18.01,6.99.02,12.47.01,16.44,0,.3-.24.54-.54.54h-3.63c-.29,0-.53-.24-.53-.53v-12.24c.09-4.5-.13-7.42-.65-8.75-3.75-9.55-17.33-5.67-17.12,4.54.03,1.51.04,7.01.03,16.48,0,.29-.23.52-.52.52h-3.67c-.29,0-.52-.23-.52-.51h0s-.03-29.62-.03-29.62c0-.33.26-.59.59-.59h3.58c.29,0,.53.24.53.53v3.25Z"/>
  <path class="st78" d="M469.37,445.99v-3.29c0-.24.19-.43.43-.43h3.64c.33,0,.59.27.59.6h0c0,13.21.01,22.42.01,27.63,0,2.61-.24,4.79-.72,6.55-2.27,8.32-12.4,9.86-19.68,7.75-3.9-1.13-6.72-3.78-8.45-7.95-.03-.08,0-.18.09-.21.02,0,.04-.01.06-.01h4.51c.19,0,.37.1.47.26,2.1,3.51,5.68,4.99,10.73,4.42,8.15-.91,8.36-6.46,8.33-12.92,0-.1-.08-.19-.19-.19-.05,0-.11.02-.14.06-4.67,4.89-10.25,6.06-16.75,3.5-12.48-4.9-11.54-25.91,2.02-29.38,5.72-1.47,10.53-.18,14.44,3.86.13.14.35.15.5.01.07-.07.11-.16.11-.26ZM458.95,445.94c-5.95,0-10.78,5.14-10.78,11.48h0c0,6.34,4.83,11.48,10.78,11.48s10.78-5.14,10.78-11.48-4.83-11.48-10.78-11.48h0Z"/>
  <path class="st78" d="M508.8,464.13c.3,0,.54.24.54.54,0,.07-.02.15-.05.22-5.66,12.64-24.09,11.1-28.34-1.8-3.63-11.01,3.29-21.64,15.48-21.19,9.25.34,14.92,8.51,14.01,17.37-.02.17-.16.29-.33.29h-24.55c-.3,0-.54.24-.54.54,0,.04,0,.07.01.11.72,3.61,2.41,6.12,5.06,7.51,5.55,2.92,10.27,1.91,14.14-3.03.28-.35.71-.56,1.16-.56h3.41ZM485.39,455.16h19.84c.08,0,.14-.06.14-.14v-.06c0-4.86-4.48-8.8-10-8.8h-.12c-5.52,0-10,3.94-10,8.8v.06c0,.08.06.14.14.14h0Z"/>
  <path class="st78" d="M520.87,446.05c0,.19.15.35.34.36.1,0,.19-.04.26-.11.67-.66,2.13-2.27,3.04-2.76,3.85-2.05,7.66-2.28,11.45-.7,5.4,2.25,7.4,7.21,7.39,13.21,0,7,0,12.49-.02,16.46,0,.3-.24.54-.54.54h-3.64c-.29,0-.53-.24-.53-.53h0c.02-8.17.03-12.26.03-12.27.09-4.5-.12-7.42-.64-8.76-3.73-9.58-17.34-5.71-17.15,4.51.03,1.52.03,7.02,0,16.51,0,.29-.23.52-.52.52h-3.68c-.29-.01-.52-.24-.52-.52l.04-29.66c0-.33.25-.59.58-.6,0,0,0,0,.01,0h3.58c.29,0,.53.25.53.54h0s-.01,3.26-.01,3.26Z"/>
  <path class="st78" d="M583.55,457.67c0-7.68,4.49-14.4,12.39-15.64,5.27-.83,9.58.65,12.95,4.44.09.11.26.13.37.03.06-.05.09-.13.09-.2v-3.44c0-.3.25-.55.55-.55h3.55c.33,0,.59.26.59.59.01,4.82.01,9.74,0,14.77.01,5.02.01,9.94,0,14.77,0,.33-.26.59-.59.59h-3.55c-.3,0-.55-.25-.55-.55h0v-3.44c0-.14-.11-.26-.26-.26-.08,0-.15.03-.2.09-3.37,3.78-7.68,5.26-12.95,4.43-7.9-1.23-12.39-7.95-12.39-15.63ZM598.89,445.94c-5.95.03-10.74,5.31-10.71,11.79h0c.03,6.48,4.88,11.7,10.83,11.67,5.95-.03,10.74-5.31,10.71-11.79h0c-.03-6.48-4.88-11.7-10.83-11.67Z"/>
  <path class="st78" d="M626.64,448.3c0,.15.13.26.28.26.09,0,.17-.05.22-.13,2.31-4.28,5.82-6.48,10.53-6.6.33-.01.61.25.62.58,0,0,0,.01,0,.02v3.47c0,.38-.31.68-.69.68-7.06-.1-10.89,6.48-10.93,12.94-.03,3.43-.02,7.75.01,12.98,0,.29-.23.52-.51.52h-3.71c-.28,0-.51-.23-.51-.52v-29.63c0-.34.27-.61.61-.61h3.47c.34,0,.61.27.61.61v5.43Z"/>
  <path class="st78" d="M684.32,457.67c.01,5.02.01,9.94,0,14.77,0,.33-.26.59-.59.59h-3.55c-.3,0-.55-.25-.55-.55v-3.44c0-.14-.11-.26-.26-.26-.08,0-.15.03-.2.09-3.37,3.79-7.69,5.27-12.96,4.44-7.9-1.24-12.4-7.96-12.4-15.64s4.5-14.41,12.4-15.65c5.27-.83,9.59.65,12.96,4.44.09.11.26.13.37.03.06-.05.1-.13.09-.2v-3.44c0-.3.25-.55.55-.55h3.55c.33,0,.59.26.59.59h0c.01,4.83.01,9.75,0,14.78ZM669.15,445.96c-5.95.03-10.74,5.3-10.71,11.78.03,6.47,4.88,11.69,10.83,11.66h0c5.95-.03,10.74-5.3,10.71-11.78s-4.88-11.69-10.83-11.66h0Z"/>
  <path class="st78" d="M758.37,446.06c0,.19.15.35.34.36.1,0,.19-.04.26-.11.66-.66,2.12-2.27,3.03-2.77,3.83-2.05,7.64-2.29,11.43-.72,5.4,2.24,7.41,7.2,7.41,13.18.01,7,.02,12.48.02,16.45,0,.3-.24.54-.54.54h-3.64c-.29,0-.53-.23-.53-.52,0-8.16,0-12.25,0-12.26.09-4.5-.12-7.42-.65-8.75-3.75-9.56-17.33-5.67-17.12,4.54.03,1.52.04,7.02.03,16.49,0,.29-.23.52-.52.52h-3.67c-.29.02-.52-.21-.53-.49,0,0,0,0,0,0l-.02-29.64c0-.33.26-.59.59-.59h3.57c.29,0,.53.24.53.53v3.25Z"/>
  <path class="st78" d="M786.55,457.66c0-7.67,4.48-14.39,12.38-15.63,5.27-.83,9.59.64,12.96,4.43.09.11.26.13.37.03.06-.05.09-.13.09-.2v-3.44c0-.3.25-.55.55-.55h3.55c.33,0,.59.26.59.59.01,4.82.01,9.74,0,14.77.01,5.02.01,9.94,0,14.76,0,.33-.26.59-.59.59h-3.55c-.3,0-.54-.25-.54-.55v-3.43c0-.14-.12-.26-.27-.26-.08,0-.15.03-.2.09-3.36,3.78-7.68,5.26-12.95,4.43-7.9-1.23-12.39-7.95-12.39-15.63ZM801.98,445.95c-5.95-.01-10.78,5.23-10.79,11.7h0c-.01,6.47,4.8,11.73,10.75,11.74h0c5.95.01,10.78-5.23,10.79-11.7h0c.01-6.47-4.8-11.73-10.75-11.74Z"/>
  <path class="st78" d="M830.24,446.3c.66-.66,2.12-2.27,3.03-2.76,3.83-2.05,7.64-2.28,11.42-.71,5.39,2.24,7.39,7.19,7.39,13.17,0,6.99,0,12.46,0,16.43,0,.3-.24.54-.54.54h-3.63c-.29,0-.53-.24-.53-.53,0-8.15,0-12.23.01-12.24.09-4.49-.12-7.41-.64-8.74-3.74-9.55-17.31-5.68-17.11,4.52.03,1.51.04,7,.02,16.47,0,.29-.23.52-.52.52h-3.67c-.29,0-.52-.23-.52-.51v-29.6c0-.33.26-.59.59-.59h3.57c.29,0,.53.24.53.53h0v3.25c0,.19.15.35.34.36.1,0,.19-.04.26-.11Z"/>
  <path class="st78" d="M862.55,457.69c.01,6.55,4.43,11.65,11.18,11.55,3.71-.06,6.45-1.74,8.24-5.03.31-.57.9-.92,1.54-.92h2.98c.41,0,.75.34.75.75,0,.11-.02.21-.07.31-7.07,15.05-29.32,10.91-29.36-6.65s22.19-21.79,29.33-6.78c.17.38,0,.82-.37.99-.1.04-.2.07-.31.07l-2.98.02c-.64,0-1.23-.35-1.54-.92-1.8-3.28-4.55-4.94-8.26-4.99-6.75-.07-11.15,5.05-11.13,11.6Z"/>
  <path class="st78" d="M920.3,464.89c-5.66,12.65-24.1,11.1-28.35-1.8-3.63-11.02,3.29-21.65,15.48-21.2,9.26.34,14.93,8.51,14.02,17.38-.02.17-.16.29-.33.29h-24.56c-.3,0-.54.24-.54.54,0,.04,0,.07.01.11.72,3.61,2.41,6.12,5.06,7.51,5.56,2.92,10.28,1.91,14.15-3.03.28-.35.71-.56,1.16-.56h3.41c.3,0,.54.24.54.54,0,.07-.02.15-.05.22ZM896.33,455.15l19.94.04c.06,0,.1-.04.1-.1v-.09c.01-4.88-4.46-8.84-9.99-8.85h-.12c-5.53-.01-10.02,3.93-10.03,8.81h0v.09c0,.06.04.1.1.1h0Z"/>
  <path class="st78" d="M945.14,448.43c2.31-4.27,5.82-6.47,10.52-6.59.33-.01.61.25.62.58,0,0,0,.01,0,.02v3.46c0,.38-.31.68-.69.68-7.05-.1-10.88,6.47-10.92,12.93-.03,3.42-.02,7.74.01,12.96,0,.29-.23.52-.51.52h-3.7c-.28,0-.51-.23-.51-.52v-29.59c0-.34.27-.61.61-.61h3.46c.34,0,.61.27.61.61h0v5.42c0,.15.13.26.28.26.09,0,.17-.05.22-.13Z"/>
  <path class="st78" d="M958.31,457.66c0-7.67,4.49-14.4,12.39-15.63,5.27-.83,9.58.64,12.95,4.42.09.11.26.13.37.03.06-.05.09-.13.09-.2v-3.43c0-.3.25-.55.55-.55h3.55c.33,0,.59.25.59.58.01,4.83.02,9.75.01,14.77.01,5.03.01,9.95,0,14.77,0,.33-.26.59-.59.59h-3.55c-.3,0-.55-.25-.55-.55h0v-3.44c0-.14-.11-.26-.26-.26-.08,0-.15.03-.2.09-3.36,3.79-7.68,5.27-12.95,4.44-7.9-1.23-12.4-7.95-12.4-15.63ZM973.72,445.96c-5.95-.01-10.79,5.22-10.8,11.69h0c-.01,6.47,4.81,11.72,10.76,11.73h0c5.95.01,10.79-5.22,10.8-11.69s-4.81-11.72-10.76-11.73h0Z"/>
  <path class="st78" d="M1073.04,464.13c.3,0,.54.24.54.54,0,.07-.02.15-.05.22-5.65,12.64-24.08,11.1-28.33-1.79-3.63-11.01,3.28-21.64,15.46-21.19,9.26.33,14.93,8.5,14.02,17.36-.02.17-.16.29-.33.29h-24.55c-.3,0-.54.25-.54.55,0,.04,0,.07.01.11.73,3.61,2.42,6.12,5.07,7.51,5.55,2.91,10.27,1.9,14.14-3.04.28-.35.71-.56,1.16-.56h3.4ZM1049.59,455.18h19.94c.06,0,.11-.05.11-.11v-.09c0-4.89-4.49-8.86-10.02-8.86h-.12c-5.53,0-10.02,3.97-10.02,8.86h0v.09c0,.06.05.11.11.11Z"/>
  <path class="st78" d="M1141.87,441.65c8.49.04,15.34,7.25,15.3,16.1-.05,8.85-6.97,15.98-15.46,15.94h0c-8.49-.04-15.34-7.25-15.3-16.1.05-8.85,6.97-15.98,15.46-15.94h0ZM1141.81,445.93c-5.89,0-10.66,5.26-10.66,11.74h0c0,6.48,4.77,11.74,10.66,11.74h0c5.89,0,10.66-5.26,10.66-11.74s-4.77-11.74-10.66-11.74Z"/>
  <path class="st78" d="M1208.31,457.67c-.01-7.67,4.48-14.4,12.38-15.64,5.27-.83,9.59.64,12.96,4.43.09.11.26.13.37.03.06-.05.1-.13.09-.2v-3.44c0-.3.24-.54.54-.55h3.55c.33,0,.59.25.6.58h0c.01,4.83.02,9.75.01,14.77.01,5.03.01,9.95,0,14.77,0,.33-.26.59-.59.59h-3.55c-.3.01-.55-.24-.55-.54h0v-3.44c0-.14-.11-.26-.26-.26-.08,0-.15.03-.2.09-3.36,3.79-7.68,5.27-12.95,4.44-7.9-1.23-12.4-7.95-12.4-15.63ZM1223.77,445.95c-5.95-.03-10.81,5.19-10.84,11.66h0c-.03,6.47,4.76,11.75,10.72,11.78,5.95.03,10.81-5.19,10.84-11.66h0c.03-6.47-4.77-11.75-10.72-11.78Z"/>
  <rect class="st78" x="643.19" y="442.27" width="4.68" height="30.72" rx=".52" ry=".52"/>
  <rect class="st78" x="741.19" y="442.27" width="4.68" height="30.7" rx=".46" ry=".46"/>
  <rect class="st78" x="927.19" y="442.25" width="4.68" height="30.7" rx=".43" ry=".43"/>
  <ellipse class="st87" cx="458.95" cy="457.42" rx="10.78" ry="11.48"/>
  <path class="st87" d="M485.39,455.16c-.08,0-.14-.06-.14-.14h0v-.06c0-4.86,4.48-8.8,10-8.8h.12c5.52,0,10,3.94,10,8.8v.06c0,.08-.06.14-.14.14h-19.84Z"/>
  <ellipse class="st87" cx="598.95" cy="457.67" rx="10.77" ry="11.73" transform="translate(-2.39 3.14) rotate(-.3)"/>
  <ellipse class="st87" cx="669.21" cy="457.68" rx="10.77" ry="11.72" transform="translate(-2.39 3.51) rotate(-.3)"/>
  <ellipse class="st87" cx="801.96" cy="457.67" rx="11.72" ry="10.77" transform="translate(342.89 1258.83) rotate(-89.9)"/>
  <path class="st87" d="M896.33,455.15c-.06,0-.1-.04-.1-.1h0v-.09c.01-4.88,4.5-8.82,10.03-8.81h.12c5.53.01,10,3.97,9.99,8.85v.09c0,.06-.04.1-.1.1l-19.94-.04Z"/>
  <ellipse class="st87" cx="973.7" cy="457.67" rx="11.71" ry="10.78" transform="translate(514.33 1430.57) rotate(-89.9)"/>
  <ellipse class="st87" cx="1023.2" cy="457.67" rx="10.78" ry="11.73" transform="translate(-.8 1.79) rotate(-.1)"/>
  <path class="st87" d="M1049.59,455.18c-.06,0-.11-.05-.11-.11v-.09c0-4.89,4.49-8.86,10.02-8.86h.12c5.53,0,10.02,3.97,10.02,8.86h0v.09c0,.06-.05.11-.11.11h-19.94Z"/>
  <ellipse class="st87" cx="1141.81" cy="457.67" rx="10.66" ry="11.74"/>
  <ellipse class="st87" cx="1223.71" cy="457.67" rx="11.72" ry="10.78" transform="translate(759.64 1678.97) rotate(-89.7)"/>
</svg>